%TF.GenerationSoftware,KiCad,Pcbnew,9.0.2*%
%TF.CreationDate,2025-07-16T05:03:17+03:00*%
%TF.ProjectId,dcesc-ga25,64636573-632d-4676-9132-352e6b696361,rev?*%
%TF.SameCoordinates,Original*%
%TF.FileFunction,Legend,Top*%
%TF.FilePolarity,Positive*%
%FSLAX45Y45*%
G04 Gerber Fmt 4.5, Leading zero omitted, Abs format (unit mm)*
G04 Created by KiCad (PCBNEW 9.0.2) date 2025-07-16 05:03:17*
%MOMM*%
%LPD*%
G01*
G04 APERTURE LIST*
G04 Aperture macros list*
%AMRoundRect*
0 Rectangle with rounded corners*
0 $1 Rounding radius*
0 $2 $3 $4 $5 $6 $7 $8 $9 X,Y pos of 4 corners*
0 Add a 4 corners polygon primitive as box body*
4,1,4,$2,$3,$4,$5,$6,$7,$8,$9,$2,$3,0*
0 Add four circle primitives for the rounded corners*
1,1,$1+$1,$2,$3*
1,1,$1+$1,$4,$5*
1,1,$1+$1,$6,$7*
1,1,$1+$1,$8,$9*
0 Add four rect primitives between the rounded corners*
20,1,$1+$1,$2,$3,$4,$5,0*
20,1,$1+$1,$4,$5,$6,$7,0*
20,1,$1+$1,$6,$7,$8,$9,0*
20,1,$1+$1,$8,$9,$2,$3,0*%
%AMFreePoly0*
4,1,30,0.400000,-4.000000,-0.400000,-4.000000,-2.400000,-4.000000,-2.400000,-3.200000,-0.400000,-3.200000,-0.400000,-2.800000,-2.400000,-2.800000,-2.400000,-2.000000,-0.400000,-2.000000,-0.400000,-1.600000,-2.400000,-1.600000,-2.400000,-0.800000,-0.400000,-0.800000,-0.400000,-0.400000,-2.400000,-0.400000,-2.400000,0.400000,-0.400000,0.400000,-0.400000,0.800000,-2.400000,0.800000,-2.400000,1.600000,
-0.400000,1.600000,-0.400000,2.000000,-2.400000,2.000000,-2.400000,2.800000,-0.400000,2.800000,-0.400000,3.200000,-2.400000,3.200000,-2.400000,4.000000,0.400000,4.000000,0.400000,-4.000000,0.400000,-4.000000,$1*%
%AMFreePoly1*
4,1,13,2.850000,-5.050000,1.450000,-5.050000,1.450000,-4.350000,-1.450000,-4.350000,-1.450000,-4.850000,-5.150000,-4.850000,-5.150000,4.850000,-1.450000,4.850000,-1.450000,4.350000,1.450000,4.350000,1.450000,5.050000,2.850000,5.050000,2.850000,-5.050000,2.850000,-5.050000,$1*%
G04 Aperture macros list end*
%ADD10C,0.100000*%
%ADD11C,0.150000*%
%ADD12C,0.120000*%
%ADD13C,0.200000*%
%ADD14RoundRect,1.000000X0.000010X0.000010X-0.000010X0.000010X-0.000010X-0.000010X0.000010X-0.000010X0*%
%ADD15C,2.000000*%
%ADD16RoundRect,0.112500X0.237500X-0.112500X0.237500X0.112500X-0.237500X0.112500X-0.237500X-0.112500X0*%
%ADD17RoundRect,2.249998X-1.250002X-1.250002X1.250002X-1.250002X1.250002X1.250002X-1.250002X1.250002X0*%
%ADD18RoundRect,0.250000X-0.325000X-0.650000X0.325000X-0.650000X0.325000X0.650000X-0.325000X0.650000X0*%
%ADD19RoundRect,0.200000X0.275000X-0.200000X0.275000X0.200000X-0.275000X0.200000X-0.275000X-0.200000X0*%
%ADD20RoundRect,0.250000X0.250000X0.475000X-0.250000X0.475000X-0.250000X-0.475000X0.250000X-0.475000X0*%
%ADD21C,3.200000*%
%ADD22RoundRect,0.150000X0.675000X0.150000X-0.675000X0.150000X-0.675000X-0.150000X0.675000X-0.150000X0*%
%ADD23RoundRect,0.112500X-0.112500X-0.237500X0.112500X-0.237500X0.112500X0.237500X-0.112500X0.237500X0*%
%ADD24RoundRect,0.200000X0.200000X0.275000X-0.200000X0.275000X-0.200000X-0.275000X0.200000X-0.275000X0*%
%ADD25RoundRect,0.150000X-0.512500X-0.150000X0.512500X-0.150000X0.512500X0.150000X-0.512500X0.150000X0*%
%ADD26RoundRect,0.250000X-0.265000X-0.615000X0.265000X-0.615000X0.265000X0.615000X-0.265000X0.615000X0*%
%ADD27O,1.030000X1.730000*%
%ADD28RoundRect,0.225000X0.250000X-0.225000X0.250000X0.225000X-0.250000X0.225000X-0.250000X-0.225000X0*%
%ADD29RoundRect,0.200000X-0.275000X0.200000X-0.275000X-0.200000X0.275000X-0.200000X0.275000X0.200000X0*%
%ADD30RoundRect,0.200000X-0.200000X-0.275000X0.200000X-0.275000X0.200000X0.275000X-0.200000X0.275000X0*%
%ADD31RoundRect,0.150000X-0.150000X0.512500X-0.150000X-0.512500X0.150000X-0.512500X0.150000X0.512500X0*%
%ADD32RoundRect,0.250000X0.650000X-1.000000X0.650000X1.000000X-0.650000X1.000000X-0.650000X-1.000000X0*%
%ADD33RoundRect,0.150000X-0.150000X0.825000X-0.150000X-0.825000X0.150000X-0.825000X0.150000X0.825000X0*%
%ADD34RoundRect,0.250000X-1.000000X-0.650000X1.000000X-0.650000X1.000000X0.650000X-1.000000X0.650000X0*%
%ADD35C,1.020000*%
%ADD36RoundRect,0.250001X-0.499999X-0.499999X0.499999X-0.499999X0.499999X0.499999X-0.499999X0.499999X0*%
%ADD37C,1.500000*%
%ADD38R,0.510000X0.700000*%
%ADD39RoundRect,0.250000X-0.250000X-0.475000X0.250000X-0.475000X0.250000X0.475000X-0.250000X0.475000X0*%
%ADD40RoundRect,0.250000X0.625000X-0.312500X0.625000X0.312500X-0.625000X0.312500X-0.625000X-0.312500X0*%
%ADD41RoundRect,0.225000X-0.250000X0.225000X-0.250000X-0.225000X0.250000X-0.225000X0.250000X0.225000X0*%
%ADD42RoundRect,0.225000X0.225000X0.250000X-0.225000X0.250000X-0.225000X-0.250000X0.225000X-0.250000X0*%
%ADD43RoundRect,0.250000X1.000000X0.650000X-1.000000X0.650000X-1.000000X-0.650000X1.000000X-0.650000X0*%
%ADD44R,0.610000X1.910000*%
%ADD45R,1.550000X1.205000*%
%ADD46RoundRect,0.225000X-0.225000X-0.250000X0.225000X-0.250000X0.225000X0.250000X-0.225000X0.250000X0*%
%ADD47RoundRect,0.250000X-0.650000X0.325000X-0.650000X-0.325000X0.650000X-0.325000X0.650000X0.325000X0*%
%ADD48RoundRect,1.400000X0.800000X-0.800000X0.800000X0.800000X-0.800000X0.800000X-0.800000X-0.800000X0*%
%ADD49RoundRect,0.250000X0.550000X2.600000X-0.550000X2.600000X-0.550000X-2.600000X0.550000X-2.600000X0*%
%ADD50RoundRect,0.250000X-0.615000X0.265000X-0.615000X-0.265000X0.615000X-0.265000X0.615000X0.265000X0*%
%ADD51O,1.730000X1.030000*%
%ADD52RoundRect,0.150000X0.512500X0.150000X-0.512500X0.150000X-0.512500X-0.150000X0.512500X-0.150000X0*%
%ADD53R,0.800000X2.800000*%
%ADD54FreePoly0,270.000000*%
%ADD55FreePoly1,270.000000*%
%ADD56RoundRect,0.250000X0.650000X-0.325000X0.650000X0.325000X-0.650000X0.325000X-0.650000X-0.325000X0*%
%ADD57FreePoly0,90.000000*%
%ADD58FreePoly1,90.000000*%
%ADD59RoundRect,0.250000X1.045000X-0.785000X1.045000X0.785000X-1.045000X0.785000X-1.045000X-0.785000X0*%
%ADD60R,1.000000X1.000000*%
%ADD61RoundRect,0.112500X0.112500X0.237500X-0.112500X0.237500X-0.112500X-0.237500X0.112500X-0.237500X0*%
%ADD62RoundRect,0.250000X-0.625000X0.312500X-0.625000X-0.312500X0.625000X-0.312500X0.625000X0.312500X0*%
%ADD63RoundRect,0.218750X0.256250X-0.218750X0.256250X0.218750X-0.256250X0.218750X-0.256250X-0.218750X0*%
%ADD64R,3.100000X2.400000*%
%ADD65RoundRect,0.070000X0.250000X-0.800000X0.250000X0.800000X-0.250000X0.800000X-0.250000X-0.800000X0*%
%ADD66C,0.770000*%
%ADD67RoundRect,0.250000X0.945000X-0.420000X0.945000X0.420000X-0.945000X0.420000X-0.945000X-0.420000X0*%
%ADD68C,0.520000*%
%ADD69R,0.870000X0.300000*%
%ADD70O,1.100000X2.200000*%
%ADD71RoundRect,0.243750X-0.243750X-0.456250X0.243750X-0.456250X0.243750X0.456250X-0.243750X0.456250X0*%
%ADD72C,1.200000*%
%ADD73RoundRect,0.250000X-0.750000X0.600000X-0.750000X-0.600000X0.750000X-0.600000X0.750000X0.600000X0*%
%ADD74O,2.000000X1.700000*%
%ADD75RoundRect,2.559998X-0.940002X-0.940002X0.940002X-0.940002X0.940002X0.940002X-0.940002X0.940002X0*%
%ADD76RoundRect,1.000000X0.000011X0.000009X-0.000009X0.000011X-0.000011X-0.000009X0.000009X-0.000011X0*%
%ADD77RoundRect,0.250000X-0.850000X-0.350000X0.850000X-0.350000X0.850000X0.350000X-0.850000X0.350000X0*%
%ADD78RoundRect,0.249997X-2.950003X-2.650003X2.950003X-2.650003X2.950003X2.650003X-2.950003X2.650003X0*%
%ADD79RoundRect,0.075000X0.075000X-0.662500X0.075000X0.662500X-0.075000X0.662500X-0.075000X-0.662500X0*%
%ADD80RoundRect,0.075000X0.662500X-0.075000X0.662500X0.075000X-0.662500X0.075000X-0.662500X-0.075000X0*%
%ADD81RoundRect,1.000000X0.000009X0.000011X-0.000011X0.000009X-0.000009X-0.000011X0.000011X-0.000009X0*%
%ADD82RoundRect,0.200000X0.200000X0.300000X-0.200000X0.300000X-0.200000X-0.300000X0.200000X-0.300000X0*%
%ADD83R,1.600000X5.700000*%
%ADD84RoundRect,1.400000X-0.800000X0.800000X-0.800000X-0.800000X0.800000X-0.800000X0.800000X0.800000X0*%
G04 APERTURE END LIST*
D10*
X13100000Y-9650000D02*
G75*
G02*
X12480000Y-9650000I-310000J0D01*
G01*
X12480000Y-9650000D02*
G75*
G02*
X13100000Y-9650000I310000J0D01*
G01*
X11980000Y-5350000D02*
G75*
G02*
X11360000Y-5350000I-310000J0D01*
G01*
X11360000Y-5350000D02*
G75*
G02*
X11980000Y-5350000I310000J0D01*
G01*
X10950000Y-9650000D02*
G75*
G02*
X10330000Y-9650000I-310000J0D01*
G01*
X10330000Y-9650000D02*
G75*
G02*
X10950000Y-9650000I310000J0D01*
G01*
X14130000Y-5350000D02*
G75*
G02*
X13510000Y-5350000I-310000J0D01*
G01*
X13510000Y-5350000D02*
G75*
G02*
X14130000Y-5350000I310000J0D01*
G01*
X18450000Y-7500000D02*
G75*
G02*
X17750000Y-7500000I-350000J0D01*
G01*
X17750000Y-7500000D02*
G75*
G02*
X18450000Y-7500000I350000J0D01*
G01*
D11*
X13743809Y-6108482D02*
X13800952Y-6108482D01*
X13772381Y-6208482D02*
X13772381Y-6108482D01*
X13824762Y-6108482D02*
X13891428Y-6108482D01*
X13891428Y-6108482D02*
X13848571Y-6208482D01*
X12663809Y-8822482D02*
X12720952Y-8822482D01*
X12692381Y-8922482D02*
X12692381Y-8822482D01*
X12744762Y-8822482D02*
X12806667Y-8822482D01*
X12806667Y-8822482D02*
X12773333Y-8860577D01*
X12773333Y-8860577D02*
X12787619Y-8860577D01*
X12787619Y-8860577D02*
X12797143Y-8865339D01*
X12797143Y-8865339D02*
X12801905Y-8870101D01*
X12801905Y-8870101D02*
X12806667Y-8879625D01*
X12806667Y-8879625D02*
X12806667Y-8903434D01*
X12806667Y-8903434D02*
X12801905Y-8912958D01*
X12801905Y-8912958D02*
X12797143Y-8917720D01*
X12797143Y-8917720D02*
X12787619Y-8922482D01*
X12787619Y-8922482D02*
X12759048Y-8922482D01*
X12759048Y-8922482D02*
X12749524Y-8917720D01*
X12749524Y-8917720D02*
X12744762Y-8912958D01*
X12703809Y-6585482D02*
X12760952Y-6585482D01*
X12732381Y-6685482D02*
X12732381Y-6585482D01*
X12808571Y-6628339D02*
X12799048Y-6623577D01*
X12799048Y-6623577D02*
X12794286Y-6618815D01*
X12794286Y-6618815D02*
X12789524Y-6609291D01*
X12789524Y-6609291D02*
X12789524Y-6604529D01*
X12789524Y-6604529D02*
X12794286Y-6595006D01*
X12794286Y-6595006D02*
X12799048Y-6590244D01*
X12799048Y-6590244D02*
X12808571Y-6585482D01*
X12808571Y-6585482D02*
X12827619Y-6585482D01*
X12827619Y-6585482D02*
X12837143Y-6590244D01*
X12837143Y-6590244D02*
X12841905Y-6595006D01*
X12841905Y-6595006D02*
X12846667Y-6604529D01*
X12846667Y-6604529D02*
X12846667Y-6609291D01*
X12846667Y-6609291D02*
X12841905Y-6618815D01*
X12841905Y-6618815D02*
X12837143Y-6623577D01*
X12837143Y-6623577D02*
X12827619Y-6628339D01*
X12827619Y-6628339D02*
X12808571Y-6628339D01*
X12808571Y-6628339D02*
X12799048Y-6633101D01*
X12799048Y-6633101D02*
X12794286Y-6637863D01*
X12794286Y-6637863D02*
X12789524Y-6647387D01*
X12789524Y-6647387D02*
X12789524Y-6666434D01*
X12789524Y-6666434D02*
X12794286Y-6675958D01*
X12794286Y-6675958D02*
X12799048Y-6680720D01*
X12799048Y-6680720D02*
X12808571Y-6685482D01*
X12808571Y-6685482D02*
X12827619Y-6685482D01*
X12827619Y-6685482D02*
X12837143Y-6680720D01*
X12837143Y-6680720D02*
X12841905Y-6675958D01*
X12841905Y-6675958D02*
X12846667Y-6666434D01*
X12846667Y-6666434D02*
X12846667Y-6647387D01*
X12846667Y-6647387D02*
X12841905Y-6637863D01*
X12841905Y-6637863D02*
X12837143Y-6633101D01*
X12837143Y-6633101D02*
X12827619Y-6628339D01*
X11603809Y-6110482D02*
X11660952Y-6110482D01*
X11632381Y-6210482D02*
X11632381Y-6110482D01*
X11741905Y-6110482D02*
X11694286Y-6110482D01*
X11694286Y-6110482D02*
X11689524Y-6158101D01*
X11689524Y-6158101D02*
X11694286Y-6153339D01*
X11694286Y-6153339D02*
X11703809Y-6148577D01*
X11703809Y-6148577D02*
X11727619Y-6148577D01*
X11727619Y-6148577D02*
X11737143Y-6153339D01*
X11737143Y-6153339D02*
X11741905Y-6158101D01*
X11741905Y-6158101D02*
X11746667Y-6167625D01*
X11746667Y-6167625D02*
X11746667Y-6191434D01*
X11746667Y-6191434D02*
X11741905Y-6200958D01*
X11741905Y-6200958D02*
X11737143Y-6205720D01*
X11737143Y-6205720D02*
X11727619Y-6210482D01*
X11727619Y-6210482D02*
X11703809Y-6210482D01*
X11703809Y-6210482D02*
X11694286Y-6205720D01*
X11694286Y-6205720D02*
X11689524Y-6200958D01*
X10543810Y-8802482D02*
X10600952Y-8802482D01*
X10572381Y-8902482D02*
X10572381Y-8802482D01*
X10686667Y-8902482D02*
X10629524Y-8902482D01*
X10658095Y-8902482D02*
X10658095Y-8802482D01*
X10658095Y-8802482D02*
X10648571Y-8816768D01*
X10648571Y-8816768D02*
X10639048Y-8826291D01*
X10639048Y-8826291D02*
X10629524Y-8831053D01*
X13703809Y-8320482D02*
X13760952Y-8320482D01*
X13732381Y-8420482D02*
X13732381Y-8320482D01*
X13837143Y-8353815D02*
X13837143Y-8420482D01*
X13813333Y-8315720D02*
X13789524Y-8387148D01*
X13789524Y-8387148D02*
X13851428Y-8387148D01*
X10583810Y-6585482D02*
X10640952Y-6585482D01*
X10612381Y-6685482D02*
X10612381Y-6585482D01*
X10717143Y-6585482D02*
X10698095Y-6585482D01*
X10698095Y-6585482D02*
X10688571Y-6590244D01*
X10688571Y-6590244D02*
X10683810Y-6595006D01*
X10683810Y-6595006D02*
X10674286Y-6609291D01*
X10674286Y-6609291D02*
X10669524Y-6628339D01*
X10669524Y-6628339D02*
X10669524Y-6666434D01*
X10669524Y-6666434D02*
X10674286Y-6675958D01*
X10674286Y-6675958D02*
X10679048Y-6680720D01*
X10679048Y-6680720D02*
X10688571Y-6685482D01*
X10688571Y-6685482D02*
X10707619Y-6685482D01*
X10707619Y-6685482D02*
X10717143Y-6680720D01*
X10717143Y-6680720D02*
X10721905Y-6675958D01*
X10721905Y-6675958D02*
X10726667Y-6666434D01*
X10726667Y-6666434D02*
X10726667Y-6642625D01*
X10726667Y-6642625D02*
X10721905Y-6633101D01*
X10721905Y-6633101D02*
X10717143Y-6628339D01*
X10717143Y-6628339D02*
X10707619Y-6623577D01*
X10707619Y-6623577D02*
X10688571Y-6623577D01*
X10688571Y-6623577D02*
X10679048Y-6628339D01*
X10679048Y-6628339D02*
X10674286Y-6633101D01*
X10674286Y-6633101D02*
X10669524Y-6642625D01*
X11543809Y-8370482D02*
X11600952Y-8370482D01*
X11572381Y-8470482D02*
X11572381Y-8370482D01*
X11629524Y-8380006D02*
X11634286Y-8375244D01*
X11634286Y-8375244D02*
X11643809Y-8370482D01*
X11643809Y-8370482D02*
X11667619Y-8370482D01*
X11667619Y-8370482D02*
X11677143Y-8375244D01*
X11677143Y-8375244D02*
X11681905Y-8380006D01*
X11681905Y-8380006D02*
X11686667Y-8389530D01*
X11686667Y-8389530D02*
X11686667Y-8399053D01*
X11686667Y-8399053D02*
X11681905Y-8413339D01*
X11681905Y-8413339D02*
X11624762Y-8470482D01*
X11624762Y-8470482D02*
X11686667Y-8470482D01*
D12*
%TO.C,C65*%
X18902000Y-5659900D02*
X18902000Y-5540100D01*
X18906000Y-5686200D02*
X18906000Y-5513800D01*
X18910000Y-5706200D02*
X18910000Y-5493800D01*
X18914000Y-5723000D02*
X18914000Y-5477000D01*
X18918000Y-5737700D02*
X18918000Y-5462300D01*
X18922000Y-5750900D02*
X18922000Y-5449100D01*
X18926000Y-5763000D02*
X18926000Y-5437000D01*
X18930000Y-5774200D02*
X18930000Y-5425800D01*
X18934000Y-5784600D02*
X18934000Y-5415400D01*
X18938000Y-5794400D02*
X18938000Y-5405600D01*
X18942000Y-5803700D02*
X18942000Y-5396300D01*
X18946000Y-5812400D02*
X18946000Y-5387600D01*
X18950000Y-5820800D02*
X18950000Y-5379200D01*
X18954000Y-5828800D02*
X18954000Y-5371200D01*
X18958000Y-5836500D02*
X18958000Y-5363500D01*
X18962000Y-5843900D02*
X18962000Y-5356100D01*
X18966000Y-5851000D02*
X18966000Y-5349000D01*
X18970000Y-5857800D02*
X18970000Y-5342200D01*
X18974000Y-5864400D02*
X18974000Y-5335600D01*
X18978000Y-5870800D02*
X18978000Y-5329200D01*
X18982000Y-5877000D02*
X18982000Y-5323000D01*
X18986000Y-5883000D02*
X18986000Y-5317000D01*
X18990000Y-5888800D02*
X18990000Y-5311200D01*
X18994000Y-5894500D02*
X18994000Y-5305500D01*
X18998000Y-5900000D02*
X18998000Y-5300000D01*
X19002000Y-5905300D02*
X19002000Y-5294700D01*
X19006000Y-5910500D02*
X19006000Y-5289500D01*
X19010000Y-5915600D02*
X19010000Y-5284400D01*
X19014000Y-5920500D02*
X19014000Y-5279500D01*
X19018000Y-5925400D02*
X19018000Y-5274600D01*
X19022000Y-5930100D02*
X19022000Y-5269900D01*
X19026000Y-5934700D02*
X19026000Y-5265300D01*
X19030000Y-5939100D02*
X19030000Y-5260900D01*
X19034000Y-5943500D02*
X19034000Y-5256500D01*
X19038000Y-5476000D02*
X19038000Y-5252200D01*
X19038000Y-5947800D02*
X19038000Y-5724000D01*
X19042000Y-5952000D02*
X19042000Y-5724000D01*
X19042000Y-5476000D02*
X19042000Y-5248000D01*
X19046000Y-5476000D02*
X19046000Y-5243900D01*
X19046000Y-5956100D02*
X19046000Y-5724000D01*
X19050000Y-5476000D02*
X19050000Y-5239900D01*
X19050000Y-5960100D02*
X19050000Y-5724000D01*
X19054000Y-5476000D02*
X19054000Y-5236000D01*
X19054000Y-5964000D02*
X19054000Y-5724000D01*
X19058000Y-5476000D02*
X19058000Y-5232200D01*
X19058000Y-5967800D02*
X19058000Y-5724000D01*
X19062000Y-5476000D02*
X19062000Y-5228400D01*
X19062000Y-5971600D02*
X19062000Y-5724000D01*
X19066000Y-5476000D02*
X19066000Y-5224800D01*
X19066000Y-5975200D02*
X19066000Y-5724000D01*
X19070000Y-5476000D02*
X19070000Y-5221200D01*
X19070000Y-5978800D02*
X19070000Y-5724000D01*
X19074000Y-5476000D02*
X19074000Y-5217700D01*
X19074000Y-5982300D02*
X19074000Y-5724000D01*
X19078000Y-5476000D02*
X19078000Y-5214200D01*
X19078000Y-5985800D02*
X19078000Y-5724000D01*
X19082000Y-5476000D02*
X19082000Y-5210900D01*
X19082000Y-5989100D02*
X19082000Y-5724000D01*
X19086000Y-5476000D02*
X19086000Y-5207600D01*
X19086000Y-5992400D02*
X19086000Y-5724000D01*
X19090000Y-5476000D02*
X19090000Y-5204300D01*
X19090000Y-5995700D02*
X19090000Y-5724000D01*
X19094000Y-5476000D02*
X19094000Y-5201200D01*
X19094000Y-5998800D02*
X19094000Y-5724000D01*
X19098000Y-5476000D02*
X19098000Y-5198000D01*
X19098000Y-6002000D02*
X19098000Y-5724000D01*
X19102000Y-5476000D02*
X19102000Y-5195000D01*
X19102000Y-6005000D02*
X19102000Y-5724000D01*
X19106000Y-5476000D02*
X19106000Y-5192000D01*
X19106000Y-6008000D02*
X19106000Y-5724000D01*
X19110000Y-5476000D02*
X19110000Y-5189100D01*
X19110000Y-6010900D02*
X19110000Y-5724000D01*
X19114000Y-5476000D02*
X19114000Y-5186200D01*
X19114000Y-6013800D02*
X19114000Y-5724000D01*
X19118000Y-5476000D02*
X19118000Y-5183400D01*
X19118000Y-6016600D02*
X19118000Y-5724000D01*
X19122000Y-5476000D02*
X19122000Y-5180700D01*
X19122000Y-6019300D02*
X19122000Y-5724000D01*
X19126000Y-5476000D02*
X19126000Y-5178000D01*
X19126000Y-6022000D02*
X19126000Y-5724000D01*
X19130000Y-5476000D02*
X19130000Y-5175300D01*
X19130000Y-6024700D02*
X19130000Y-5724000D01*
X19134000Y-5476000D02*
X19134000Y-5172800D01*
X19134000Y-6027200D02*
X19134000Y-5724000D01*
X19138000Y-5476000D02*
X19138000Y-5170200D01*
X19138000Y-6029800D02*
X19138000Y-5724000D01*
X19142000Y-5476000D02*
X19142000Y-5167700D01*
X19142000Y-6032300D02*
X19142000Y-5724000D01*
X19146000Y-6034700D02*
X19146000Y-5724000D01*
X19146000Y-5476000D02*
X19146000Y-5165300D01*
X19150000Y-5476000D02*
X19150000Y-5162900D01*
X19150000Y-6037100D02*
X19150000Y-5724000D01*
X19154000Y-5476000D02*
X19154000Y-5160600D01*
X19154000Y-6039400D02*
X19154000Y-5724000D01*
X19158000Y-5476000D02*
X19158000Y-5158300D01*
X19158000Y-6041700D02*
X19158000Y-5724000D01*
X19162000Y-5476000D02*
X19162000Y-5156100D01*
X19162000Y-6043900D02*
X19162000Y-5724000D01*
X19166000Y-5476000D02*
X19166000Y-5153900D01*
X19166000Y-6046100D02*
X19166000Y-5724000D01*
X19170000Y-5476000D02*
X19170000Y-5151700D01*
X19170000Y-6048300D02*
X19170000Y-5724000D01*
X19174000Y-5476000D02*
X19174000Y-5149600D01*
X19174000Y-6050400D02*
X19174000Y-5724000D01*
X19178000Y-5476000D02*
X19178000Y-5147600D01*
X19178000Y-6052400D02*
X19178000Y-5724000D01*
X19182000Y-5476000D02*
X19182000Y-5145600D01*
X19182000Y-6054400D02*
X19182000Y-5724000D01*
X19186000Y-5476000D02*
X19186000Y-5143600D01*
X19186000Y-6056400D02*
X19186000Y-5724000D01*
X19190000Y-5476000D02*
X19190000Y-5141700D01*
X19190000Y-6058300D02*
X19190000Y-5724000D01*
X19194000Y-5476000D02*
X19194000Y-5139800D01*
X19194000Y-6060200D02*
X19194000Y-5724000D01*
X19198000Y-5476000D02*
X19198000Y-5138000D01*
X19198000Y-6062000D02*
X19198000Y-5724000D01*
X19202000Y-5476000D02*
X19202000Y-5136200D01*
X19202000Y-6063800D02*
X19202000Y-5724000D01*
X19206000Y-5476000D02*
X19206000Y-5134400D01*
X19206000Y-6065600D02*
X19206000Y-5724000D01*
X19210000Y-6067300D02*
X19210000Y-5724000D01*
X19210000Y-5476000D02*
X19210000Y-5132700D01*
X19214000Y-5476000D02*
X19214000Y-5131000D01*
X19214000Y-6069000D02*
X19214000Y-5724000D01*
X19218000Y-5476000D02*
X19218000Y-5129400D01*
X19218000Y-6070600D02*
X19218000Y-5724000D01*
X19222000Y-5476000D02*
X19222000Y-5127800D01*
X19222000Y-6072200D02*
X19222000Y-5724000D01*
X19226000Y-5476000D02*
X19226000Y-5126200D01*
X19226000Y-6073800D02*
X19226000Y-5724000D01*
X19230000Y-5476000D02*
X19230000Y-5124700D01*
X19230000Y-6075300D02*
X19230000Y-5724000D01*
X19234000Y-6076800D02*
X19234000Y-5724000D01*
X19234000Y-5476000D02*
X19234000Y-5123200D01*
X19238000Y-5476000D02*
X19238000Y-5121800D01*
X19238000Y-6078200D02*
X19238000Y-5724000D01*
X19242000Y-5476000D02*
X19242000Y-5120300D01*
X19242000Y-6079700D02*
X19242000Y-5724000D01*
X19246000Y-5476000D02*
X19246000Y-5119000D01*
X19246000Y-6081000D02*
X19246000Y-5724000D01*
X19250000Y-5476000D02*
X19250000Y-5117600D01*
X19250000Y-6082400D02*
X19250000Y-5724000D01*
X19254000Y-5476000D02*
X19254000Y-5116300D01*
X19254000Y-6083700D02*
X19254000Y-5724000D01*
X19258000Y-5476000D02*
X19258000Y-5115100D01*
X19258000Y-6084900D02*
X19258000Y-5724000D01*
X19262000Y-5476000D02*
X19262000Y-5113900D01*
X19262000Y-6086100D02*
X19262000Y-5724000D01*
X19266000Y-5476000D02*
X19266000Y-5112700D01*
X19266000Y-6087300D02*
X19266000Y-5724000D01*
X19270000Y-5476000D02*
X19270000Y-5111500D01*
X19270000Y-6088500D02*
X19270000Y-5724000D01*
X19274000Y-5476000D02*
X19274000Y-5110400D01*
X19274000Y-6089600D02*
X19274000Y-5724000D01*
X19278000Y-6090700D02*
X19278000Y-5724000D01*
X19278000Y-5476000D02*
X19278000Y-5109300D01*
X19282000Y-6091700D02*
X19282000Y-5724000D01*
X19282000Y-5476000D02*
X19282000Y-5108300D01*
X19286000Y-6092800D02*
X19286000Y-5107200D01*
X19290000Y-6093700D02*
X19290000Y-5106300D01*
X19294000Y-6094700D02*
X19294000Y-5105300D01*
X19298000Y-6095600D02*
X19298000Y-5104400D01*
X19302000Y-6096500D02*
X19302000Y-5103500D01*
X19306000Y-6097300D02*
X19306000Y-5102700D01*
X19310000Y-6098100D02*
X19310000Y-5101900D01*
X19314000Y-6098900D02*
X19314000Y-5101100D01*
X19318000Y-6099700D02*
X19318000Y-5100300D01*
X19322000Y-6100400D02*
X19322000Y-5099600D01*
X19326000Y-6101100D02*
X19326000Y-5098900D01*
X19330000Y-6101700D02*
X19330000Y-5098300D01*
X19334000Y-6102300D02*
X19334000Y-5097700D01*
X19338000Y-6102900D02*
X19338000Y-5097100D01*
X19342000Y-6103500D02*
X19342000Y-5096500D01*
X19346000Y-6104000D02*
X19346000Y-5096000D01*
X19350000Y-6104500D02*
X19350000Y-5095500D01*
X19354000Y-6104900D02*
X19354000Y-5095100D01*
X19358000Y-6105400D02*
X19358000Y-5094600D01*
X19362000Y-6105700D02*
X19362000Y-5094300D01*
X19366000Y-6106100D02*
X19366000Y-5093900D01*
X19370000Y-6106400D02*
X19370000Y-5093600D01*
X19374000Y-6106700D02*
X19374000Y-5093300D01*
X19378000Y-6107000D02*
X19378000Y-5093000D01*
X19382000Y-6107200D02*
X19382000Y-5092800D01*
X19386000Y-6107400D02*
X19386000Y-5092600D01*
X19390000Y-6107600D02*
X19390000Y-5092400D01*
X19394000Y-6107700D02*
X19394000Y-5092300D01*
X19398000Y-6107900D02*
X19398000Y-5092100D01*
X19402000Y-6107900D02*
X19402000Y-5092100D01*
X19406000Y-6108000D02*
X19406000Y-5092000D01*
X19410000Y-6108000D02*
X19410000Y-5092000D01*
X19907965Y-5937500D02*
X19907965Y-5837500D01*
X19957965Y-5887500D02*
X19857965Y-5887500D01*
X19922000Y-5600000D02*
G75*
G02*
X18898000Y-5600000I-512000J0D01*
G01*
X18898000Y-5600000D02*
G75*
G02*
X19922000Y-5600000I512000J0D01*
G01*
%TO.C,T9*%
X17607000Y-6910000D02*
X17607000Y-6844000D01*
X17607000Y-7076000D02*
X17607000Y-7010000D01*
X17748000Y-6844000D02*
X17607000Y-6844000D01*
X17748000Y-7076000D02*
X17607000Y-7076000D01*
X17809000Y-7107000D02*
X17761000Y-7107000D01*
X17785000Y-7074000D01*
X17809000Y-7107000D01*
G36*
X17809000Y-7107000D02*
G01*
X17761000Y-7107000D01*
X17785000Y-7074000D01*
X17809000Y-7107000D01*
G37*
%TO.C,C1*%
X18498875Y-5469000D02*
X18641125Y-5469000D01*
X18498875Y-5651000D02*
X18641125Y-5651000D01*
%TO.C,R30*%
X17427750Y-9053726D02*
X17427750Y-9006274D01*
X17532250Y-9053726D02*
X17532250Y-9006274D01*
%TO.C,C51*%
X11326125Y-7236500D02*
X11273875Y-7236500D01*
X11326125Y-7383500D02*
X11273875Y-7383500D01*
%TO.C,U12*%
X14762500Y-5094000D02*
X14567500Y-5094000D01*
X14762500Y-5094000D02*
X14957500Y-5094000D01*
X14762500Y-5606000D02*
X14567500Y-5606000D01*
X14762500Y-5606000D02*
X14957500Y-5606000D01*
X15056500Y-5629500D02*
X15008500Y-5629500D01*
X15032500Y-5596500D01*
X15056500Y-5629500D01*
G36*
X15056500Y-5629500D02*
G01*
X15008500Y-5629500D01*
X15032500Y-5596500D01*
X15056500Y-5629500D01*
G37*
%TO.C,D9*%
X12234000Y-9687000D02*
X12300000Y-9687000D01*
X12234000Y-9828000D02*
X12234000Y-9687000D01*
X12400000Y-9687000D02*
X12466000Y-9687000D01*
X12466000Y-9828000D02*
X12466000Y-9687000D01*
X12236000Y-9865000D02*
X12203000Y-9889000D01*
X12203000Y-9841000D01*
X12236000Y-9865000D01*
G36*
X12236000Y-9865000D02*
G01*
X12203000Y-9889000D01*
X12203000Y-9841000D01*
X12236000Y-9865000D01*
G37*
%TO.C,R43*%
X10243726Y-9367750D02*
X10196274Y-9367750D01*
X10243726Y-9472250D02*
X10196274Y-9472250D01*
%TO.C,R31*%
X17247750Y-9053726D02*
X17247750Y-9006274D01*
X17352250Y-9053726D02*
X17352250Y-9006274D01*
%TO.C,U6*%
X13615000Y-7609000D02*
X13535000Y-7609000D01*
X13615000Y-7609000D02*
X13695000Y-7609000D01*
X13615000Y-7921000D02*
X13535000Y-7921000D01*
X13615000Y-7921000D02*
X13695000Y-7921000D01*
X13485000Y-7614000D02*
X13461000Y-7581000D01*
X13509000Y-7581000D01*
X13485000Y-7614000D01*
G36*
X13485000Y-7614000D02*
G01*
X13461000Y-7581000D01*
X13509000Y-7581000D01*
X13485000Y-7614000D01*
G37*
%TO.C,X8*%
X18029000Y-9564000D02*
X18029000Y-9644000D01*
X18049000Y-9584000D02*
X18049000Y-9956000D01*
X18049000Y-9675000D02*
X18089000Y-9675000D01*
X18049000Y-9775000D02*
X18089000Y-9775000D01*
X18049000Y-9956000D02*
X18671000Y-9956000D01*
X18089000Y-9624000D02*
X18089000Y-9916000D01*
X18089000Y-9916000D02*
X18631000Y-9916000D01*
X18109000Y-9564000D02*
X18029000Y-9564000D01*
X18150000Y-9564000D02*
X18150000Y-9584000D01*
X18180000Y-9564000D02*
X18150000Y-9564000D01*
X18180000Y-9574000D02*
X18150000Y-9574000D01*
X18180000Y-9584000D02*
X18180000Y-9564000D01*
X18275000Y-9876000D02*
X18295000Y-9876000D01*
X18275000Y-9916000D02*
X18275000Y-9876000D01*
X18285000Y-9916000D02*
X18285000Y-9876000D01*
X18295000Y-9876000D02*
X18295000Y-9916000D01*
X18425000Y-9876000D02*
X18445000Y-9876000D01*
X18425000Y-9916000D02*
X18425000Y-9876000D01*
X18435000Y-9916000D02*
X18435000Y-9876000D01*
X18445000Y-9876000D02*
X18445000Y-9916000D01*
X18631000Y-9624000D02*
X18089000Y-9624000D01*
X18631000Y-9916000D02*
X18631000Y-9624000D01*
X18671000Y-9584000D02*
X18049000Y-9584000D01*
X18671000Y-9675000D02*
X18631000Y-9675000D01*
X18671000Y-9775000D02*
X18631000Y-9775000D01*
X18671000Y-9956000D02*
X18671000Y-9584000D01*
%TO.C,C25*%
X17449000Y-7454058D02*
X17449000Y-7425942D01*
X17551000Y-7454058D02*
X17551000Y-7425942D01*
%TO.C,R2*%
X18747750Y-6746274D02*
X18747750Y-6793726D01*
X18852250Y-6746274D02*
X18852250Y-6793726D01*
%TO.C,R13*%
X17286274Y-6977750D02*
X17333726Y-6977750D01*
X17286274Y-7082250D02*
X17333726Y-7082250D01*
%TO.C,U15*%
X15124000Y-6403750D02*
X15124000Y-6323750D01*
X15124000Y-6403750D02*
X15124000Y-6483750D01*
X15436000Y-6403750D02*
X15436000Y-6323750D01*
X15436000Y-6403750D02*
X15436000Y-6483750D01*
X15464000Y-6297750D02*
X15431000Y-6273750D01*
X15464000Y-6249750D01*
X15464000Y-6297750D01*
G36*
X15464000Y-6297750D02*
G01*
X15431000Y-6273750D01*
X15464000Y-6249750D01*
X15464000Y-6297750D01*
G37*
%TO.C,D2*%
X18005000Y-6091000D02*
X18005000Y-5540000D01*
X18005000Y-6091000D02*
X18335000Y-6091000D01*
X18335000Y-6091000D02*
X18335000Y-5540000D01*
%TO.C,U14*%
X15244000Y-8240000D02*
X15244000Y-8045000D01*
X15244000Y-8240000D02*
X15244000Y-8435000D01*
X15756000Y-8240000D02*
X15756000Y-8045000D01*
X15756000Y-8240000D02*
X15756000Y-8435000D01*
X15779500Y-7994000D02*
X15746500Y-7970000D01*
X15779500Y-7946000D01*
X15779500Y-7994000D01*
G36*
X15779500Y-7994000D02*
G01*
X15746500Y-7970000D01*
X15779500Y-7946000D01*
X15779500Y-7994000D01*
G37*
%TO.C,D17*%
X14409000Y-6895000D02*
X14409000Y-7225000D01*
X14409000Y-6895000D02*
X14960000Y-6895000D01*
X14409000Y-7225000D02*
X14960000Y-7225000D01*
%TO.C,X1*%
X16391500Y-5042000D02*
X16533500Y-5042000D01*
X16391500Y-5617000D02*
X16391500Y-5042000D01*
X16391500Y-5771000D02*
X16391500Y-5801000D01*
X16391500Y-5801000D02*
X17428500Y-5801000D01*
X16533500Y-5042000D02*
X16533500Y-5092000D01*
X16533500Y-5092000D02*
X17286500Y-5092000D01*
X17286500Y-5042000D02*
X17428500Y-5042000D01*
X17286500Y-5092000D02*
X17286500Y-5042000D01*
X17428500Y-5042000D02*
X17428500Y-5617000D01*
X17428500Y-5801000D02*
X17428500Y-5771000D01*
%TO.C,D14*%
X12414000Y-7149500D02*
X12480000Y-7149500D01*
X12414000Y-7290500D02*
X12414000Y-7149500D01*
X12580000Y-7149500D02*
X12646000Y-7149500D01*
X12646000Y-7290500D02*
X12646000Y-7149500D01*
X12416000Y-7327500D02*
X12383000Y-7351500D01*
X12383000Y-7303500D01*
X12416000Y-7327500D01*
G36*
X12416000Y-7327500D02*
G01*
X12383000Y-7351500D01*
X12383000Y-7303500D01*
X12416000Y-7327500D01*
G37*
%TO.C,R19*%
X14913726Y-9427750D02*
X14866274Y-9427750D01*
X14913726Y-9532250D02*
X14866274Y-9532250D01*
%TO.C,T11*%
X17140000Y-6790000D02*
X17140000Y-6630000D01*
X17460000Y-6790000D02*
X17460000Y-6630000D01*
X17155000Y-6835000D02*
X17122000Y-6859000D01*
X17122000Y-6811000D01*
X17155000Y-6835000D01*
G36*
X17155000Y-6835000D02*
G01*
X17122000Y-6859000D01*
X17122000Y-6811000D01*
X17155000Y-6835000D01*
G37*
%TO.C,C50*%
X13153875Y-7606500D02*
X13206125Y-7606500D01*
X13153875Y-7753500D02*
X13206125Y-7753500D01*
%TO.C,R54*%
X12279000Y-5372706D02*
X12279000Y-5227294D01*
X12461000Y-5372706D02*
X12461000Y-5227294D01*
%TO.C,R56*%
X15517750Y-6213726D02*
X15517750Y-6166274D01*
X15622250Y-6213726D02*
X15622250Y-6166274D01*
%TO.C,C15*%
X16029000Y-6076558D02*
X16029000Y-6048442D01*
X16131000Y-6076558D02*
X16131000Y-6048442D01*
%TO.C,C44*%
X16729000Y-8605942D02*
X16729000Y-8634058D01*
X16831000Y-8605942D02*
X16831000Y-8634058D01*
%TO.C,R12*%
X17877750Y-6993726D02*
X17877750Y-6946274D01*
X17982250Y-6993726D02*
X17982250Y-6946274D01*
%TO.C,C21*%
X16094058Y-7329000D02*
X16065942Y-7329000D01*
X16094058Y-7431000D02*
X16065942Y-7431000D01*
%TO.C,D1*%
X18911000Y-5075000D02*
X18360000Y-5075000D01*
X18911000Y-5405000D02*
X18360000Y-5405000D01*
X18911000Y-5405000D02*
X18911000Y-5075000D01*
D11*
%TO.C,U2*%
X18322500Y-9147500D02*
X18322500Y-8732500D01*
X18837500Y-9147500D02*
X18837500Y-8732500D01*
D12*
X18330000Y-9190000D02*
X18297000Y-9214000D01*
X18297000Y-9166000D01*
X18330000Y-9190000D01*
G36*
X18330000Y-9190000D02*
G01*
X18297000Y-9214000D01*
X18297000Y-9166000D01*
X18330000Y-9190000D01*
G37*
%TO.C,C13*%
X17663875Y-7926500D02*
X17716125Y-7926500D01*
X17663875Y-8073500D02*
X17716125Y-8073500D01*
%TO.C,C5*%
X18494058Y-6649000D02*
X18465942Y-6649000D01*
X18494058Y-6751000D02*
X18465942Y-6751000D01*
%TO.C,C4*%
X18645942Y-8399250D02*
X18674058Y-8399250D01*
X18645942Y-8501250D02*
X18674058Y-8501250D01*
%TO.C,C62*%
X14169000Y-7218875D02*
X14169000Y-7361125D01*
X14351000Y-7218875D02*
X14351000Y-7361125D01*
%TO.C,R45*%
X12383726Y-9397750D02*
X12336274Y-9397750D01*
X12383726Y-9502250D02*
X12336274Y-9502250D01*
%TO.C,C52*%
X13436125Y-7236500D02*
X13383875Y-7236500D01*
X13436125Y-7383500D02*
X13383875Y-7383500D01*
%TO.C,X5*%
X16729000Y-9189000D02*
X16729000Y-9961000D01*
X16729000Y-9961000D02*
X17101000Y-9961000D01*
X16769000Y-9229000D02*
X16769000Y-9921000D01*
X16769000Y-9415000D02*
X16809000Y-9415000D01*
X16769000Y-9425000D02*
X16809000Y-9425000D01*
X16769000Y-9565000D02*
X16809000Y-9565000D01*
X16769000Y-9575000D02*
X16809000Y-9575000D01*
X16769000Y-9715000D02*
X16809000Y-9715000D01*
X16769000Y-9725000D02*
X16809000Y-9725000D01*
X16769000Y-9921000D02*
X17061000Y-9921000D01*
X16809000Y-9415000D02*
X16809000Y-9435000D01*
X16809000Y-9435000D02*
X16769000Y-9435000D01*
X16809000Y-9565000D02*
X16809000Y-9585000D01*
X16809000Y-9585000D02*
X16769000Y-9585000D01*
X16809000Y-9715000D02*
X16809000Y-9735000D01*
X16809000Y-9735000D02*
X16769000Y-9735000D01*
X16910000Y-9189000D02*
X16910000Y-9229000D01*
X16910000Y-9961000D02*
X16910000Y-9921000D01*
X17010000Y-9189000D02*
X17010000Y-9229000D01*
X17010000Y-9961000D02*
X17010000Y-9921000D01*
X17061000Y-9229000D02*
X16769000Y-9229000D01*
X17061000Y-9921000D02*
X17061000Y-9229000D01*
X17101000Y-9189000D02*
X16729000Y-9189000D01*
X17101000Y-9320000D02*
X17121000Y-9320000D01*
X17101000Y-9961000D02*
X17101000Y-9189000D01*
X17111000Y-9320000D02*
X17111000Y-9290000D01*
X17121000Y-9169000D02*
X17041000Y-9169000D01*
X17121000Y-9249000D02*
X17121000Y-9169000D01*
X17121000Y-9290000D02*
X17101000Y-9290000D01*
X17121000Y-9320000D02*
X17121000Y-9290000D01*
%TO.C,R53*%
X10099000Y-5372706D02*
X10099000Y-5227294D01*
X10281000Y-5372706D02*
X10281000Y-5227294D01*
%TO.C,R1*%
X18446274Y-6947750D02*
X18493726Y-6947750D01*
X18446274Y-7052250D02*
X18493726Y-7052250D01*
%TO.C,R9*%
X16516274Y-6757750D02*
X16563726Y-6757750D01*
X16516274Y-6862250D02*
X16563726Y-6862250D01*
D11*
%TO.C,U1*%
X18342500Y-6437500D02*
X18342500Y-6022500D01*
X18857500Y-6437500D02*
X18857500Y-6022500D01*
D12*
X18350000Y-6480000D02*
X18317000Y-6504000D01*
X18317000Y-6456000D01*
X18350000Y-6480000D01*
G36*
X18350000Y-6480000D02*
G01*
X18317000Y-6504000D01*
X18317000Y-6456000D01*
X18350000Y-6480000D01*
G37*
%TO.C,U7*%
X10853750Y-7074000D02*
X10773750Y-7074000D01*
X10853750Y-7074000D02*
X10933750Y-7074000D01*
X10853750Y-7386000D02*
X10773750Y-7386000D01*
X10853750Y-7386000D02*
X10933750Y-7386000D01*
X11007750Y-7414000D02*
X10959750Y-7414000D01*
X10983750Y-7381000D01*
X11007750Y-7414000D01*
G36*
X11007750Y-7414000D02*
G01*
X10959750Y-7414000D01*
X10983750Y-7381000D01*
X11007750Y-7414000D01*
G37*
%TO.C,T10*%
X16737000Y-6660000D02*
X16737000Y-6594000D01*
X16737000Y-6826000D02*
X16737000Y-6760000D01*
X16878000Y-6594000D02*
X16737000Y-6594000D01*
X16878000Y-6826000D02*
X16737000Y-6826000D01*
X16939000Y-6857000D02*
X16891000Y-6857000D01*
X16915000Y-6824000D01*
X16939000Y-6857000D01*
G36*
X16939000Y-6857000D02*
G01*
X16891000Y-6857000D01*
X16915000Y-6824000D01*
X16939000Y-6857000D01*
G37*
%TO.C,T7*%
X13334000Y-5850000D02*
X13334000Y-6877000D01*
X14346000Y-5850000D02*
X14346000Y-6877000D01*
X14369000Y-5828000D02*
X14336000Y-5804000D01*
X14369000Y-5780000D01*
X14369000Y-5828000D01*
G36*
X14369000Y-5828000D02*
G01*
X14336000Y-5804000D01*
X14369000Y-5780000D01*
X14369000Y-5828000D01*
G37*
%TO.C,C42*%
X17155942Y-8269000D02*
X17184058Y-8269000D01*
X17155942Y-8371000D02*
X17184058Y-8371000D01*
%TO.C,C46*%
X14613875Y-8866500D02*
X14666125Y-8866500D01*
X14613875Y-9013500D02*
X14666125Y-9013500D01*
%TO.C,R42*%
X15916274Y-8227750D02*
X15963726Y-8227750D01*
X15916274Y-8332250D02*
X15963726Y-8332250D01*
%TO.C,C55*%
X10589000Y-7781125D02*
X10589000Y-7638875D01*
X10771000Y-7781125D02*
X10771000Y-7638875D01*
%TO.C,T3*%
X12254000Y-9150000D02*
X12254000Y-8123000D01*
X13266000Y-9150000D02*
X13266000Y-8123000D01*
X12264000Y-9196000D02*
X12231000Y-9220000D01*
X12231000Y-9172000D01*
X12264000Y-9196000D01*
G36*
X12264000Y-9196000D02*
G01*
X12231000Y-9220000D01*
X12231000Y-9172000D01*
X12264000Y-9196000D01*
G37*
%TO.C,X6*%
X17169000Y-9189000D02*
X17169000Y-9961000D01*
X17169000Y-9961000D02*
X17541000Y-9961000D01*
X17209000Y-9229000D02*
X17209000Y-9921000D01*
X17209000Y-9415000D02*
X17249000Y-9415000D01*
X17209000Y-9425000D02*
X17249000Y-9425000D01*
X17209000Y-9565000D02*
X17249000Y-9565000D01*
X17209000Y-9575000D02*
X17249000Y-9575000D01*
X17209000Y-9715000D02*
X17249000Y-9715000D01*
X17209000Y-9725000D02*
X17249000Y-9725000D01*
X17209000Y-9921000D02*
X17501000Y-9921000D01*
X17249000Y-9415000D02*
X17249000Y-9435000D01*
X17249000Y-9435000D02*
X17209000Y-9435000D01*
X17249000Y-9565000D02*
X17249000Y-9585000D01*
X17249000Y-9585000D02*
X17209000Y-9585000D01*
X17249000Y-9715000D02*
X17249000Y-9735000D01*
X17249000Y-9735000D02*
X17209000Y-9735000D01*
X17350000Y-9189000D02*
X17350000Y-9229000D01*
X17350000Y-9961000D02*
X17350000Y-9921000D01*
X17450000Y-9189000D02*
X17450000Y-9229000D01*
X17450000Y-9961000D02*
X17450000Y-9921000D01*
X17501000Y-9229000D02*
X17209000Y-9229000D01*
X17501000Y-9921000D02*
X17501000Y-9229000D01*
X17541000Y-9189000D02*
X17169000Y-9189000D01*
X17541000Y-9320000D02*
X17561000Y-9320000D01*
X17541000Y-9961000D02*
X17541000Y-9189000D01*
X17551000Y-9320000D02*
X17551000Y-9290000D01*
X17561000Y-9169000D02*
X17481000Y-9169000D01*
X17561000Y-9249000D02*
X17561000Y-9169000D01*
X17561000Y-9290000D02*
X17541000Y-9290000D01*
X17561000Y-9320000D02*
X17561000Y-9290000D01*
%TO.C,R38*%
X13493726Y-7452750D02*
X13446274Y-7452750D01*
X13493726Y-7557250D02*
X13446274Y-7557250D01*
%TO.C,D12*%
X10244000Y-7157000D02*
X10310000Y-7157000D01*
X10244000Y-7298000D02*
X10244000Y-7157000D01*
X10410000Y-7157000D02*
X10476000Y-7157000D01*
X10476000Y-7298000D02*
X10476000Y-7157000D01*
X10246000Y-7335000D02*
X10213000Y-7359000D01*
X10213000Y-7311000D01*
X10246000Y-7335000D01*
G36*
X10246000Y-7335000D02*
G01*
X10213000Y-7359000D01*
X10213000Y-7311000D01*
X10246000Y-7335000D01*
G37*
%TO.C,C29*%
X14999058Y-8909000D02*
X14970942Y-8909000D01*
X14999058Y-9011000D02*
X14970942Y-9011000D01*
%TO.C,C35*%
X10519000Y-7234058D02*
X10519000Y-7205942D01*
X10621000Y-7234058D02*
X10621000Y-7205942D01*
%TO.C,R11*%
X17497750Y-6656274D02*
X17497750Y-6703726D01*
X17602250Y-6656274D02*
X17602250Y-6703726D01*
%TO.C,C57*%
X12509000Y-7781125D02*
X12509000Y-7638875D01*
X12691000Y-7781125D02*
X12691000Y-7638875D01*
%TO.C,R44*%
X12117750Y-7823726D02*
X12117750Y-7776274D01*
X12222250Y-7823726D02*
X12222250Y-7776274D01*
%TO.C,R41*%
X15963726Y-8367750D02*
X15916274Y-8367750D01*
X15963726Y-8472250D02*
X15916274Y-8472250D01*
%TO.C,C9*%
X17524000Y-5150000D02*
X17524000Y-5956500D01*
X17524000Y-5956500D02*
X17976000Y-5956500D01*
X17976000Y-5956500D02*
X17976000Y-5150000D01*
%TO.C,C37*%
X10985942Y-7809000D02*
X11014058Y-7809000D01*
X10985942Y-7911000D02*
X11014058Y-7911000D01*
%TO.C,TP1*%
X15940000Y-7710000D02*
X16080000Y-7710000D01*
X15940000Y-7850000D02*
X15940000Y-7710000D01*
X16080000Y-7710000D02*
X16080000Y-7850000D01*
X16080000Y-7850000D02*
X15940000Y-7850000D01*
%TO.C,D11*%
X12004000Y-5162000D02*
X12004000Y-5303000D01*
X12070000Y-5303000D02*
X12004000Y-5303000D01*
X12236000Y-5162000D02*
X12236000Y-5303000D01*
X12236000Y-5303000D02*
X12170000Y-5303000D01*
X12267000Y-5149000D02*
X12234000Y-5125000D01*
X12267000Y-5101000D01*
X12267000Y-5149000D01*
G36*
X12267000Y-5149000D02*
G01*
X12234000Y-5125000D01*
X12267000Y-5101000D01*
X12267000Y-5149000D01*
G37*
%TO.C,D3*%
X18195000Y-8491000D02*
X18195000Y-7940000D01*
X18195000Y-8491000D02*
X18525000Y-8491000D01*
X18525000Y-8491000D02*
X18525000Y-7940000D01*
%TO.C,U10*%
X14790000Y-8314000D02*
X14595000Y-8314000D01*
X14790000Y-8314000D02*
X14985000Y-8314000D01*
X14790000Y-8826000D02*
X14595000Y-8826000D01*
X14790000Y-8826000D02*
X14985000Y-8826000D01*
X15084000Y-8849500D02*
X15036000Y-8849500D01*
X15060000Y-8816500D01*
X15084000Y-8849500D01*
G36*
X15084000Y-8849500D02*
G01*
X15036000Y-8849500D01*
X15060000Y-8816500D01*
X15084000Y-8849500D01*
G37*
%TO.C,R27*%
X17427750Y-8683726D02*
X17427750Y-8636274D01*
X17532250Y-8683726D02*
X17532250Y-8636274D01*
%TO.C,T8*%
X12274000Y-6890000D02*
X12274000Y-5863000D01*
X13286000Y-6890000D02*
X13286000Y-5863000D01*
X12284000Y-6936000D02*
X12251000Y-6960000D01*
X12251000Y-6912000D01*
X12284000Y-6936000D01*
G36*
X12284000Y-6936000D02*
G01*
X12251000Y-6960000D01*
X12251000Y-6912000D01*
X12284000Y-6936000D01*
G37*
%TO.C,R37*%
X11343726Y-7447750D02*
X11296274Y-7447750D01*
X11343726Y-7552250D02*
X11296274Y-7552250D01*
%TO.C,C61*%
X11549000Y-7218875D02*
X11549000Y-7361125D01*
X11731000Y-7218875D02*
X11731000Y-7361125D01*
%TO.C,C20*%
X17139000Y-7295942D02*
X17139000Y-7324058D01*
X17241000Y-7295942D02*
X17241000Y-7324058D01*
%TO.C,C68*%
X18902000Y-9459900D02*
X18902000Y-9340100D01*
X18906000Y-9486200D02*
X18906000Y-9313800D01*
X18910000Y-9506200D02*
X18910000Y-9293800D01*
X18914000Y-9523000D02*
X18914000Y-9277000D01*
X18918000Y-9537700D02*
X18918000Y-9262300D01*
X18922000Y-9550900D02*
X18922000Y-9249100D01*
X18926000Y-9563000D02*
X18926000Y-9237000D01*
X18930000Y-9574200D02*
X18930000Y-9225800D01*
X18934000Y-9584600D02*
X18934000Y-9215400D01*
X18938000Y-9594400D02*
X18938000Y-9205600D01*
X18942000Y-9603700D02*
X18942000Y-9196300D01*
X18946000Y-9612400D02*
X18946000Y-9187600D01*
X18950000Y-9620800D02*
X18950000Y-9179200D01*
X18954000Y-9628800D02*
X18954000Y-9171200D01*
X18958000Y-9636500D02*
X18958000Y-9163500D01*
X18962000Y-9643900D02*
X18962000Y-9156100D01*
X18966000Y-9651000D02*
X18966000Y-9149000D01*
X18970000Y-9657800D02*
X18970000Y-9142200D01*
X18974000Y-9664400D02*
X18974000Y-9135600D01*
X18978000Y-9670800D02*
X18978000Y-9129200D01*
X18982000Y-9677000D02*
X18982000Y-9123000D01*
X18986000Y-9683000D02*
X18986000Y-9117000D01*
X18990000Y-9688800D02*
X18990000Y-9111200D01*
X18994000Y-9694500D02*
X18994000Y-9105500D01*
X18998000Y-9700000D02*
X18998000Y-9100000D01*
X19002000Y-9705300D02*
X19002000Y-9094700D01*
X19006000Y-9710500D02*
X19006000Y-9089500D01*
X19010000Y-9715600D02*
X19010000Y-9084400D01*
X19014000Y-9720500D02*
X19014000Y-9079500D01*
X19018000Y-9725400D02*
X19018000Y-9074600D01*
X19022000Y-9730100D02*
X19022000Y-9069900D01*
X19026000Y-9734700D02*
X19026000Y-9065300D01*
X19030000Y-9739100D02*
X19030000Y-9060900D01*
X19034000Y-9743500D02*
X19034000Y-9056500D01*
X19038000Y-9276000D02*
X19038000Y-9052200D01*
X19038000Y-9747800D02*
X19038000Y-9524000D01*
X19042000Y-9276000D02*
X19042000Y-9048000D01*
X19042000Y-9752000D02*
X19042000Y-9524000D01*
X19046000Y-9276000D02*
X19046000Y-9043900D01*
X19046000Y-9756100D02*
X19046000Y-9524000D01*
X19050000Y-9276000D02*
X19050000Y-9039900D01*
X19050000Y-9760100D02*
X19050000Y-9524000D01*
X19054000Y-9276000D02*
X19054000Y-9036000D01*
X19054000Y-9764000D02*
X19054000Y-9524000D01*
X19058000Y-9276000D02*
X19058000Y-9032200D01*
X19058000Y-9767800D02*
X19058000Y-9524000D01*
X19062000Y-9276000D02*
X19062000Y-9028400D01*
X19062000Y-9771600D02*
X19062000Y-9524000D01*
X19066000Y-9276000D02*
X19066000Y-9024800D01*
X19066000Y-9775200D02*
X19066000Y-9524000D01*
X19070000Y-9276000D02*
X19070000Y-9021200D01*
X19070000Y-9778800D02*
X19070000Y-9524000D01*
X19074000Y-9276000D02*
X19074000Y-9017700D01*
X19074000Y-9782300D02*
X19074000Y-9524000D01*
X19078000Y-9276000D02*
X19078000Y-9014200D01*
X19078000Y-9785800D02*
X19078000Y-9524000D01*
X19082000Y-9276000D02*
X19082000Y-9010900D01*
X19082000Y-9789100D02*
X19082000Y-9524000D01*
X19086000Y-9276000D02*
X19086000Y-9007600D01*
X19086000Y-9792400D02*
X19086000Y-9524000D01*
X19090000Y-9276000D02*
X19090000Y-9004300D01*
X19090000Y-9795700D02*
X19090000Y-9524000D01*
X19094000Y-9276000D02*
X19094000Y-9001200D01*
X19094000Y-9798800D02*
X19094000Y-9524000D01*
X19098000Y-9276000D02*
X19098000Y-8998000D01*
X19098000Y-9802000D02*
X19098000Y-9524000D01*
X19102000Y-9276000D02*
X19102000Y-8995000D01*
X19102000Y-9805000D02*
X19102000Y-9524000D01*
X19106000Y-9276000D02*
X19106000Y-8992000D01*
X19106000Y-9808000D02*
X19106000Y-9524000D01*
X19110000Y-9276000D02*
X19110000Y-8989100D01*
X19110000Y-9810900D02*
X19110000Y-9524000D01*
X19114000Y-9276000D02*
X19114000Y-8986200D01*
X19114000Y-9813800D02*
X19114000Y-9524000D01*
X19118000Y-9276000D02*
X19118000Y-8983400D01*
X19118000Y-9816600D02*
X19118000Y-9524000D01*
X19122000Y-9276000D02*
X19122000Y-8980700D01*
X19122000Y-9819300D02*
X19122000Y-9524000D01*
X19126000Y-9276000D02*
X19126000Y-8978000D01*
X19126000Y-9822000D02*
X19126000Y-9524000D01*
X19130000Y-9276000D02*
X19130000Y-8975300D01*
X19130000Y-9824700D02*
X19130000Y-9524000D01*
X19134000Y-9276000D02*
X19134000Y-8972800D01*
X19134000Y-9827200D02*
X19134000Y-9524000D01*
X19138000Y-9276000D02*
X19138000Y-8970200D01*
X19138000Y-9829800D02*
X19138000Y-9524000D01*
X19142000Y-9276000D02*
X19142000Y-8967700D01*
X19142000Y-9832300D02*
X19142000Y-9524000D01*
X19146000Y-9276000D02*
X19146000Y-8965300D01*
X19146000Y-9834700D02*
X19146000Y-9524000D01*
X19150000Y-9276000D02*
X19150000Y-8962900D01*
X19150000Y-9837100D02*
X19150000Y-9524000D01*
X19154000Y-9276000D02*
X19154000Y-8960600D01*
X19154000Y-9839400D02*
X19154000Y-9524000D01*
X19158000Y-9276000D02*
X19158000Y-8958300D01*
X19158000Y-9841700D02*
X19158000Y-9524000D01*
X19162000Y-9276000D02*
X19162000Y-8956100D01*
X19162000Y-9843900D02*
X19162000Y-9524000D01*
X19166000Y-9276000D02*
X19166000Y-8953900D01*
X19166000Y-9846100D02*
X19166000Y-9524000D01*
X19170000Y-9276000D02*
X19170000Y-8951700D01*
X19170000Y-9848300D02*
X19170000Y-9524000D01*
X19174000Y-9276000D02*
X19174000Y-8949600D01*
X19174000Y-9850400D02*
X19174000Y-9524000D01*
X19178000Y-9276000D02*
X19178000Y-8947600D01*
X19178000Y-9852400D02*
X19178000Y-9524000D01*
X19182000Y-9276000D02*
X19182000Y-8945600D01*
X19182000Y-9854400D02*
X19182000Y-9524000D01*
X19186000Y-9276000D02*
X19186000Y-8943600D01*
X19186000Y-9856400D02*
X19186000Y-9524000D01*
X19190000Y-9276000D02*
X19190000Y-8941700D01*
X19190000Y-9858300D02*
X19190000Y-9524000D01*
X19194000Y-9276000D02*
X19194000Y-8939800D01*
X19194000Y-9860200D02*
X19194000Y-9524000D01*
X19198000Y-9276000D02*
X19198000Y-8938000D01*
X19198000Y-9862000D02*
X19198000Y-9524000D01*
X19202000Y-9276000D02*
X19202000Y-8936200D01*
X19202000Y-9863800D02*
X19202000Y-9524000D01*
X19206000Y-9276000D02*
X19206000Y-8934400D01*
X19206000Y-9865600D02*
X19206000Y-9524000D01*
X19210000Y-9276000D02*
X19210000Y-8932700D01*
X19210000Y-9867300D02*
X19210000Y-9524000D01*
X19214000Y-9276000D02*
X19214000Y-8931000D01*
X19214000Y-9869000D02*
X19214000Y-9524000D01*
X19218000Y-9276000D02*
X19218000Y-8929400D01*
X19218000Y-9870600D02*
X19218000Y-9524000D01*
X19222000Y-9276000D02*
X19222000Y-8927800D01*
X19222000Y-9872200D02*
X19222000Y-9524000D01*
X19226000Y-9276000D02*
X19226000Y-8926200D01*
X19226000Y-9873800D02*
X19226000Y-9524000D01*
X19230000Y-9276000D02*
X19230000Y-8924700D01*
X19230000Y-9875300D02*
X19230000Y-9524000D01*
X19234000Y-9276000D02*
X19234000Y-8923200D01*
X19234000Y-9876800D02*
X19234000Y-9524000D01*
X19238000Y-9276000D02*
X19238000Y-8921800D01*
X19238000Y-9878200D02*
X19238000Y-9524000D01*
X19242000Y-9276000D02*
X19242000Y-8920300D01*
X19242000Y-9879700D02*
X19242000Y-9524000D01*
X19246000Y-9276000D02*
X19246000Y-8919000D01*
X19246000Y-9881000D02*
X19246000Y-9524000D01*
X19250000Y-9276000D02*
X19250000Y-8917600D01*
X19250000Y-9882400D02*
X19250000Y-9524000D01*
X19254000Y-9276000D02*
X19254000Y-8916300D01*
X19254000Y-9883700D02*
X19254000Y-9524000D01*
X19258000Y-9276000D02*
X19258000Y-8915100D01*
X19258000Y-9884900D02*
X19258000Y-9524000D01*
X19262000Y-9276000D02*
X19262000Y-8913900D01*
X19262000Y-9886100D02*
X19262000Y-9524000D01*
X19266000Y-9276000D02*
X19266000Y-8912700D01*
X19266000Y-9887300D02*
X19266000Y-9524000D01*
X19270000Y-9276000D02*
X19270000Y-8911500D01*
X19270000Y-9888500D02*
X19270000Y-9524000D01*
X19274000Y-9276000D02*
X19274000Y-8910400D01*
X19274000Y-9889600D02*
X19274000Y-9524000D01*
X19278000Y-9276000D02*
X19278000Y-8909300D01*
X19278000Y-9890700D02*
X19278000Y-9524000D01*
X19282000Y-9276000D02*
X19282000Y-8908300D01*
X19282000Y-9891700D02*
X19282000Y-9524000D01*
X19286000Y-9892800D02*
X19286000Y-8907200D01*
X19290000Y-9893700D02*
X19290000Y-8906300D01*
X19294000Y-9894700D02*
X19294000Y-8905300D01*
X19298000Y-9895600D02*
X19298000Y-8904400D01*
X19302000Y-9896500D02*
X19302000Y-8903500D01*
X19306000Y-9897300D02*
X19306000Y-8902700D01*
X19310000Y-9898100D02*
X19310000Y-8901900D01*
X19314000Y-9898900D02*
X19314000Y-8901100D01*
X19318000Y-9899700D02*
X19318000Y-8900300D01*
X19322000Y-9900400D02*
X19322000Y-8899600D01*
X19326000Y-9901100D02*
X19326000Y-8898900D01*
X19330000Y-9901700D02*
X19330000Y-8898300D01*
X19334000Y-9902300D02*
X19334000Y-8897700D01*
X19338000Y-9902900D02*
X19338000Y-8897100D01*
X19342000Y-9903500D02*
X19342000Y-8896500D01*
X19346000Y-9904000D02*
X19346000Y-8896000D01*
X19350000Y-9904500D02*
X19350000Y-8895500D01*
X19354000Y-9904900D02*
X19354000Y-8895100D01*
X19358000Y-9905400D02*
X19358000Y-8894600D01*
X19362000Y-9905700D02*
X19362000Y-8894300D01*
X19366000Y-9906100D02*
X19366000Y-8893900D01*
X19370000Y-9906400D02*
X19370000Y-8893600D01*
X19374000Y-9906700D02*
X19374000Y-8893300D01*
X19378000Y-9907000D02*
X19378000Y-8893000D01*
X19382000Y-9907200D02*
X19382000Y-8892800D01*
X19386000Y-9907400D02*
X19386000Y-8892600D01*
X19390000Y-9907600D02*
X19390000Y-8892400D01*
X19394000Y-9907700D02*
X19394000Y-8892300D01*
X19398000Y-9907900D02*
X19398000Y-8892100D01*
X19402000Y-9907900D02*
X19402000Y-8892100D01*
X19406000Y-9908000D02*
X19406000Y-8892000D01*
X19410000Y-9908000D02*
X19410000Y-8892000D01*
X19907965Y-9737500D02*
X19907965Y-9637500D01*
X19957965Y-9687500D02*
X19857965Y-9687500D01*
X19922000Y-9400000D02*
G75*
G02*
X18898000Y-9400000I-512000J0D01*
G01*
X18898000Y-9400000D02*
G75*
G02*
X19922000Y-9400000I512000J0D01*
G01*
%TO.C,D7*%
X10094000Y-9697000D02*
X10160000Y-9697000D01*
X10094000Y-9838000D02*
X10094000Y-9697000D01*
X10260000Y-9697000D02*
X10326000Y-9697000D01*
X10326000Y-9838000D02*
X10326000Y-9697000D01*
X10096000Y-9875000D02*
X10063000Y-9899000D01*
X10063000Y-9851000D01*
X10096000Y-9875000D01*
G36*
X10096000Y-9875000D02*
G01*
X10063000Y-9899000D01*
X10063000Y-9851000D01*
X10096000Y-9875000D01*
G37*
%TO.C,C69*%
X12045942Y-9349000D02*
X12074058Y-9349000D01*
X12045942Y-9451000D02*
X12074058Y-9451000D01*
%TO.C,C34*%
X13859000Y-7745942D02*
X13859000Y-7774058D01*
X13961000Y-7745942D02*
X13961000Y-7774058D01*
%TO.C,C30*%
X14914058Y-6749000D02*
X14885942Y-6749000D01*
X14914058Y-6851000D02*
X14885942Y-6851000D01*
%TO.C,R50*%
X12267750Y-7196274D02*
X12267750Y-7243726D01*
X12372250Y-7196274D02*
X12372250Y-7243726D01*
%TO.C,C33*%
X11695250Y-7745942D02*
X11695250Y-7774058D01*
X11797250Y-7745942D02*
X11797250Y-7774058D01*
%TO.C,R4*%
X18737750Y-9516226D02*
X18737750Y-9468774D01*
X18842250Y-9516226D02*
X18842250Y-9468774D01*
%TO.C,R23*%
X15637750Y-9053726D02*
X15637750Y-9006274D01*
X15742250Y-9053726D02*
X15742250Y-9006274D01*
%TO.C,C31*%
X14924058Y-5669000D02*
X14895942Y-5669000D01*
X14924058Y-5771000D02*
X14895942Y-5771000D01*
%TO.C,C26*%
X17299000Y-7454058D02*
X17299000Y-7425942D01*
X17401000Y-7454058D02*
X17401000Y-7425942D01*
%TO.C,R52*%
X14179000Y-9627294D02*
X14179000Y-9772706D01*
X14361000Y-9627294D02*
X14361000Y-9772706D01*
%TO.C,FB1*%
X17599000Y-7386278D02*
X17599000Y-7353722D01*
X17701000Y-7386278D02*
X17701000Y-7353722D01*
%TO.C,R17*%
X16287750Y-8596274D02*
X16287750Y-8643726D01*
X16392250Y-8596274D02*
X16392250Y-8643726D01*
%TO.C,R5*%
X18887750Y-8923726D02*
X18887750Y-8876274D01*
X18992250Y-8923726D02*
X18992250Y-8876274D01*
%TO.C,R33*%
X16467750Y-9006274D02*
X16467750Y-9053726D01*
X16572250Y-9006274D02*
X16572250Y-9053726D01*
%TO.C,R14*%
X15409000Y-6757294D02*
X15409000Y-6902706D01*
X15591000Y-6757294D02*
X15591000Y-6902706D01*
%TO.C,C18*%
X16579000Y-8605942D02*
X16579000Y-8634058D01*
X16681000Y-8605942D02*
X16681000Y-8634058D01*
%TO.C,C16*%
X15485942Y-7734997D02*
X15514058Y-7734997D01*
X15485942Y-7836997D02*
X15514058Y-7836997D01*
%TO.C,U5*%
X11466250Y-7596500D02*
X11386250Y-7596500D01*
X11466250Y-7596500D02*
X11546250Y-7596500D01*
X11466250Y-7908500D02*
X11386250Y-7908500D01*
X11466250Y-7908500D02*
X11546250Y-7908500D01*
X11336250Y-7601500D02*
X11312250Y-7568500D01*
X11360250Y-7568500D01*
X11336250Y-7601500D01*
G36*
X11336250Y-7601500D02*
G01*
X11312250Y-7568500D01*
X11360250Y-7568500D01*
X11336250Y-7601500D01*
G37*
%TO.C,C72*%
X12404058Y-5549000D02*
X12375942Y-5549000D01*
X12404058Y-5651000D02*
X12375942Y-5651000D01*
%TO.C,C12*%
X18003875Y-8336500D02*
X18056125Y-8336500D01*
X18003875Y-8483500D02*
X18056125Y-8483500D01*
%TO.C,C40*%
X13474058Y-7089000D02*
X13445942Y-7089000D01*
X13474058Y-7191000D02*
X13445942Y-7191000D01*
%TO.C,R63*%
X15517750Y-8216274D02*
X15517750Y-8263726D01*
X15622250Y-8216274D02*
X15622250Y-8263726D01*
%TO.C,C48*%
X14533875Y-5646500D02*
X14586125Y-5646500D01*
X14533875Y-5793500D02*
X14586125Y-5793500D01*
%TO.C,T5*%
X11194000Y-5850000D02*
X11194000Y-6877000D01*
X12206000Y-5850000D02*
X12206000Y-6877000D01*
X12229000Y-5828000D02*
X12196000Y-5804000D01*
X12229000Y-5780000D01*
X12229000Y-5828000D01*
G36*
X12229000Y-5828000D02*
G01*
X12196000Y-5804000D01*
X12229000Y-5780000D01*
X12229000Y-5828000D01*
G37*
%TO.C,X4*%
X16289000Y-9189000D02*
X16289000Y-9961000D01*
X16289000Y-9961000D02*
X16661000Y-9961000D01*
X16329000Y-9229000D02*
X16329000Y-9921000D01*
X16329000Y-9415000D02*
X16369000Y-9415000D01*
X16329000Y-9425000D02*
X16369000Y-9425000D01*
X16329000Y-9565000D02*
X16369000Y-9565000D01*
X16329000Y-9575000D02*
X16369000Y-9575000D01*
X16329000Y-9715000D02*
X16369000Y-9715000D01*
X16329000Y-9725000D02*
X16369000Y-9725000D01*
X16329000Y-9921000D02*
X16621000Y-9921000D01*
X16369000Y-9415000D02*
X16369000Y-9435000D01*
X16369000Y-9435000D02*
X16329000Y-9435000D01*
X16369000Y-9565000D02*
X16369000Y-9585000D01*
X16369000Y-9585000D02*
X16329000Y-9585000D01*
X16369000Y-9715000D02*
X16369000Y-9735000D01*
X16369000Y-9735000D02*
X16329000Y-9735000D01*
X16470000Y-9189000D02*
X16470000Y-9229000D01*
X16470000Y-9961000D02*
X16470000Y-9921000D01*
X16570000Y-9189000D02*
X16570000Y-9229000D01*
X16570000Y-9961000D02*
X16570000Y-9921000D01*
X16621000Y-9229000D02*
X16329000Y-9229000D01*
X16621000Y-9921000D02*
X16621000Y-9229000D01*
X16661000Y-9189000D02*
X16289000Y-9189000D01*
X16661000Y-9320000D02*
X16681000Y-9320000D01*
X16661000Y-9961000D02*
X16661000Y-9189000D01*
X16671000Y-9320000D02*
X16671000Y-9290000D01*
X16681000Y-9169000D02*
X16601000Y-9169000D01*
X16681000Y-9249000D02*
X16681000Y-9169000D01*
X16681000Y-9290000D02*
X16661000Y-9290000D01*
X16681000Y-9320000D02*
X16681000Y-9290000D01*
%TO.C,C54*%
X10349000Y-7781125D02*
X10349000Y-7638875D01*
X10531000Y-7781125D02*
X10531000Y-7638875D01*
%TO.C,R46*%
X14007750Y-7783726D02*
X14007750Y-7736274D01*
X14112250Y-7783726D02*
X14112250Y-7736274D01*
%TO.C,X11*%
X15149000Y-7304000D02*
X15149000Y-7384000D01*
X15169000Y-7324000D02*
X15169000Y-7696000D01*
X15169000Y-7415000D02*
X15209000Y-7415000D01*
X15169000Y-7515000D02*
X15209000Y-7515000D01*
X15169000Y-7696000D02*
X15941000Y-7696000D01*
X15209000Y-7364000D02*
X15209000Y-7656000D01*
X15209000Y-7656000D02*
X15901000Y-7656000D01*
X15229000Y-7304000D02*
X15149000Y-7304000D01*
X15270000Y-7304000D02*
X15270000Y-7324000D01*
X15300000Y-7304000D02*
X15270000Y-7304000D01*
X15300000Y-7314000D02*
X15270000Y-7314000D01*
X15300000Y-7324000D02*
X15300000Y-7304000D01*
X15395000Y-7616000D02*
X15415000Y-7616000D01*
X15395000Y-7656000D02*
X15395000Y-7616000D01*
X15405000Y-7656000D02*
X15405000Y-7616000D01*
X15415000Y-7616000D02*
X15415000Y-7656000D01*
X15545000Y-7616000D02*
X15565000Y-7616000D01*
X15545000Y-7656000D02*
X15545000Y-7616000D01*
X15555000Y-7656000D02*
X15555000Y-7616000D01*
X15565000Y-7616000D02*
X15565000Y-7656000D01*
X15695000Y-7616000D02*
X15715000Y-7616000D01*
X15695000Y-7656000D02*
X15695000Y-7616000D01*
X15705000Y-7656000D02*
X15705000Y-7616000D01*
X15715000Y-7616000D02*
X15715000Y-7656000D01*
X15901000Y-7364000D02*
X15209000Y-7364000D01*
X15901000Y-7656000D02*
X15901000Y-7364000D01*
X15941000Y-7324000D02*
X15169000Y-7324000D01*
X15941000Y-7415000D02*
X15901000Y-7415000D01*
X15941000Y-7515000D02*
X15901000Y-7515000D01*
X15941000Y-7696000D02*
X15941000Y-7324000D01*
%TO.C,R47*%
X12096226Y-5547750D02*
X12048774Y-5547750D01*
X12096226Y-5652250D02*
X12048774Y-5652250D01*
%TO.C,R26*%
X16767750Y-9053726D02*
X16767750Y-9006274D01*
X16872250Y-9053726D02*
X16872250Y-9006274D01*
%TO.C,C63*%
X13929000Y-7218875D02*
X13929000Y-7361125D01*
X14111000Y-7218875D02*
X14111000Y-7361125D01*
%TO.C,D4*%
X16214000Y-8962000D02*
X16214000Y-9103000D01*
X16280000Y-9103000D02*
X16214000Y-9103000D01*
X16446000Y-8962000D02*
X16446000Y-9103000D01*
X16446000Y-9103000D02*
X16380000Y-9103000D01*
X16477000Y-8949000D02*
X16444000Y-8925000D01*
X16477000Y-8901000D01*
X16477000Y-8949000D01*
G36*
X16477000Y-8949000D02*
G01*
X16444000Y-8925000D01*
X16477000Y-8901000D01*
X16477000Y-8949000D01*
G37*
%TO.C,X9*%
X17609000Y-9339000D02*
X17609000Y-9961000D01*
X17609000Y-9961000D02*
X17981000Y-9961000D01*
X17649000Y-9379000D02*
X17649000Y-9921000D01*
X17649000Y-9565000D02*
X17689000Y-9565000D01*
X17649000Y-9575000D02*
X17689000Y-9575000D01*
X17649000Y-9715000D02*
X17689000Y-9715000D01*
X17649000Y-9725000D02*
X17689000Y-9725000D01*
X17649000Y-9921000D02*
X17941000Y-9921000D01*
X17689000Y-9565000D02*
X17689000Y-9585000D01*
X17689000Y-9585000D02*
X17649000Y-9585000D01*
X17689000Y-9715000D02*
X17689000Y-9735000D01*
X17689000Y-9735000D02*
X17649000Y-9735000D01*
X17790000Y-9339000D02*
X17790000Y-9379000D01*
X17790000Y-9961000D02*
X17790000Y-9921000D01*
X17890000Y-9339000D02*
X17890000Y-9379000D01*
X17890000Y-9961000D02*
X17890000Y-9921000D01*
X17941000Y-9379000D02*
X17649000Y-9379000D01*
X17941000Y-9921000D02*
X17941000Y-9379000D01*
X17981000Y-9339000D02*
X17609000Y-9339000D01*
X17981000Y-9470000D02*
X18001000Y-9470000D01*
X17981000Y-9961000D02*
X17981000Y-9339000D01*
X17991000Y-9470000D02*
X17991000Y-9440000D01*
X18001000Y-9319000D02*
X17921000Y-9319000D01*
X18001000Y-9399000D02*
X18001000Y-9319000D01*
X18001000Y-9440000D02*
X17981000Y-9440000D01*
X18001000Y-9470000D02*
X18001000Y-9440000D01*
%TO.C,C41*%
X17275942Y-8119000D02*
X17304058Y-8119000D01*
X17275942Y-8221000D02*
X17304058Y-8221000D01*
%TO.C,R25*%
X16917750Y-9053726D02*
X16917750Y-9006274D01*
X17022250Y-9053726D02*
X17022250Y-9006274D01*
%TO.C,C56*%
X12269000Y-7781125D02*
X12269000Y-7638875D01*
X12451000Y-7781125D02*
X12451000Y-7638875D01*
%TO.C,R21*%
X16437750Y-8596274D02*
X16437750Y-8643726D01*
X16542250Y-8596274D02*
X16542250Y-8643726D01*
%TO.C,C45*%
X14543875Y-7786500D02*
X14596125Y-7786500D01*
X14543875Y-7933500D02*
X14596125Y-7933500D01*
%TO.C,D18*%
X14369000Y-5825000D02*
X14369000Y-6155000D01*
X14369000Y-5825000D02*
X14920000Y-5825000D01*
X14369000Y-6155000D02*
X14920000Y-6155000D01*
D11*
%TO.C,U13*%
X15632500Y-6907500D02*
X15632500Y-6492500D01*
X16147500Y-6907500D02*
X16147500Y-6492500D01*
D12*
X15642500Y-6967500D02*
X15609500Y-6991500D01*
X15609500Y-6943500D01*
X15642500Y-6967500D01*
G36*
X15642500Y-6967500D02*
G01*
X15609500Y-6991500D01*
X15609500Y-6943500D01*
X15642500Y-6967500D01*
G37*
%TO.C,C11*%
X17879000Y-7895000D02*
X17879000Y-8317000D01*
X17879000Y-8317000D02*
X18181000Y-8317000D01*
X18181000Y-8317000D02*
X18181000Y-7895000D01*
%TO.C,C53*%
X10109000Y-7781125D02*
X10109000Y-7638875D01*
X10291000Y-7781125D02*
X10291000Y-7638875D01*
%TO.C,D5*%
X15794000Y-8962000D02*
X15794000Y-9103000D01*
X15860000Y-9103000D02*
X15794000Y-9103000D01*
X16026000Y-8962000D02*
X16026000Y-9103000D01*
X16026000Y-9103000D02*
X15960000Y-9103000D01*
X16057000Y-8949000D02*
X16024000Y-8925000D01*
X16057000Y-8901000D01*
X16057000Y-8949000D01*
G36*
X16057000Y-8949000D02*
G01*
X16024000Y-8925000D01*
X16057000Y-8901000D01*
X16057000Y-8949000D01*
G37*
D13*
%TO.C,X12*%
X15247000Y-5093000D02*
X15563000Y-5093000D01*
X15247000Y-5165000D02*
X15247000Y-5093000D01*
X15247000Y-5915000D02*
X15247000Y-5987000D01*
X15247000Y-5987000D02*
X15563000Y-5987000D01*
X15563000Y-5093000D02*
X15563000Y-5165000D01*
X15563000Y-5987000D02*
X15563000Y-5915000D01*
X15325000Y-6040000D02*
G75*
G02*
X15305000Y-6040000I-10000J0D01*
G01*
X15305000Y-6040000D02*
G75*
G02*
X15325000Y-6040000I10000J0D01*
G01*
D12*
%TO.C,C47*%
X14513875Y-6716500D02*
X14566125Y-6716500D01*
X14513875Y-6863500D02*
X14566125Y-6863500D01*
%TO.C,R49*%
X14213774Y-5547750D02*
X14261226Y-5547750D01*
X14213774Y-5652250D02*
X14261226Y-5652250D01*
%TO.C,R18*%
X15233726Y-9427750D02*
X15186274Y-9427750D01*
X15233726Y-9532250D02*
X15186274Y-9532250D01*
%TO.C,D20*%
X17641500Y-9144000D02*
X17641500Y-9336000D01*
X17641500Y-9336000D02*
X17910000Y-9336000D01*
X17910000Y-9144000D02*
X17641500Y-9144000D01*
%TO.C,R15*%
X16179000Y-6757294D02*
X16179000Y-6902706D01*
X16361000Y-6757294D02*
X16361000Y-6902706D01*
%TO.C,C10*%
X17795942Y-5979000D02*
X17824058Y-5979000D01*
X17795942Y-6081000D02*
X17824058Y-6081000D01*
%TO.C,R20*%
X14603726Y-9427750D02*
X14556274Y-9427750D01*
X14603726Y-9532250D02*
X14556274Y-9532250D01*
%TO.C,C70*%
X14223442Y-9359000D02*
X14251558Y-9359000D01*
X14223442Y-9461000D02*
X14251558Y-9461000D01*
%TO.C,C60*%
X11789000Y-7218875D02*
X11789000Y-7361125D01*
X11971000Y-7218875D02*
X11971000Y-7361125D01*
%TO.C,C39*%
X11334058Y-7089000D02*
X11305942Y-7089000D01*
X11334058Y-7191000D02*
X11305942Y-7191000D01*
%TO.C,T1*%
X10114000Y-9150000D02*
X10114000Y-8123000D01*
X11126000Y-9150000D02*
X11126000Y-8123000D01*
X10124000Y-9196000D02*
X10091000Y-9220000D01*
X10091000Y-9172000D01*
X10124000Y-9196000D01*
G36*
X10124000Y-9196000D02*
G01*
X10091000Y-9220000D01*
X10091000Y-9172000D01*
X10124000Y-9196000D01*
G37*
%TO.C,C7*%
X18555942Y-6799000D02*
X18584058Y-6799000D01*
X18555942Y-6901000D02*
X18584058Y-6901000D01*
%TO.C,D10*%
X14154000Y-7692000D02*
X14154000Y-7833000D01*
X14220000Y-7833000D02*
X14154000Y-7833000D01*
X14386000Y-7692000D02*
X14386000Y-7833000D01*
X14386000Y-7833000D02*
X14320000Y-7833000D01*
X14417000Y-7679000D02*
X14384000Y-7655000D01*
X14417000Y-7631000D01*
X14417000Y-7679000D01*
G36*
X14417000Y-7679000D02*
G01*
X14384000Y-7655000D01*
X14417000Y-7631000D01*
X14417000Y-7679000D01*
G37*
%TO.C,X3*%
X15409000Y-9189000D02*
X15409000Y-9961000D01*
X15409000Y-9961000D02*
X15781000Y-9961000D01*
X15449000Y-9229000D02*
X15449000Y-9921000D01*
X15449000Y-9415000D02*
X15489000Y-9415000D01*
X15449000Y-9425000D02*
X15489000Y-9425000D01*
X15449000Y-9565000D02*
X15489000Y-9565000D01*
X15449000Y-9575000D02*
X15489000Y-9575000D01*
X15449000Y-9715000D02*
X15489000Y-9715000D01*
X15449000Y-9725000D02*
X15489000Y-9725000D01*
X15449000Y-9921000D02*
X15741000Y-9921000D01*
X15489000Y-9415000D02*
X15489000Y-9435000D01*
X15489000Y-9435000D02*
X15449000Y-9435000D01*
X15489000Y-9565000D02*
X15489000Y-9585000D01*
X15489000Y-9585000D02*
X15449000Y-9585000D01*
X15489000Y-9715000D02*
X15489000Y-9735000D01*
X15489000Y-9735000D02*
X15449000Y-9735000D01*
X15590000Y-9189000D02*
X15590000Y-9229000D01*
X15590000Y-9961000D02*
X15590000Y-9921000D01*
X15690000Y-9189000D02*
X15690000Y-9229000D01*
X15690000Y-9961000D02*
X15690000Y-9921000D01*
X15741000Y-9229000D02*
X15449000Y-9229000D01*
X15741000Y-9921000D02*
X15741000Y-9229000D01*
X15781000Y-9189000D02*
X15409000Y-9189000D01*
X15781000Y-9320000D02*
X15801000Y-9320000D01*
X15781000Y-9961000D02*
X15781000Y-9189000D01*
X15791000Y-9320000D02*
X15791000Y-9290000D01*
X15801000Y-9169000D02*
X15721000Y-9169000D01*
X15801000Y-9249000D02*
X15801000Y-9169000D01*
X15801000Y-9290000D02*
X15781000Y-9290000D01*
X15801000Y-9320000D02*
X15801000Y-9290000D01*
%TO.C,C27*%
X17374058Y-7699000D02*
X17345942Y-7699000D01*
X17374058Y-7801000D02*
X17345942Y-7801000D01*
%TO.C,R36*%
X17626274Y-7777750D02*
X17673726Y-7777750D01*
X17626274Y-7882250D02*
X17673726Y-7882250D01*
%TO.C,R64*%
X15377750Y-8263726D02*
X15377750Y-8216274D01*
X15482250Y-8263726D02*
X15482250Y-8216274D01*
%TO.C,C3*%
X18575942Y-5699000D02*
X18604058Y-5699000D01*
X18575942Y-5801000D02*
X18604058Y-5801000D01*
%TO.C,X2*%
X15719000Y-5044000D02*
X15719000Y-5806000D01*
X15719000Y-5806000D02*
X16316000Y-5806000D01*
X15795000Y-5425000D02*
X15795000Y-5226000D01*
X15795000Y-5730000D02*
X15795000Y-5425000D01*
X16090000Y-5045000D02*
X16090000Y-5120000D01*
X16090000Y-5120000D02*
X15956000Y-5120000D01*
X16090000Y-5730000D02*
X15795000Y-5730000D01*
X16090000Y-5805000D02*
X16090000Y-5730000D01*
X16240000Y-5045000D02*
X16240000Y-5225000D01*
X16240000Y-5225000D02*
X16315000Y-5225000D01*
X16240000Y-5375000D02*
X16240000Y-5475000D01*
X16240000Y-5475000D02*
X16315000Y-5475000D01*
X16240000Y-5625000D02*
X16240000Y-5805000D01*
X16240000Y-5805000D02*
X16315000Y-5805000D01*
X16315000Y-5045000D02*
X16240000Y-5045000D01*
X16315000Y-5225000D02*
X16315000Y-5045000D01*
X16315000Y-5375000D02*
X16240000Y-5375000D01*
X16315000Y-5475000D02*
X16315000Y-5375000D01*
X16315000Y-5625000D02*
X16240000Y-5625000D01*
X16315000Y-5805000D02*
X16315000Y-5625000D01*
X16316000Y-5044000D02*
X15719000Y-5044000D01*
X16316000Y-5806000D02*
X16316000Y-5044000D01*
X16345000Y-5015000D02*
X16220000Y-5015000D01*
X16345000Y-5140000D02*
X16345000Y-5015000D01*
%TO.C,C8*%
X18545942Y-9369000D02*
X18574058Y-9369000D01*
X18545942Y-9471000D02*
X18574058Y-9471000D01*
%TO.C,X7*%
X15849000Y-9189000D02*
X15849000Y-9961000D01*
X15849000Y-9961000D02*
X16221000Y-9961000D01*
X15889000Y-9229000D02*
X15889000Y-9921000D01*
X15889000Y-9415000D02*
X15929000Y-9415000D01*
X15889000Y-9425000D02*
X15929000Y-9425000D01*
X15889000Y-9565000D02*
X15929000Y-9565000D01*
X15889000Y-9575000D02*
X15929000Y-9575000D01*
X15889000Y-9715000D02*
X15929000Y-9715000D01*
X15889000Y-9725000D02*
X15929000Y-9725000D01*
X15889000Y-9921000D02*
X16181000Y-9921000D01*
X15929000Y-9415000D02*
X15929000Y-9435000D01*
X15929000Y-9435000D02*
X15889000Y-9435000D01*
X15929000Y-9565000D02*
X15929000Y-9585000D01*
X15929000Y-9585000D02*
X15889000Y-9585000D01*
X15929000Y-9715000D02*
X15929000Y-9735000D01*
X15929000Y-9735000D02*
X15889000Y-9735000D01*
X16030000Y-9189000D02*
X16030000Y-9229000D01*
X16030000Y-9961000D02*
X16030000Y-9921000D01*
X16130000Y-9189000D02*
X16130000Y-9229000D01*
X16130000Y-9961000D02*
X16130000Y-9921000D01*
X16181000Y-9229000D02*
X15889000Y-9229000D01*
X16181000Y-9921000D02*
X16181000Y-9229000D01*
X16221000Y-9189000D02*
X15849000Y-9189000D01*
X16221000Y-9320000D02*
X16241000Y-9320000D01*
X16221000Y-9961000D02*
X16221000Y-9189000D01*
X16231000Y-9320000D02*
X16231000Y-9290000D01*
X16241000Y-9169000D02*
X16161000Y-9169000D01*
X16241000Y-9249000D02*
X16241000Y-9169000D01*
X16241000Y-9290000D02*
X16221000Y-9290000D01*
X16241000Y-9320000D02*
X16241000Y-9290000D01*
%TO.C,R62*%
X15237750Y-8263726D02*
X15237750Y-8216274D01*
X15342250Y-8263726D02*
X15342250Y-8216274D01*
%TO.C,D6*%
X15144000Y-9152000D02*
X15144000Y-9293000D01*
X15210000Y-9293000D02*
X15144000Y-9293000D01*
X15376000Y-9152000D02*
X15376000Y-9293000D01*
X15376000Y-9293000D02*
X15310000Y-9293000D01*
X15407000Y-9139000D02*
X15374000Y-9115000D01*
X15407000Y-9091000D01*
X15407000Y-9139000D01*
G36*
X15407000Y-9139000D02*
G01*
X15374000Y-9115000D01*
X15407000Y-9091000D01*
X15407000Y-9139000D01*
G37*
%TO.C,C58*%
X12749000Y-7781125D02*
X12749000Y-7638875D01*
X12931000Y-7781125D02*
X12931000Y-7638875D01*
%TO.C,C49*%
X10983875Y-7606500D02*
X11036125Y-7606500D01*
X10983875Y-7753500D02*
X11036125Y-7753500D01*
%TO.C,C71*%
X10224058Y-5549000D02*
X10195942Y-5549000D01*
X10224058Y-5651000D02*
X10195942Y-5651000D01*
%TO.C,C59*%
X12029000Y-7218875D02*
X12029000Y-7361125D01*
X12211000Y-7218875D02*
X12211000Y-7361125D01*
%TO.C,C67*%
X18899664Y-8343608D02*
X18910105Y-8224264D01*
X18901356Y-8370156D02*
X18916382Y-8198412D01*
X18903598Y-8390429D02*
X18922110Y-8178837D01*
X18906119Y-8407514D02*
X18927559Y-8162450D01*
X18908822Y-8422506D02*
X18932825Y-8148154D01*
X18911657Y-8436005D02*
X18937960Y-8135353D01*
X18914587Y-8448407D02*
X18943000Y-8123648D01*
X18917595Y-8459913D02*
X18947960Y-8112839D01*
X18920674Y-8470622D02*
X18952852Y-8102827D01*
X18923804Y-8480734D02*
X18957691Y-8093413D01*
X18926979Y-8490347D02*
X18962486Y-8084497D01*
X18930205Y-8499363D02*
X18967229Y-8076179D01*
X18933458Y-8508079D02*
X18971946Y-8068160D01*
X18936745Y-8516397D02*
X18976628Y-8060539D01*
X18940059Y-8524417D02*
X18981284Y-8053217D01*
X18943399Y-8532137D02*
X18985913Y-8046193D01*
X18946765Y-8539559D02*
X18990517Y-8039469D01*
X18950157Y-8546682D02*
X18995095Y-8033043D01*
X18953567Y-8553605D02*
X18999655Y-8026817D01*
X18956994Y-8560329D02*
X19004197Y-8020790D01*
X18960438Y-8566854D02*
X19008722Y-8014962D01*
X18963900Y-8573180D02*
X19013230Y-8009334D01*
X18967379Y-8579307D02*
X19017720Y-8003905D01*
X18970867Y-8585334D02*
X19022202Y-7998575D01*
X18974372Y-8591161D02*
X19026666Y-7993444D01*
X18977895Y-8596790D02*
X19031113Y-7988513D01*
X18981427Y-8602319D02*
X19035551Y-7983682D01*
X18984967Y-8607748D02*
X19039980Y-7978950D01*
X18988525Y-8612978D02*
X19044392Y-7974417D01*
X18992083Y-8618208D02*
X19048803Y-7969884D01*
X18995658Y-8623239D02*
X19053198Y-7965551D01*
X18999242Y-8628170D02*
X19057584Y-7961317D01*
X19002843Y-8632902D02*
X19061952Y-7957282D01*
X19006444Y-8637633D02*
X19066320Y-7953248D01*
X19010054Y-8642266D02*
X19029560Y-8419317D01*
X19013673Y-8646798D02*
X19033544Y-8419666D01*
X19017300Y-8651231D02*
X19037529Y-8420015D01*
X19020937Y-8655565D02*
X19041514Y-8420363D01*
X19024581Y-8659799D02*
X19045499Y-8420712D01*
X19028235Y-8663933D02*
X19049484Y-8421060D01*
X19031889Y-8668067D02*
X19053468Y-8421409D01*
X19035560Y-8672002D02*
X19057453Y-8421758D01*
X19039231Y-8675937D02*
X19061438Y-8422106D01*
X19042910Y-8679772D02*
X19065423Y-8422455D01*
X19046590Y-8683607D02*
X19069407Y-8422804D01*
X19050287Y-8687243D02*
X19073392Y-8423152D01*
X19051174Y-8172261D02*
X19070680Y-7949313D01*
X19053984Y-8690879D02*
X19077377Y-8423501D01*
X19055159Y-8172610D02*
X19075031Y-7945477D01*
X19057682Y-8694516D02*
X19081362Y-8423849D01*
X19059144Y-8172958D02*
X19079373Y-7941742D01*
X19061396Y-8697952D02*
X19085347Y-8424198D01*
X19063129Y-8173307D02*
X19083706Y-7938105D01*
X19065102Y-8701489D02*
X19089331Y-8424547D01*
X19067113Y-8173655D02*
X19088031Y-7934569D01*
X19068825Y-8704826D02*
X19093316Y-8424895D01*
X19071098Y-8174004D02*
X19092347Y-7931132D01*
X19072549Y-8708163D02*
X19097301Y-8425244D01*
X19075083Y-8174353D02*
X19096663Y-7927695D01*
X19076281Y-8711401D02*
X19101286Y-8425593D01*
X19079068Y-8174701D02*
X19100961Y-7924457D01*
X19080012Y-8714638D02*
X19105270Y-8425941D01*
X19083052Y-8175050D02*
X19105260Y-7921220D01*
X19083753Y-8717776D02*
X19109255Y-8426290D01*
X19087037Y-8175399D02*
X19109550Y-7918081D01*
X19087503Y-8720815D02*
X19113240Y-8426638D01*
X19091022Y-8175747D02*
X19113839Y-7914943D01*
X19091252Y-8723853D02*
X19117225Y-8426987D01*
X19095002Y-8726891D02*
X19121210Y-8427336D01*
X19095007Y-8176096D02*
X19118112Y-7912005D01*
X19098769Y-8729730D02*
X19125194Y-8427684D01*
X19098992Y-8176444D02*
X19122384Y-7909066D01*
X19102527Y-8732669D02*
X19129179Y-8428033D01*
X19102976Y-8176793D02*
X19126657Y-7906127D01*
X19106294Y-8735508D02*
X19133164Y-8428382D01*
X19106961Y-8177142D02*
X19130912Y-7903387D01*
X19110069Y-8738248D02*
X19137149Y-8428730D01*
X19110946Y-8177490D02*
X19135175Y-7900548D01*
X19113845Y-8740987D02*
X19141133Y-8429079D01*
X19114931Y-8177839D02*
X19139422Y-7897909D01*
X19117629Y-8743627D02*
X19145118Y-8429427D01*
X19118916Y-8178187D02*
X19143668Y-7895268D01*
X19121414Y-8746267D02*
X19149103Y-8429776D01*
X19122900Y-8178536D02*
X19147905Y-7892728D01*
X19125207Y-8748807D02*
X19153088Y-8430125D01*
X19126885Y-8178885D02*
X19152143Y-7890188D01*
X19129000Y-8751348D02*
X19157073Y-8430473D01*
X19130870Y-8179233D02*
X19156372Y-7887747D01*
X19132793Y-8753888D02*
X19161057Y-8430822D01*
X19134855Y-8179582D02*
X19160592Y-7885406D01*
X19136594Y-8756328D02*
X19165042Y-8431170D01*
X19138839Y-8179931D02*
X19164812Y-7883065D01*
X19140405Y-8758669D02*
X19169027Y-8431519D01*
X19142824Y-8180279D02*
X19169032Y-7880724D01*
X19144215Y-8761010D02*
X19173012Y-8431868D01*
X19146809Y-8180628D02*
X19173235Y-7878582D01*
X19148026Y-8763351D02*
X19176996Y-8432216D01*
X19150794Y-8180977D02*
X19177446Y-7876340D01*
X19151845Y-8765593D02*
X19180981Y-8432565D01*
X19154779Y-8181325D02*
X19181649Y-7874198D01*
X19155664Y-8767834D02*
X19184966Y-8432914D01*
X19158763Y-8181674D02*
X19185843Y-7872156D01*
X19159492Y-8769976D02*
X19188951Y-8433262D01*
X19162748Y-8182022D02*
X19190037Y-7870114D01*
X19163320Y-8772118D02*
X19192936Y-8433611D01*
X19166733Y-8182371D02*
X19194222Y-7868171D01*
X19167148Y-8774260D02*
X19196920Y-8433959D01*
X19170718Y-8182720D02*
X19198407Y-7866229D01*
X19170985Y-8776302D02*
X19200905Y-8434308D01*
X19174702Y-8183068D02*
X19202584Y-7864386D01*
X19174821Y-8778344D02*
X19204890Y-8434657D01*
X19178667Y-8780286D02*
X19208875Y-8435005D01*
X19178687Y-8183417D02*
X19206760Y-7862543D01*
X19182512Y-8782229D02*
X19212859Y-8435354D01*
X19182672Y-8183765D02*
X19210937Y-7860700D01*
X19186357Y-8784172D02*
X19216844Y-8435703D01*
X19186657Y-8184114D02*
X19215104Y-7858956D01*
X19190211Y-8786014D02*
X19220829Y-8436051D01*
X19190641Y-8184463D02*
X19219263Y-7857313D01*
X19194065Y-8787857D02*
X19224814Y-8436400D01*
X19194626Y-8184811D02*
X19223423Y-7855669D01*
X19197928Y-8789601D02*
X19228799Y-8436748D01*
X19198611Y-8185160D02*
X19227582Y-7854025D01*
X19201782Y-8791444D02*
X19232783Y-8437097D01*
X19202596Y-8185509D02*
X19231732Y-7852481D01*
X19205654Y-8793087D02*
X19236768Y-8437446D01*
X19206581Y-8185857D02*
X19235882Y-7850937D01*
X19209516Y-8794831D02*
X19240753Y-8437794D01*
X19210565Y-8186206D02*
X19240024Y-7849492D01*
X19213388Y-8796474D02*
X19244738Y-8438143D01*
X19214550Y-8186555D02*
X19244166Y-7848048D01*
X19217268Y-8798018D02*
X19248722Y-8438492D01*
X19218535Y-8186903D02*
X19248307Y-7846603D01*
X19221148Y-8799562D02*
X19252707Y-8438840D01*
X19222520Y-8187252D02*
X19252440Y-7845258D01*
X19225028Y-8801106D02*
X19256692Y-8439189D01*
X19226505Y-8187600D02*
X19256573Y-7843913D01*
X19228908Y-8802650D02*
X19260677Y-8439537D01*
X19230489Y-8187949D02*
X19260697Y-7842668D01*
X19232797Y-8804095D02*
X19264662Y-8439886D01*
X19234474Y-8188298D02*
X19264822Y-7841422D01*
X19236686Y-8805539D02*
X19268646Y-8440235D01*
X19238459Y-8188646D02*
X19268946Y-7840177D01*
X19240584Y-8806884D02*
X19272631Y-8440583D01*
X19242444Y-8188995D02*
X19273061Y-7839032D01*
X19244473Y-8808329D02*
X19330374Y-7826479D01*
X19246428Y-8189343D02*
X19277177Y-7837886D01*
X19248379Y-8809574D02*
X19334437Y-7825931D01*
X19250413Y-8189692D02*
X19281284Y-7836840D01*
X19252277Y-8810919D02*
X19338509Y-7825283D01*
X19254398Y-8190041D02*
X19285399Y-7835694D01*
X19256183Y-8812164D02*
X19342572Y-7824735D01*
X19258383Y-8190389D02*
X19289497Y-7834748D01*
X19260090Y-8813409D02*
X19346635Y-7824188D01*
X19262368Y-8190738D02*
X19293604Y-7833702D01*
X19264005Y-8814555D02*
X19350690Y-7823739D01*
X19266352Y-8191087D02*
X19297702Y-7832755D01*
X19267920Y-8815700D02*
X19354744Y-7823291D01*
X19270337Y-8191435D02*
X19301792Y-7831909D01*
X19271835Y-8816846D02*
X19358799Y-7822842D01*
X19274322Y-8191784D02*
X19305881Y-7831062D01*
X19275750Y-8817991D02*
X19362853Y-7822394D01*
X19278307Y-8192132D02*
X19309970Y-7830215D01*
X19279673Y-8819037D02*
X19366899Y-7822045D01*
X19282291Y-8192481D02*
X19314059Y-7829368D01*
X19283597Y-8820083D02*
X19370945Y-7821697D01*
X19286276Y-8192830D02*
X19318140Y-7828621D01*
X19287530Y-8821030D02*
X19374982Y-7821448D01*
X19290261Y-8193178D02*
X19322221Y-7827874D01*
X19291462Y-8821976D02*
X19379019Y-7821199D01*
X19294246Y-8193527D02*
X19326293Y-7827226D01*
X19295395Y-8822922D02*
X19383056Y-7820950D01*
X19299327Y-8823869D02*
X19387093Y-7820700D01*
X19303268Y-8824715D02*
X19391121Y-7820551D01*
X19307210Y-8825562D02*
X19395150Y-7820401D01*
X19311160Y-8826309D02*
X19399169Y-7820352D01*
X19315101Y-8827156D02*
X19403198Y-7820202D01*
X19319059Y-8827803D02*
X19407209Y-7820252D01*
X19323009Y-8828550D02*
X19411228Y-7820202D01*
X19326968Y-8829198D02*
X19415239Y-7820252D01*
X19330927Y-8829845D02*
X19419250Y-7820302D01*
X19334885Y-8830493D02*
X19423261Y-7820351D01*
X19338853Y-8831041D02*
X19427263Y-7820501D01*
X19342820Y-8831589D02*
X19431266Y-7820650D01*
X19346787Y-8832136D02*
X19435268Y-7820799D01*
X19350763Y-8832585D02*
X19439261Y-7821048D01*
X19354731Y-8833132D02*
X19443263Y-7821198D01*
X19358715Y-8833481D02*
X19447248Y-7821546D01*
X19362692Y-8833929D02*
X19451242Y-7821795D01*
X19366676Y-8834278D02*
X19455227Y-7822144D01*
X19877606Y-8707827D02*
X19886322Y-8608208D01*
X19931774Y-8662375D02*
X19832154Y-8653660D01*
X19922952Y-8328211D02*
G75*
G02*
X18898951Y-8328211I-512000J0D01*
G01*
X18898951Y-8328211D02*
G75*
G02*
X19922952Y-8328211I512000J0D01*
G01*
%TO.C,R29*%
X17067750Y-8683726D02*
X17067750Y-8636274D01*
X17172250Y-8683726D02*
X17172250Y-8636274D01*
%TO.C,D19*%
X15164000Y-7057000D02*
X15230000Y-7057000D01*
X15164000Y-7198000D02*
X15164000Y-7057000D01*
X15330000Y-7057000D02*
X15396000Y-7057000D01*
X15396000Y-7198000D02*
X15396000Y-7057000D01*
X15166000Y-7235000D02*
X15133000Y-7259000D01*
X15133000Y-7211000D01*
X15166000Y-7235000D01*
G36*
X15166000Y-7235000D02*
G01*
X15133000Y-7259000D01*
X15133000Y-7211000D01*
X15166000Y-7235000D01*
G37*
%TO.C,D15*%
X14379000Y-7965000D02*
X14379000Y-8295000D01*
X14379000Y-7965000D02*
X14930000Y-7965000D01*
X14379000Y-8295000D02*
X14930000Y-8295000D01*
%TO.C,D13*%
X14139000Y-5162000D02*
X14139000Y-5303000D01*
X14205000Y-5303000D02*
X14139000Y-5303000D01*
X14371000Y-5162000D02*
X14371000Y-5303000D01*
X14371000Y-5303000D02*
X14305000Y-5303000D01*
X14402000Y-5149000D02*
X14369000Y-5125000D01*
X14402000Y-5101000D01*
X14402000Y-5149000D01*
G36*
X14402000Y-5149000D02*
G01*
X14369000Y-5125000D01*
X14402000Y-5101000D01*
X14402000Y-5149000D01*
G37*
%TO.C,C36*%
X12689000Y-7244058D02*
X12689000Y-7215942D01*
X12791000Y-7244058D02*
X12791000Y-7215942D01*
%TO.C,R55*%
X15203774Y-6067750D02*
X15251226Y-6067750D01*
X15203774Y-6172250D02*
X15251226Y-6172250D01*
%TO.C,T12*%
X16699000Y-5835000D02*
X16699000Y-5862000D01*
X16699000Y-6525000D02*
X16699000Y-6498000D01*
X17341000Y-5835000D02*
X16699000Y-5835000D01*
X17341000Y-6525000D02*
X16699000Y-6525000D01*
X16526000Y-5866000D02*
X16492000Y-5819000D01*
X16560000Y-5819000D01*
X16526000Y-5866000D01*
G36*
X16526000Y-5866000D02*
G01*
X16492000Y-5819000D01*
X16560000Y-5819000D01*
X16526000Y-5866000D01*
G37*
%TO.C,R48*%
X10097750Y-7196274D02*
X10097750Y-7243726D01*
X10202250Y-7196274D02*
X10202250Y-7243726D01*
%TO.C,C64*%
X13689000Y-7218875D02*
X13689000Y-7361125D01*
X13871000Y-7218875D02*
X13871000Y-7361125D01*
%TO.C,R51*%
X12009000Y-9623544D02*
X12009000Y-9768956D01*
X12191000Y-9623544D02*
X12191000Y-9768956D01*
%TO.C,R40*%
X13123726Y-7437750D02*
X13076274Y-7437750D01*
X13123726Y-7542250D02*
X13076274Y-7542250D01*
%TO.C,U11*%
X14720000Y-6174000D02*
X14525000Y-6174000D01*
X14720000Y-6174000D02*
X14915000Y-6174000D01*
X14720000Y-6686000D02*
X14525000Y-6686000D01*
X14720000Y-6686000D02*
X14915000Y-6686000D01*
X15014000Y-6709500D02*
X14966000Y-6709500D01*
X14990000Y-6676500D01*
X15014000Y-6709500D01*
G36*
X15014000Y-6709500D02*
G01*
X14966000Y-6709500D01*
X14990000Y-6676500D01*
X15014000Y-6709500D01*
G37*
%TO.C,T4*%
X13314000Y-8110000D02*
X13314000Y-9137000D01*
X14326000Y-8110000D02*
X14326000Y-9137000D01*
X14349000Y-8088000D02*
X14316000Y-8064000D01*
X14349000Y-8040000D01*
X14349000Y-8088000D01*
G36*
X14349000Y-8088000D02*
G01*
X14316000Y-8064000D01*
X14349000Y-8040000D01*
X14349000Y-8088000D01*
G37*
%TO.C,R6*%
X18737750Y-9756274D02*
X18737750Y-9803726D01*
X18842250Y-9756274D02*
X18842250Y-9803726D01*
%TO.C,U8*%
X13020000Y-7074000D02*
X12940000Y-7074000D01*
X13020000Y-7074000D02*
X13100000Y-7074000D01*
X13020000Y-7386000D02*
X12940000Y-7386000D01*
X13020000Y-7386000D02*
X13100000Y-7386000D01*
X13174000Y-7414000D02*
X13126000Y-7414000D01*
X13150000Y-7381000D01*
X13174000Y-7414000D01*
G36*
X13174000Y-7414000D02*
G01*
X13126000Y-7414000D01*
X13150000Y-7381000D01*
X13174000Y-7414000D01*
G37*
%TO.C,D8*%
X11834000Y-7712000D02*
X11834000Y-7853000D01*
X11900000Y-7853000D02*
X11834000Y-7853000D01*
X12066000Y-7712000D02*
X12066000Y-7853000D01*
X12066000Y-7853000D02*
X12000000Y-7853000D01*
X12097000Y-7699000D02*
X12064000Y-7675000D01*
X12097000Y-7651000D01*
X12097000Y-7699000D01*
G36*
X12097000Y-7699000D02*
G01*
X12064000Y-7675000D01*
X12097000Y-7651000D01*
X12097000Y-7699000D01*
G37*
%TO.C,C6*%
X18189000Y-9361558D02*
X18189000Y-9333442D01*
X18291000Y-9361558D02*
X18291000Y-9333442D01*
%TO.C,R39*%
X10973726Y-7427750D02*
X10926274Y-7427750D01*
X10973726Y-7532250D02*
X10926274Y-7532250D01*
%TO.C,R8*%
X16997750Y-6773726D02*
X16997750Y-6726274D01*
X17102250Y-6773726D02*
X17102250Y-6726274D01*
%TO.C,X10*%
X14399000Y-9569000D02*
X14399000Y-9649000D01*
X14419000Y-9589000D02*
X14419000Y-9961000D01*
X14419000Y-9680000D02*
X14459000Y-9680000D01*
X14419000Y-9780000D02*
X14459000Y-9780000D01*
X14419000Y-9961000D02*
X15341000Y-9961000D01*
X14459000Y-9629000D02*
X14459000Y-9921000D01*
X14459000Y-9921000D02*
X15301000Y-9921000D01*
X14479000Y-9569000D02*
X14399000Y-9569000D01*
X14520000Y-9569000D02*
X14520000Y-9589000D01*
X14550000Y-9569000D02*
X14520000Y-9569000D01*
X14550000Y-9579000D02*
X14520000Y-9579000D01*
X14550000Y-9589000D02*
X14550000Y-9569000D01*
X14645000Y-9881000D02*
X14665000Y-9881000D01*
X14645000Y-9921000D02*
X14645000Y-9881000D01*
X14655000Y-9921000D02*
X14655000Y-9881000D01*
X14665000Y-9881000D02*
X14665000Y-9921000D01*
X14795000Y-9881000D02*
X14815000Y-9881000D01*
X14795000Y-9921000D02*
X14795000Y-9881000D01*
X14805000Y-9921000D02*
X14805000Y-9881000D01*
X14815000Y-9881000D02*
X14815000Y-9921000D01*
X14945000Y-9881000D02*
X14965000Y-9881000D01*
X14945000Y-9921000D02*
X14945000Y-9881000D01*
X14955000Y-9921000D02*
X14955000Y-9881000D01*
X14965000Y-9881000D02*
X14965000Y-9921000D01*
X15095000Y-9881000D02*
X15115000Y-9881000D01*
X15095000Y-9921000D02*
X15095000Y-9881000D01*
X15105000Y-9921000D02*
X15105000Y-9881000D01*
X15115000Y-9881000D02*
X15115000Y-9921000D01*
X15301000Y-9629000D02*
X14459000Y-9629000D01*
X15301000Y-9921000D02*
X15301000Y-9629000D01*
X15341000Y-9589000D02*
X14419000Y-9589000D01*
X15341000Y-9680000D02*
X15301000Y-9680000D01*
X15341000Y-9780000D02*
X15301000Y-9780000D01*
X15341000Y-9961000D02*
X15341000Y-9589000D01*
%TO.C,R7*%
X16887750Y-7071226D02*
X16887750Y-7023774D01*
X16992250Y-7071226D02*
X16992250Y-7023774D01*
%TO.C,U4*%
X16239000Y-7449000D02*
X16284000Y-7449000D01*
X16239000Y-7494000D02*
X16239000Y-7449000D01*
X16239000Y-8126000D02*
X16239000Y-8171000D01*
X16239000Y-8171000D02*
X16284000Y-8171000D01*
X16961000Y-7449000D02*
X16916000Y-7449000D01*
X16961000Y-7494000D02*
X16961000Y-7449000D01*
X16961000Y-8126000D02*
X16961000Y-8171000D01*
X16961000Y-8171000D02*
X16916000Y-8171000D01*
X16284000Y-8230000D02*
X16237000Y-8264000D01*
X16237000Y-8196000D01*
X16284000Y-8230000D01*
G36*
X16284000Y-8230000D02*
G01*
X16237000Y-8264000D01*
X16237000Y-8196000D01*
X16284000Y-8230000D01*
G37*
%TO.C,R61*%
X15657750Y-8258726D02*
X15657750Y-8211274D01*
X15762250Y-8258726D02*
X15762250Y-8211274D01*
%TO.C,R3*%
X18756274Y-6947750D02*
X18803726Y-6947750D01*
X18756274Y-7052250D02*
X18803726Y-7052250D01*
%TO.C,C43*%
X17275942Y-7969000D02*
X17304058Y-7969000D01*
X17275942Y-8071000D02*
X17304058Y-8071000D01*
%TO.C,C66*%
X18910105Y-6775736D02*
X18899664Y-6656392D01*
X18916382Y-6801587D02*
X18901356Y-6629843D01*
X18922110Y-6821163D02*
X18903598Y-6609571D01*
X18927559Y-6837550D02*
X18906119Y-6592486D01*
X18932825Y-6851846D02*
X18908822Y-6577494D01*
X18937960Y-6864647D02*
X18911657Y-6563995D01*
X18943000Y-6876352D02*
X18914587Y-6551593D01*
X18947960Y-6887161D02*
X18917595Y-6540086D01*
X18952852Y-6897173D02*
X18920674Y-6529378D01*
X18957691Y-6906587D02*
X18923804Y-6519266D01*
X18962486Y-6915503D02*
X18926979Y-6509653D01*
X18967229Y-6923821D02*
X18930205Y-6500637D01*
X18971946Y-6931840D02*
X18933458Y-6491921D01*
X18976628Y-6939461D02*
X18936745Y-6483603D01*
X18981284Y-6946783D02*
X18940059Y-6475583D01*
X18985913Y-6953807D02*
X18943399Y-6467863D01*
X18990517Y-6960531D02*
X18946765Y-6460441D01*
X18995095Y-6966956D02*
X18950157Y-6453318D01*
X18999654Y-6973183D02*
X18953567Y-6446395D01*
X19004197Y-6979210D02*
X18956993Y-6439671D01*
X19008722Y-6985037D02*
X18960438Y-6433146D01*
X19013230Y-6990666D02*
X18963900Y-6426820D01*
X19017720Y-6996095D02*
X18967379Y-6420693D01*
X19022202Y-7001425D02*
X18970867Y-6414666D01*
X19026666Y-7006555D02*
X18974372Y-6408839D01*
X19029560Y-6580683D02*
X19010054Y-6357734D01*
X19031113Y-7011487D02*
X18977895Y-6403210D01*
X19033544Y-6580334D02*
X19013673Y-6353202D01*
X19035551Y-7016318D02*
X18981427Y-6397681D01*
X19037529Y-6579986D02*
X19017300Y-6348769D01*
X19039980Y-7021050D02*
X18984967Y-6392252D01*
X19041514Y-6579637D02*
X19020937Y-6344435D01*
X19044392Y-7025583D02*
X18988525Y-6387022D01*
X19045499Y-6579288D02*
X19024581Y-6340201D01*
X19048803Y-7030116D02*
X18992083Y-6381792D01*
X19049483Y-6578940D02*
X19028235Y-6336067D01*
X19053198Y-7034449D02*
X18995658Y-6376761D01*
X19053468Y-6578591D02*
X19031889Y-6331933D01*
X19057453Y-6578242D02*
X19035560Y-6327998D01*
X19057584Y-7038683D02*
X18999242Y-6371830D01*
X19061438Y-6577894D02*
X19039231Y-6324063D01*
X19061952Y-7042718D02*
X19002843Y-6367098D01*
X19065423Y-6577545D02*
X19042910Y-6320228D01*
X19066320Y-7046752D02*
X19006444Y-6362367D01*
X19069407Y-6577196D02*
X19046590Y-6316393D01*
X19070680Y-7050687D02*
X19051174Y-6827739D01*
X19073392Y-6576848D02*
X19050287Y-6312757D01*
X19075031Y-7054523D02*
X19055159Y-6827390D01*
X19077377Y-6576499D02*
X19053984Y-6309121D01*
X19079373Y-7058259D02*
X19059144Y-6827042D01*
X19081362Y-6576151D02*
X19057682Y-6305484D01*
X19083706Y-7061895D02*
X19063129Y-6826693D01*
X19085347Y-6575802D02*
X19061396Y-6302048D01*
X19088031Y-7065431D02*
X19067113Y-6826345D01*
X19089331Y-6575453D02*
X19065102Y-6298511D01*
X19092347Y-7068868D02*
X19071098Y-6825996D01*
X19093316Y-6575105D02*
X19068825Y-6295174D01*
X19096663Y-7072305D02*
X19075083Y-6825647D01*
X19097301Y-6574756D02*
X19072549Y-6291837D01*
X19100961Y-7075543D02*
X19079068Y-6825299D01*
X19101286Y-6574407D02*
X19076281Y-6288599D01*
X19105260Y-7078780D02*
X19083052Y-6824950D01*
X19105270Y-6574059D02*
X19080013Y-6285362D01*
X19109255Y-6573710D02*
X19083753Y-6282224D01*
X19109550Y-7081918D02*
X19087037Y-6824601D01*
X19113240Y-6573361D02*
X19087503Y-6279185D01*
X19113839Y-7085057D02*
X19091022Y-6824253D01*
X19117225Y-6573013D02*
X19091252Y-6276147D01*
X19118112Y-7087995D02*
X19095007Y-6823904D01*
X19121210Y-6572664D02*
X19095002Y-6273109D01*
X19122384Y-7090934D02*
X19098992Y-6823555D01*
X19125194Y-6572316D02*
X19098769Y-6270270D01*
X19126657Y-7093873D02*
X19102976Y-6823207D01*
X19129179Y-6571967D02*
X19102527Y-6267331D01*
X19130912Y-7096613D02*
X19106961Y-6822858D01*
X19133164Y-6571618D02*
X19106294Y-6264492D01*
X19135175Y-7099452D02*
X19110946Y-6822510D01*
X19137149Y-6571270D02*
X19110069Y-6261752D01*
X19139421Y-7102092D02*
X19114931Y-6822161D01*
X19141133Y-6570921D02*
X19113845Y-6259013D01*
X19143668Y-7104732D02*
X19118916Y-6821812D01*
X19145118Y-6570573D02*
X19117629Y-6256373D01*
X19147905Y-7107272D02*
X19122900Y-6821464D01*
X19149103Y-6570224D02*
X19121414Y-6253733D01*
X19152143Y-7109812D02*
X19126885Y-6821115D01*
X19153088Y-6569875D02*
X19125207Y-6251193D01*
X19156372Y-7112253D02*
X19130870Y-6820766D01*
X19157072Y-6569527D02*
X19129000Y-6248652D01*
X19160592Y-7114594D02*
X19134855Y-6820418D01*
X19161057Y-6569178D02*
X19132793Y-6246112D01*
X19164812Y-7116935D02*
X19138839Y-6820069D01*
X19165042Y-6568829D02*
X19136594Y-6243672D01*
X19169027Y-6568481D02*
X19140405Y-6241331D01*
X19169032Y-7119276D02*
X19142824Y-6819721D01*
X19173012Y-6568132D02*
X19144215Y-6238990D01*
X19173235Y-7121418D02*
X19146809Y-6819372D01*
X19176996Y-6567784D02*
X19148026Y-6236649D01*
X19177446Y-7123660D02*
X19150794Y-6819023D01*
X19180981Y-6567435D02*
X19151845Y-6234407D01*
X19181649Y-7125802D02*
X19154778Y-6818675D01*
X19184966Y-6567086D02*
X19155664Y-6232166D01*
X19185843Y-7127844D02*
X19158763Y-6818326D01*
X19188951Y-6566738D02*
X19159492Y-6230024D01*
X19190036Y-7129886D02*
X19162748Y-6817977D01*
X19192936Y-6566389D02*
X19163320Y-6227882D01*
X19194222Y-7131829D02*
X19166733Y-6817629D01*
X19196920Y-6566041D02*
X19167148Y-6225740D01*
X19198407Y-7133771D02*
X19170718Y-6817280D01*
X19200905Y-6565692D02*
X19170985Y-6223698D01*
X19202584Y-7135614D02*
X19174702Y-6816932D01*
X19204890Y-6565343D02*
X19174821Y-6221656D01*
X19206760Y-7137457D02*
X19178687Y-6816583D01*
X19208875Y-6564995D02*
X19178667Y-6219714D01*
X19210937Y-7139300D02*
X19182672Y-6816234D01*
X19212859Y-6564646D02*
X19182512Y-6217771D01*
X19215104Y-7141044D02*
X19186657Y-6815886D01*
X19216844Y-6564297D02*
X19186357Y-6215828D01*
X19219263Y-7142687D02*
X19190641Y-6815537D01*
X19220829Y-6563949D02*
X19190211Y-6213986D01*
X19223423Y-7144331D02*
X19194626Y-6815189D01*
X19224814Y-6563600D02*
X19194065Y-6212143D01*
X19227582Y-7145975D02*
X19198611Y-6814840D01*
X19228799Y-6563252D02*
X19197928Y-6210399D01*
X19231732Y-7147519D02*
X19202596Y-6814491D01*
X19232783Y-6562903D02*
X19201782Y-6208556D01*
X19235882Y-7149063D02*
X19206581Y-6814143D01*
X19236768Y-6562554D02*
X19205654Y-6206913D01*
X19240024Y-7150508D02*
X19210565Y-6813794D01*
X19240753Y-6562206D02*
X19209516Y-6205169D01*
X19244166Y-7151952D02*
X19214550Y-6813445D01*
X19244738Y-6561857D02*
X19213388Y-6203526D01*
X19248307Y-7153397D02*
X19218535Y-6813097D01*
X19248723Y-6561508D02*
X19217268Y-6201982D01*
X19252440Y-7154742D02*
X19222520Y-6812748D01*
X19252707Y-6561160D02*
X19221148Y-6200438D01*
X19256573Y-7156087D02*
X19226505Y-6812400D01*
X19256692Y-6560811D02*
X19225028Y-6198894D01*
X19260677Y-6560463D02*
X19228908Y-6197350D01*
X19260697Y-7157332D02*
X19230489Y-6812051D01*
X19264662Y-6560114D02*
X19232797Y-6195905D01*
X19264822Y-7158577D02*
X19234474Y-6811702D01*
X19268646Y-6559765D02*
X19236686Y-6194461D01*
X19268946Y-7159823D02*
X19238459Y-6811354D01*
X19272631Y-6559417D02*
X19240584Y-6193116D01*
X19273062Y-7160968D02*
X19242444Y-6811005D01*
X19277177Y-7162114D02*
X19246428Y-6810656D01*
X19281284Y-7163160D02*
X19250413Y-6810308D01*
X19285399Y-7164306D02*
X19254398Y-6809959D01*
X19289497Y-7165252D02*
X19258383Y-6809611D01*
X19293604Y-7166298D02*
X19262367Y-6809262D01*
X19297702Y-7167244D02*
X19266352Y-6808913D01*
X19301792Y-7168091D02*
X19270337Y-6808565D01*
X19305881Y-7168938D02*
X19274322Y-6808216D01*
X19309970Y-7169785D02*
X19278307Y-6807868D01*
X19314059Y-7170632D02*
X19282291Y-6807519D01*
X19318140Y-7171379D02*
X19286276Y-6807170D01*
X19322221Y-7172126D02*
X19290261Y-6806822D01*
X19326293Y-7172774D02*
X19294246Y-6806473D01*
X19330374Y-7173521D02*
X19244473Y-6191671D01*
X19334437Y-7174069D02*
X19248379Y-6190426D01*
X19338509Y-7174717D02*
X19252277Y-6189081D01*
X19342572Y-7175264D02*
X19256183Y-6187836D01*
X19346635Y-7175812D02*
X19260090Y-6186591D01*
X19350690Y-7176261D02*
X19264005Y-6185445D01*
X19354744Y-7176709D02*
X19267920Y-6184300D01*
X19358799Y-7177157D02*
X19271835Y-6183154D01*
X19362853Y-7177606D02*
X19275750Y-6182009D01*
X19366899Y-7177954D02*
X19279673Y-6180963D01*
X19370945Y-7178303D02*
X19283597Y-6179917D01*
X19374982Y-7178552D02*
X19287530Y-6178971D01*
X19379019Y-7178801D02*
X19291462Y-6178024D01*
X19383056Y-7179050D02*
X19295395Y-6177078D01*
X19387093Y-7179299D02*
X19299327Y-6176131D01*
X19391121Y-7179449D02*
X19303268Y-6175285D01*
X19395150Y-7179599D02*
X19307210Y-6174438D01*
X19399169Y-7179648D02*
X19311160Y-6173691D01*
X19403198Y-7179798D02*
X19315101Y-6172844D01*
X19407209Y-7179748D02*
X19319059Y-6172197D01*
X19411228Y-7179798D02*
X19323009Y-6171450D01*
X19415239Y-7179748D02*
X19326968Y-6170802D01*
X19419250Y-7179698D02*
X19330926Y-6170155D01*
X19423261Y-7179649D02*
X19334885Y-6169507D01*
X19427263Y-7179499D02*
X19338853Y-6168959D01*
X19431266Y-7179350D02*
X19342820Y-6168411D01*
X19435268Y-7179200D02*
X19346787Y-6167864D01*
X19439261Y-7178951D02*
X19350763Y-6167415D01*
X19443263Y-7178802D02*
X19354731Y-6166867D01*
X19447248Y-7178453D02*
X19358715Y-6166519D01*
X19451242Y-7178204D02*
X19362691Y-6166071D01*
X19455227Y-7177856D02*
X19366676Y-6165722D01*
X19936436Y-6964604D02*
X19927721Y-6864985D01*
X19981888Y-6910437D02*
X19882269Y-6919152D01*
X19922952Y-6671789D02*
G75*
G02*
X18898951Y-6671789I-512000J0D01*
G01*
X18898951Y-6671789D02*
G75*
G02*
X19922952Y-6671789I512000J0D01*
G01*
%TO.C,R57*%
X18027750Y-9373726D02*
X18027750Y-9326274D01*
X18132250Y-9373726D02*
X18132250Y-9326274D01*
%TO.C,C14*%
X16169000Y-6141125D02*
X16169000Y-5998875D01*
X16351000Y-6141125D02*
X16351000Y-5998875D01*
%TO.C,U9*%
X14777500Y-7244000D02*
X14582500Y-7244000D01*
X14777500Y-7244000D02*
X14972500Y-7244000D01*
X14777500Y-7756000D02*
X14582500Y-7756000D01*
X14777500Y-7756000D02*
X14972500Y-7756000D01*
X15071500Y-7779500D02*
X15023500Y-7779500D01*
X15047500Y-7746500D01*
X15071500Y-7779500D01*
G36*
X15071500Y-7779500D02*
G01*
X15023500Y-7779500D01*
X15047500Y-7746500D01*
X15071500Y-7779500D01*
G37*
%TO.C,C17*%
X15229000Y-8735942D02*
X15229000Y-8764058D01*
X15331000Y-8735942D02*
X15331000Y-8764058D01*
%TO.C,T6*%
X10134000Y-6890000D02*
X10134000Y-5863000D01*
X11146000Y-6890000D02*
X11146000Y-5863000D01*
X10144000Y-6936000D02*
X10111000Y-6960000D01*
X10111000Y-6912000D01*
X10144000Y-6936000D01*
G36*
X10144000Y-6936000D02*
G01*
X10111000Y-6960000D01*
X10111000Y-6912000D01*
X10144000Y-6936000D01*
G37*
%TO.C,C32*%
X16879000Y-8615942D02*
X16879000Y-8644058D01*
X16981000Y-8615942D02*
X16981000Y-8644058D01*
%TO.C,C19*%
X15944058Y-8069000D02*
X15915942Y-8069000D01*
X15944058Y-8171000D02*
X15915942Y-8171000D01*
%TO.C,C22*%
X16139000Y-8655942D02*
X16139000Y-8684058D01*
X16241000Y-8655942D02*
X16241000Y-8684058D01*
%TO.C,R32*%
X17247750Y-8683726D02*
X17247750Y-8636274D01*
X17352250Y-8683726D02*
X17352250Y-8636274D01*
%TO.C,R24*%
X15303726Y-8917750D02*
X15256274Y-8917750D01*
X15303726Y-9022250D02*
X15256274Y-9022250D01*
%TO.C,C28*%
X14954058Y-7809000D02*
X14925942Y-7809000D01*
X14954058Y-7911000D02*
X14925942Y-7911000D01*
%TO.C,D16*%
X14429000Y-9045000D02*
X14429000Y-9375000D01*
X14429000Y-9045000D02*
X14980000Y-9045000D01*
X14429000Y-9375000D02*
X14980000Y-9375000D01*
%TO.C,C2*%
X18599000Y-8211125D02*
X18599000Y-8068875D01*
X18781000Y-8211125D02*
X18781000Y-8068875D01*
%TO.C,R10*%
X16516274Y-6557750D02*
X16563726Y-6557750D01*
X16516274Y-6662250D02*
X16563726Y-6662250D01*
D11*
%TO.C,U3*%
X17540018Y-8365024D02*
X17540018Y-8294920D01*
X17560084Y-8365024D02*
X17540018Y-8365024D01*
X17560084Y-8365024D02*
X17564910Y-8365024D01*
X17839982Y-8294920D02*
X17839982Y-8365024D01*
X17839982Y-8365024D02*
X17815090Y-8365024D01*
D12*
%TO.C,R28*%
X17067750Y-9053726D02*
X17067750Y-9006274D01*
X17172250Y-9053726D02*
X17172250Y-9006274D01*
%TO.C,R35*%
X17626274Y-7637750D02*
X17673726Y-7637750D01*
X17626274Y-7742250D02*
X17673726Y-7742250D01*
%TO.C,C23*%
X15969000Y-8655942D02*
X15969000Y-8684058D01*
X16071000Y-8655942D02*
X16071000Y-8684058D01*
%TO.C,R22*%
X16077750Y-9053726D02*
X16077750Y-9006274D01*
X16182250Y-9053726D02*
X16182250Y-9006274D01*
%TO.C,C38*%
X13125942Y-7809000D02*
X13154058Y-7809000D01*
X13125942Y-7911000D02*
X13154058Y-7911000D01*
%TO.C,C24*%
X15789000Y-8655942D02*
X15789000Y-8684058D01*
X15891000Y-8655942D02*
X15891000Y-8684058D01*
%TO.C,R16*%
X15523726Y-8637750D02*
X15476274Y-8637750D01*
X15523726Y-8742250D02*
X15476274Y-8742250D01*
%TO.C,T2*%
X11174000Y-8110000D02*
X11174000Y-9137000D01*
X12186000Y-8110000D02*
X12186000Y-9137000D01*
X12209000Y-8088000D02*
X12176000Y-8064000D01*
X12209000Y-8040000D01*
X12209000Y-8088000D01*
G36*
X12209000Y-8088000D02*
G01*
X12176000Y-8064000D01*
X12209000Y-8040000D01*
X12209000Y-8088000D01*
G37*
%TO.C,R34*%
X16617750Y-9006274D02*
X16617750Y-9053726D01*
X16722250Y-9006274D02*
X16722250Y-9053726D01*
%TD*%
%LPC*%
D14*
%TO.C,C65*%
X19660000Y-5600000D03*
D15*
X19160000Y-5600000D03*
%TD*%
D16*
%TO.C,T9*%
X17780000Y-7025000D03*
X17780000Y-6895000D03*
X17580000Y-6960000D03*
%TD*%
D17*
%TO.C,J18*%
X19620000Y-7500000D03*
%TD*%
D18*
%TO.C,C1*%
X18422500Y-5560000D03*
X18717500Y-5560000D03*
%TD*%
D19*
%TO.C,R30*%
X17480000Y-9112500D03*
X17480000Y-8947500D03*
%TD*%
D20*
%TO.C,C51*%
X11395000Y-7310000D03*
X11205000Y-7310000D03*
%TD*%
D21*
%TO.C,H1*%
X10640000Y-9650000D03*
%TD*%
D22*
%TO.C,U12*%
X15025000Y-5540500D03*
X15025000Y-5413500D03*
X15025000Y-5286500D03*
X15025000Y-5159500D03*
X14500000Y-5159500D03*
X14500000Y-5286500D03*
X14500000Y-5413500D03*
X14500000Y-5540500D03*
%TD*%
D23*
%TO.C,D9*%
X12285000Y-9860000D03*
X12415000Y-9860000D03*
X12350000Y-9660000D03*
%TD*%
D21*
%TO.C,H4*%
X11670000Y-5350000D03*
%TD*%
D24*
%TO.C,R43*%
X10302500Y-9420000D03*
X10137500Y-9420000D03*
%TD*%
D19*
%TO.C,R31*%
X17300000Y-9112500D03*
X17300000Y-8947500D03*
%TD*%
D25*
%TO.C,U6*%
X13501250Y-7670000D03*
X13501250Y-7765000D03*
X13501250Y-7860000D03*
X13728750Y-7860000D03*
X13728750Y-7670000D03*
%TD*%
D26*
%TO.C,X8*%
X18210000Y-9725000D03*
D27*
X18360000Y-9725000D03*
X18510000Y-9725000D03*
%TD*%
D28*
%TO.C,C25*%
X17500000Y-7517500D03*
X17500000Y-7362500D03*
%TD*%
D29*
%TO.C,R2*%
X18800000Y-6687500D03*
X18800000Y-6852500D03*
%TD*%
D30*
%TO.C,R13*%
X17227500Y-7030000D03*
X17392500Y-7030000D03*
%TD*%
D31*
%TO.C,U15*%
X15375000Y-6290000D03*
X15280000Y-6290000D03*
X15185000Y-6290000D03*
X15185000Y-6517500D03*
X15280000Y-6517500D03*
X15375000Y-6517500D03*
%TD*%
D32*
%TO.C,D2*%
X18170000Y-5940000D03*
X18170000Y-5540000D03*
%TD*%
D33*
%TO.C,U14*%
X15690500Y-7992500D03*
X15563500Y-7992500D03*
X15436500Y-7992500D03*
X15309500Y-7992500D03*
X15309500Y-8487500D03*
X15436500Y-8487500D03*
X15563500Y-8487500D03*
X15690500Y-8487500D03*
%TD*%
D34*
%TO.C,D17*%
X14560000Y-7060000D03*
X14960000Y-7060000D03*
%TD*%
D35*
%TO.C,X1*%
X16460000Y-5694000D03*
X17360000Y-5694000D03*
D36*
X16760000Y-5300000D03*
D37*
X17060000Y-5300000D03*
X16760000Y-5600000D03*
X17060000Y-5600000D03*
%TD*%
D23*
%TO.C,D14*%
X12465000Y-7322500D03*
X12595000Y-7322500D03*
X12530000Y-7122500D03*
%TD*%
D24*
%TO.C,R19*%
X14972500Y-9480000D03*
X14807500Y-9480000D03*
%TD*%
D38*
%TO.C,T11*%
X17205000Y-6826000D03*
X17300000Y-6826000D03*
X17395000Y-6826000D03*
X17395000Y-6594000D03*
X17300000Y-6594000D03*
X17205000Y-6594000D03*
%TD*%
D39*
%TO.C,C50*%
X13085000Y-7680000D03*
X13275000Y-7680000D03*
%TD*%
D40*
%TO.C,R54*%
X12370000Y-5446250D03*
X12370000Y-5153750D03*
%TD*%
D19*
%TO.C,R56*%
X15570000Y-6272500D03*
X15570000Y-6107500D03*
%TD*%
D28*
%TO.C,C15*%
X16080000Y-6140000D03*
X16080000Y-5985000D03*
%TD*%
D41*
%TO.C,C44*%
X16780000Y-8542500D03*
X16780000Y-8697500D03*
%TD*%
D19*
%TO.C,R12*%
X17930000Y-7052500D03*
X17930000Y-6887500D03*
%TD*%
D42*
%TO.C,C21*%
X16157500Y-7380000D03*
X16002500Y-7380000D03*
%TD*%
D43*
%TO.C,D1*%
X18760000Y-5240000D03*
X18360000Y-5240000D03*
%TD*%
D44*
%TO.C,U2*%
X18389500Y-9218000D03*
X18516500Y-9218000D03*
X18643500Y-9218000D03*
X18770500Y-9218000D03*
X18770500Y-8662000D03*
X18643500Y-8662000D03*
X18516500Y-8662000D03*
X18389500Y-8662000D03*
D45*
X18502500Y-9000250D03*
X18657500Y-9000250D03*
X18502500Y-8879750D03*
X18657500Y-8879750D03*
%TD*%
D39*
%TO.C,C13*%
X17595000Y-8000000D03*
X17785000Y-8000000D03*
%TD*%
D42*
%TO.C,C5*%
X18557500Y-6700000D03*
X18402500Y-6700000D03*
%TD*%
D46*
%TO.C,C4*%
X18582500Y-8450250D03*
X18737500Y-8450250D03*
%TD*%
D47*
%TO.C,C62*%
X14260000Y-7142500D03*
X14260000Y-7437500D03*
%TD*%
D24*
%TO.C,R45*%
X12442500Y-9450000D03*
X12277500Y-9450000D03*
%TD*%
D48*
%TO.C,J7*%
X11080000Y-5300000D03*
%TD*%
%TO.C,J5*%
X13380000Y-9700000D03*
%TD*%
D20*
%TO.C,C52*%
X13505000Y-7310000D03*
X13315000Y-7310000D03*
%TD*%
D49*
%TO.C,L2*%
X18160000Y-8820000D03*
X17690000Y-8820000D03*
%TD*%
D50*
%TO.C,X5*%
X16960000Y-9350000D03*
D51*
X16960000Y-9500000D03*
X16960000Y-9650000D03*
X16960000Y-9800000D03*
%TD*%
D40*
%TO.C,R53*%
X10190000Y-5446250D03*
X10190000Y-5153750D03*
%TD*%
D30*
%TO.C,R1*%
X18387500Y-7000000D03*
X18552500Y-7000000D03*
%TD*%
%TO.C,R9*%
X16457500Y-6810000D03*
X16622500Y-6810000D03*
%TD*%
D44*
%TO.C,U1*%
X18409500Y-6508000D03*
X18536500Y-6508000D03*
X18663500Y-6508000D03*
X18790500Y-6508000D03*
X18790500Y-5952000D03*
X18663500Y-5952000D03*
X18536500Y-5952000D03*
X18409500Y-5952000D03*
D45*
X18522500Y-6290250D03*
X18677500Y-6290250D03*
X18522500Y-6169750D03*
X18677500Y-6169750D03*
%TD*%
D48*
%TO.C,J4*%
X11210000Y-9700000D03*
%TD*%
D52*
%TO.C,U7*%
X10967500Y-7325000D03*
X10967500Y-7230000D03*
X10967500Y-7135000D03*
X10740000Y-7135000D03*
X10740000Y-7325000D03*
%TD*%
D16*
%TO.C,T10*%
X16910000Y-6775000D03*
X16910000Y-6645000D03*
X16710000Y-6710000D03*
%TD*%
D53*
%TO.C,T7*%
X14260000Y-5845000D03*
D54*
X13780000Y-5945000D03*
D55*
X13840000Y-6750000D03*
%TD*%
D46*
%TO.C,C42*%
X17092500Y-8320000D03*
X17247500Y-8320000D03*
%TD*%
D39*
%TO.C,C46*%
X14545000Y-8940000D03*
X14735000Y-8940000D03*
%TD*%
D30*
%TO.C,R42*%
X15857500Y-8280000D03*
X16022500Y-8280000D03*
%TD*%
D56*
%TO.C,C55*%
X10680000Y-7857500D03*
X10680000Y-7562500D03*
%TD*%
D53*
%TO.C,T3*%
X12340000Y-9155000D03*
D57*
X12820000Y-9055000D03*
D58*
X12760000Y-8250000D03*
%TD*%
D50*
%TO.C,X6*%
X17400000Y-9350000D03*
D51*
X17400000Y-9500000D03*
X17400000Y-9650000D03*
X17400000Y-9800000D03*
%TD*%
D24*
%TO.C,R38*%
X13552500Y-7505000D03*
X13387500Y-7505000D03*
%TD*%
D23*
%TO.C,D12*%
X10295000Y-7330000D03*
X10425000Y-7330000D03*
X10360000Y-7130000D03*
%TD*%
D42*
%TO.C,C29*%
X15062500Y-8960000D03*
X14907500Y-8960000D03*
%TD*%
D28*
%TO.C,C35*%
X10570000Y-7297500D03*
X10570000Y-7142500D03*
%TD*%
D29*
%TO.C,R11*%
X17550000Y-6597500D03*
X17550000Y-6762500D03*
%TD*%
D56*
%TO.C,C57*%
X12600000Y-7857500D03*
X12600000Y-7562500D03*
%TD*%
D19*
%TO.C,R44*%
X12170000Y-7882500D03*
X12170000Y-7717500D03*
%TD*%
D24*
%TO.C,R41*%
X16022500Y-8420000D03*
X15857500Y-8420000D03*
%TD*%
D59*
%TO.C,C9*%
X17750000Y-5827000D03*
X17750000Y-5203000D03*
%TD*%
D46*
%TO.C,C37*%
X10922500Y-7860000D03*
X11077500Y-7860000D03*
%TD*%
D60*
%TO.C,TP1*%
X16010000Y-7780000D03*
%TD*%
D61*
%TO.C,D11*%
X12185000Y-5130000D03*
X12055000Y-5130000D03*
X12120000Y-5330000D03*
%TD*%
D32*
%TO.C,D3*%
X18360000Y-8340000D03*
X18360000Y-7940000D03*
%TD*%
D22*
%TO.C,U10*%
X15052500Y-8760500D03*
X15052500Y-8633500D03*
X15052500Y-8506500D03*
X15052500Y-8379500D03*
X14527500Y-8379500D03*
X14527500Y-8506500D03*
X14527500Y-8633500D03*
X14527500Y-8760500D03*
%TD*%
D19*
%TO.C,R27*%
X17480000Y-8742500D03*
X17480000Y-8577500D03*
%TD*%
D53*
%TO.C,T8*%
X12360000Y-6895000D03*
D57*
X12840000Y-6795000D03*
D58*
X12780000Y-5990000D03*
%TD*%
D24*
%TO.C,R37*%
X11402500Y-7500000D03*
X11237500Y-7500000D03*
%TD*%
D15*
%TO.C,FID2*%
X19780000Y-5220000D03*
%TD*%
D47*
%TO.C,C61*%
X11640000Y-7142500D03*
X11640000Y-7437500D03*
%TD*%
D41*
%TO.C,C20*%
X17190000Y-7232500D03*
X17190000Y-7387500D03*
%TD*%
D14*
%TO.C,C68*%
X19660000Y-9400000D03*
D15*
X19160000Y-9400000D03*
%TD*%
D23*
%TO.C,D7*%
X10145000Y-9870000D03*
X10275000Y-9870000D03*
X10210000Y-9670000D03*
%TD*%
D46*
%TO.C,C69*%
X11982500Y-9400000D03*
X12137500Y-9400000D03*
%TD*%
D41*
%TO.C,C34*%
X13910000Y-7682500D03*
X13910000Y-7837500D03*
%TD*%
D42*
%TO.C,C30*%
X14977500Y-6800000D03*
X14822500Y-6800000D03*
%TD*%
D29*
%TO.C,R50*%
X12320000Y-7137500D03*
X12320000Y-7302500D03*
%TD*%
D41*
%TO.C,C33*%
X11746250Y-7682500D03*
X11746250Y-7837500D03*
%TD*%
D19*
%TO.C,R4*%
X18790000Y-9575000D03*
X18790000Y-9410000D03*
%TD*%
D48*
%TO.C,J10*%
X13250000Y-5300000D03*
%TD*%
D19*
%TO.C,R23*%
X15690000Y-9112500D03*
X15690000Y-8947500D03*
%TD*%
D42*
%TO.C,C31*%
X14987500Y-5720000D03*
X14832500Y-5720000D03*
%TD*%
D28*
%TO.C,C26*%
X17350000Y-7517500D03*
X17350000Y-7362500D03*
%TD*%
D62*
%TO.C,R52*%
X14270000Y-9553750D03*
X14270000Y-9846250D03*
%TD*%
D63*
%TO.C,FB1*%
X17650000Y-7448750D03*
X17650000Y-7291250D03*
%TD*%
D29*
%TO.C,R17*%
X16340000Y-8537500D03*
X16340000Y-8702500D03*
%TD*%
D19*
%TO.C,R5*%
X18940000Y-8982500D03*
X18940000Y-8817500D03*
%TD*%
D29*
%TO.C,R33*%
X16520000Y-8947500D03*
X16520000Y-9112500D03*
%TD*%
D62*
%TO.C,R14*%
X15500000Y-6683750D03*
X15500000Y-6976250D03*
%TD*%
D41*
%TO.C,C18*%
X16630000Y-8542500D03*
X16630000Y-8697500D03*
%TD*%
D46*
%TO.C,C16*%
X15422500Y-7785997D03*
X15577500Y-7785997D03*
%TD*%
D25*
%TO.C,U5*%
X11352500Y-7657500D03*
X11352500Y-7752500D03*
X11352500Y-7847500D03*
X11580000Y-7847500D03*
X11580000Y-7657500D03*
%TD*%
D42*
%TO.C,C72*%
X12467500Y-5600000D03*
X12312500Y-5600000D03*
%TD*%
D39*
%TO.C,C12*%
X17935000Y-8410000D03*
X18125000Y-8410000D03*
%TD*%
D42*
%TO.C,C40*%
X13537500Y-7140000D03*
X13382500Y-7140000D03*
%TD*%
D29*
%TO.C,R63*%
X15570000Y-8157500D03*
X15570000Y-8322500D03*
%TD*%
D39*
%TO.C,C48*%
X14465000Y-5720000D03*
X14655000Y-5720000D03*
%TD*%
D53*
%TO.C,T5*%
X12120000Y-5845000D03*
D54*
X11640000Y-5945000D03*
D55*
X11700000Y-6750000D03*
%TD*%
D50*
%TO.C,X4*%
X16520000Y-9350000D03*
D51*
X16520000Y-9500000D03*
X16520000Y-9650000D03*
X16520000Y-9800000D03*
%TD*%
D56*
%TO.C,C54*%
X10440000Y-7857500D03*
X10440000Y-7562500D03*
%TD*%
D19*
%TO.C,R46*%
X14060000Y-7842500D03*
X14060000Y-7677500D03*
%TD*%
D26*
%TO.C,X11*%
X15330000Y-7465000D03*
D27*
X15480000Y-7465000D03*
X15630000Y-7465000D03*
X15780000Y-7465000D03*
%TD*%
D24*
%TO.C,R47*%
X12155000Y-5600000D03*
X11990000Y-5600000D03*
%TD*%
D19*
%TO.C,R26*%
X16820000Y-9112500D03*
X16820000Y-8947500D03*
%TD*%
D47*
%TO.C,C63*%
X14020000Y-7142500D03*
X14020000Y-7437500D03*
%TD*%
D61*
%TO.C,D4*%
X16395000Y-8930000D03*
X16265000Y-8930000D03*
X16330000Y-9130000D03*
%TD*%
D50*
%TO.C,X9*%
X17840000Y-9500000D03*
D51*
X17840000Y-9650000D03*
X17840000Y-9800000D03*
%TD*%
D46*
%TO.C,C41*%
X17212500Y-8170000D03*
X17367500Y-8170000D03*
%TD*%
D19*
%TO.C,R25*%
X16970000Y-9112500D03*
X16970000Y-8947500D03*
%TD*%
D56*
%TO.C,C56*%
X12360000Y-7857500D03*
X12360000Y-7562500D03*
%TD*%
D29*
%TO.C,R21*%
X16490000Y-8537500D03*
X16490000Y-8702500D03*
%TD*%
D39*
%TO.C,C45*%
X14475000Y-7860000D03*
X14665000Y-7860000D03*
%TD*%
D34*
%TO.C,D18*%
X14520000Y-5990000D03*
X14920000Y-5990000D03*
%TD*%
D64*
%TO.C,U13*%
X15890000Y-6700000D03*
D65*
X15699500Y-6987500D03*
X15826500Y-6987500D03*
X15953500Y-6987500D03*
X16080500Y-6987500D03*
X16080500Y-6412500D03*
X15953500Y-6412500D03*
X15826500Y-6412500D03*
X15699500Y-6412500D03*
D66*
X15760000Y-6765000D03*
X15890000Y-6765000D03*
X16020000Y-6765000D03*
X15760000Y-6635000D03*
X15890000Y-6635000D03*
X16020000Y-6635000D03*
%TD*%
D67*
%TO.C,C11*%
X18030000Y-8224000D03*
X18030000Y-7916000D03*
%TD*%
D56*
%TO.C,C53*%
X10200000Y-7857500D03*
X10200000Y-7562500D03*
%TD*%
D61*
%TO.C,D5*%
X15975000Y-8930000D03*
X15845000Y-8930000D03*
X15910000Y-9130000D03*
%TD*%
D68*
%TO.C,X12*%
X15405000Y-5915000D03*
X15405000Y-5165000D03*
D69*
X15318500Y-5815000D03*
X15318500Y-5665000D03*
X15318500Y-5615000D03*
X15318500Y-5565000D03*
X15318500Y-5515000D03*
X15318500Y-5465000D03*
X15318500Y-5415000D03*
X15318500Y-5265000D03*
X15491500Y-5265000D03*
X15491500Y-5415000D03*
X15491500Y-5465000D03*
X15491500Y-5515000D03*
X15491500Y-5565000D03*
X15491500Y-5615000D03*
X15491500Y-5665000D03*
X15491500Y-5815000D03*
D70*
X15190000Y-5780000D03*
X15620000Y-5780000D03*
X15190000Y-5300000D03*
X15620000Y-5300000D03*
%TD*%
D39*
%TO.C,C47*%
X14445000Y-6790000D03*
X14635000Y-6790000D03*
%TD*%
D30*
%TO.C,R49*%
X14155000Y-5600000D03*
X14320000Y-5600000D03*
%TD*%
D24*
%TO.C,R18*%
X15292500Y-9480000D03*
X15127500Y-9480000D03*
%TD*%
D71*
%TO.C,D20*%
X17716250Y-9240000D03*
X17903750Y-9240000D03*
%TD*%
D62*
%TO.C,R15*%
X16270000Y-6683750D03*
X16270000Y-6976250D03*
%TD*%
D46*
%TO.C,C10*%
X17732500Y-6030000D03*
X17887500Y-6030000D03*
%TD*%
D21*
%TO.C,H2*%
X12790000Y-9650000D03*
%TD*%
D24*
%TO.C,R20*%
X14662500Y-9480000D03*
X14497500Y-9480000D03*
%TD*%
D46*
%TO.C,C70*%
X14160000Y-9410000D03*
X14315000Y-9410000D03*
%TD*%
D47*
%TO.C,C60*%
X11880000Y-7142500D03*
X11880000Y-7437500D03*
%TD*%
D42*
%TO.C,C39*%
X11397500Y-7140000D03*
X11242500Y-7140000D03*
%TD*%
D53*
%TO.C,T1*%
X10200000Y-9155000D03*
D57*
X10680000Y-9055000D03*
D58*
X10620000Y-8250000D03*
%TD*%
D46*
%TO.C,C7*%
X18492500Y-6850000D03*
X18647500Y-6850000D03*
%TD*%
D61*
%TO.C,D10*%
X14335000Y-7660000D03*
X14205000Y-7660000D03*
X14270000Y-7860000D03*
%TD*%
D50*
%TO.C,X3*%
X15640000Y-9350000D03*
D51*
X15640000Y-9500000D03*
X15640000Y-9650000D03*
X15640000Y-9800000D03*
%TD*%
D42*
%TO.C,C27*%
X17437500Y-7750000D03*
X17282500Y-7750000D03*
%TD*%
D30*
%TO.C,R36*%
X17567500Y-7830000D03*
X17732500Y-7830000D03*
%TD*%
D19*
%TO.C,R64*%
X15430000Y-8322500D03*
X15430000Y-8157500D03*
%TD*%
D46*
%TO.C,C3*%
X18512500Y-5750000D03*
X18667500Y-5750000D03*
%TD*%
D72*
%TO.C,X2*%
X15870000Y-5140000D03*
D73*
X16070000Y-5300000D03*
D74*
X16070000Y-5550000D03*
%TD*%
D46*
%TO.C,C8*%
X18482500Y-9420000D03*
X18637500Y-9420000D03*
%TD*%
D50*
%TO.C,X7*%
X16080000Y-9350000D03*
D51*
X16080000Y-9500000D03*
X16080000Y-9650000D03*
X16080000Y-9800000D03*
%TD*%
D19*
%TO.C,R62*%
X15290000Y-8322500D03*
X15290000Y-8157500D03*
%TD*%
D15*
%TO.C,FID1*%
X19780000Y-9780000D03*
%TD*%
D75*
%TO.C,J19*%
X18800000Y-7500000D03*
%TD*%
D21*
%TO.C,H5*%
X13820000Y-5350000D03*
%TD*%
D61*
%TO.C,D6*%
X15325000Y-9120000D03*
X15195000Y-9120000D03*
X15260000Y-9320000D03*
%TD*%
D56*
%TO.C,C58*%
X12840000Y-7857500D03*
X12840000Y-7562500D03*
%TD*%
D39*
%TO.C,C49*%
X10915000Y-7680000D03*
X11105000Y-7680000D03*
%TD*%
D42*
%TO.C,C71*%
X10287500Y-5600000D03*
X10132500Y-5600000D03*
%TD*%
D47*
%TO.C,C59*%
X12120000Y-7142500D03*
X12120000Y-7437500D03*
%TD*%
D76*
%TO.C,C67*%
X19660000Y-8350000D03*
D15*
X19161903Y-8306422D03*
%TD*%
D19*
%TO.C,R29*%
X17120000Y-8742500D03*
X17120000Y-8577500D03*
%TD*%
D23*
%TO.C,D19*%
X15215000Y-7230000D03*
X15345000Y-7230000D03*
X15280000Y-7030000D03*
%TD*%
D34*
%TO.C,D15*%
X14530000Y-8130000D03*
X14930000Y-8130000D03*
%TD*%
D61*
%TO.C,D13*%
X14320000Y-5130000D03*
X14190000Y-5130000D03*
X14255000Y-5330000D03*
%TD*%
D28*
%TO.C,C36*%
X12740000Y-7307500D03*
X12740000Y-7152500D03*
%TD*%
D30*
%TO.C,R55*%
X15145000Y-6120000D03*
X15310000Y-6120000D03*
%TD*%
D77*
%TO.C,T12*%
X16526000Y-5952000D03*
D78*
X17156000Y-6180000D03*
D77*
X16526000Y-6408000D03*
%TD*%
D29*
%TO.C,R48*%
X10150000Y-7137500D03*
X10150000Y-7302500D03*
%TD*%
D47*
%TO.C,C64*%
X13780000Y-7142500D03*
X13780000Y-7437500D03*
%TD*%
D48*
%TO.C,J3*%
X11720000Y-9700000D03*
%TD*%
D62*
%TO.C,R51*%
X12100000Y-9550000D03*
X12100000Y-9842500D03*
%TD*%
D24*
%TO.C,R40*%
X13182500Y-7490000D03*
X13017500Y-7490000D03*
%TD*%
D22*
%TO.C,U11*%
X14982500Y-6620500D03*
X14982500Y-6493500D03*
X14982500Y-6366500D03*
X14982500Y-6239500D03*
X14457500Y-6239500D03*
X14457500Y-6366500D03*
X14457500Y-6493500D03*
X14457500Y-6620500D03*
%TD*%
D53*
%TO.C,T4*%
X14240000Y-8105000D03*
D54*
X13760000Y-8205000D03*
D55*
X13820000Y-9010000D03*
%TD*%
D29*
%TO.C,R6*%
X18790000Y-9697500D03*
X18790000Y-9862500D03*
%TD*%
D52*
%TO.C,U8*%
X13133750Y-7325000D03*
X13133750Y-7230000D03*
X13133750Y-7135000D03*
X12906250Y-7135000D03*
X12906250Y-7325000D03*
%TD*%
D61*
%TO.C,D8*%
X12015000Y-7680000D03*
X11885000Y-7680000D03*
X11950000Y-7880000D03*
%TD*%
D28*
%TO.C,C6*%
X18240000Y-9425000D03*
X18240000Y-9270000D03*
%TD*%
D24*
%TO.C,R39*%
X11032500Y-7480000D03*
X10867500Y-7480000D03*
%TD*%
D19*
%TO.C,R8*%
X17050000Y-6832500D03*
X17050000Y-6667500D03*
%TD*%
D26*
%TO.C,X10*%
X14580000Y-9730000D03*
D27*
X14730000Y-9730000D03*
X14880000Y-9730000D03*
X15030000Y-9730000D03*
X15180000Y-9730000D03*
%TD*%
D19*
%TO.C,R7*%
X16940000Y-7130000D03*
X16940000Y-6965000D03*
%TD*%
D79*
%TO.C,U4*%
X16325000Y-8226250D03*
X16375000Y-8226250D03*
X16425000Y-8226250D03*
X16475000Y-8226250D03*
X16525000Y-8226250D03*
X16575000Y-8226250D03*
X16625000Y-8226250D03*
X16675000Y-8226250D03*
X16725000Y-8226250D03*
X16775000Y-8226250D03*
X16825000Y-8226250D03*
X16875000Y-8226250D03*
D80*
X17016250Y-8085000D03*
X17016250Y-8035000D03*
X17016250Y-7985000D03*
X17016250Y-7935000D03*
X17016250Y-7885000D03*
X17016250Y-7835000D03*
X17016250Y-7785000D03*
X17016250Y-7735000D03*
X17016250Y-7685000D03*
X17016250Y-7635000D03*
X17016250Y-7585000D03*
X17016250Y-7535000D03*
D79*
X16875000Y-7393750D03*
X16825000Y-7393750D03*
X16775000Y-7393750D03*
X16725000Y-7393750D03*
X16675000Y-7393750D03*
X16625000Y-7393750D03*
X16575000Y-7393750D03*
X16525000Y-7393750D03*
X16475000Y-7393750D03*
X16425000Y-7393750D03*
X16375000Y-7393750D03*
X16325000Y-7393750D03*
D80*
X16183750Y-7535000D03*
X16183750Y-7585000D03*
X16183750Y-7635000D03*
X16183750Y-7685000D03*
X16183750Y-7735000D03*
X16183750Y-7785000D03*
X16183750Y-7835000D03*
X16183750Y-7885000D03*
X16183750Y-7935000D03*
X16183750Y-7985000D03*
X16183750Y-8035000D03*
X16183750Y-8085000D03*
%TD*%
D19*
%TO.C,R61*%
X15710000Y-8317500D03*
X15710000Y-8152500D03*
%TD*%
D30*
%TO.C,R3*%
X18697500Y-7000000D03*
X18862500Y-7000000D03*
%TD*%
D46*
%TO.C,C43*%
X17212500Y-8020000D03*
X17367500Y-8020000D03*
%TD*%
D48*
%TO.C,J6*%
X13890000Y-9700000D03*
%TD*%
D81*
%TO.C,C66*%
X19660000Y-6650000D03*
D15*
X19161903Y-6693578D03*
%TD*%
D19*
%TO.C,R57*%
X18080000Y-9432500D03*
X18080000Y-9267500D03*
%TD*%
D56*
%TO.C,C14*%
X16260000Y-6217500D03*
X16260000Y-5922500D03*
%TD*%
D22*
%TO.C,U9*%
X15040000Y-7690500D03*
X15040000Y-7563500D03*
X15040000Y-7436500D03*
X15040000Y-7309500D03*
X14515000Y-7309500D03*
X14515000Y-7436500D03*
X14515000Y-7563500D03*
X14515000Y-7690500D03*
%TD*%
D41*
%TO.C,C17*%
X15280000Y-8672500D03*
X15280000Y-8827500D03*
%TD*%
D53*
%TO.C,T6*%
X10220000Y-6895000D03*
D57*
X10700000Y-6795000D03*
D58*
X10640000Y-5990000D03*
%TD*%
D41*
%TO.C,C32*%
X16930000Y-8552500D03*
X16930000Y-8707500D03*
%TD*%
D42*
%TO.C,C19*%
X16007500Y-8120000D03*
X15852500Y-8120000D03*
%TD*%
D41*
%TO.C,C22*%
X16190000Y-8592500D03*
X16190000Y-8747500D03*
%TD*%
D19*
%TO.C,R32*%
X17300000Y-8742500D03*
X17300000Y-8577500D03*
%TD*%
D24*
%TO.C,R24*%
X15362500Y-8970000D03*
X15197500Y-8970000D03*
%TD*%
D42*
%TO.C,C28*%
X15017500Y-7860000D03*
X14862500Y-7860000D03*
%TD*%
D34*
%TO.C,D16*%
X14580000Y-9210000D03*
X14980000Y-9210000D03*
%TD*%
D56*
%TO.C,C2*%
X18690000Y-8287500D03*
X18690000Y-7992500D03*
%TD*%
D30*
%TO.C,R10*%
X16457500Y-6610000D03*
X16622500Y-6610000D03*
%TD*%
D82*
%TO.C,U3*%
X17785000Y-8175000D03*
X17595000Y-8175000D03*
X17690000Y-8425000D03*
%TD*%
D19*
%TO.C,R28*%
X17120000Y-9112500D03*
X17120000Y-8947500D03*
%TD*%
D48*
%TO.C,J8*%
X10570000Y-5300000D03*
%TD*%
D30*
%TO.C,R35*%
X17567500Y-7690000D03*
X17732500Y-7690000D03*
%TD*%
D21*
%TO.C,H3*%
X18100000Y-7500000D03*
%TD*%
D41*
%TO.C,C23*%
X16020000Y-8592500D03*
X16020000Y-8747500D03*
%TD*%
D19*
%TO.C,R22*%
X16130000Y-9112500D03*
X16130000Y-8947500D03*
%TD*%
D46*
%TO.C,C38*%
X13062500Y-7860000D03*
X13217500Y-7860000D03*
%TD*%
D83*
%TO.C,L1*%
X18200000Y-6440000D03*
X17730000Y-6440000D03*
%TD*%
D41*
%TO.C,C24*%
X15840000Y-8592500D03*
X15840000Y-8747500D03*
%TD*%
D84*
%TO.C,J9*%
X12740000Y-5300000D03*
%TD*%
D24*
%TO.C,R16*%
X15582500Y-8690000D03*
X15417500Y-8690000D03*
%TD*%
D53*
%TO.C,T2*%
X12100000Y-8105000D03*
D54*
X11620000Y-8205000D03*
D55*
X11680000Y-9010000D03*
%TD*%
D29*
%TO.C,R34*%
X16670000Y-8947500D03*
X16670000Y-9112500D03*
%TD*%
%LPD*%
M02*
