M48
; DRILL file {KiCad 9.0.2} date 2025-07-16T05:03:17+0300
; FORMAT={-:-/ absolute / inch / decimal}
; #@! TF.CreationDate,2025-07-16T05:03:17+03:00
; #@! TF.GenerationSoftware,Kicad,Pcbnew,9.0.2
; #@! TF.FileFunction,MixedPlating,1,4
FMAT,2
INCH
; #@! TA.AperFunction,Plated,PTH,ComponentDrill
T1C0.0130
; #@! TA.AperFunction,Plated,PTH,ViaDrill
T2C0.0157
; #@! TA.AperFunction,Plated,PTH,ComponentDrill
T3C0.0236
; #@! TA.AperFunction,Plated,PTH,ComponentDrill
T4C0.0287
; #@! TA.AperFunction,Plated,PTH,ComponentDrill
T5C0.0394
; #@! TA.AperFunction,Plated,PTH,ComponentDrill
T6C0.0402
; #@! TA.AperFunction,Plated,PTH,ComponentDrill
T7C0.1181
; #@! TA.AperFunction,Plated,PTH,ComponentDrill
T8C0.1732
; #@! TA.AperFunction,NonPlated,NPTH,ComponentDrill
T9C0.0205
; #@! TA.AperFunction,NonPlated,NPTH,ComponentDrill
T10C0.0402
; #@! TA.AperFunction,NonPlated,NPTH,ComponentDrill
T11C0.0472
; #@! TA.AperFunction,NonPlated,NPTH,ComponentDrill
T12C0.1260
%
G90
G05
T1
X6.2047Y-2.6122
X6.2047Y-2.6634
X6.2559Y-2.6122
X6.2559Y-2.6634
X6.3071Y-2.6122
X6.3071Y-2.6634
T2
X4.0039Y-3.7598
X4.0157Y-3.0354
X4.0394Y-3.189
X4.0394Y-3.2362
X4.0394Y-3.2835
X4.0394Y-3.3307
X4.0394Y-3.378
X4.0394Y-3.4252
X4.0472Y-2.2992
X4.0472Y-2.3465
X4.0472Y-2.3937
X4.0551Y-2.5984
X4.063Y-3.0354
X4.063Y-3.5669
X4.0709Y-2.626
X4.0748Y-2.9213
X4.0866Y-2.5984
X4.0866Y-3.189
X4.0866Y-3.2362
X4.0866Y-3.2835
X4.0866Y-3.3307
X4.0866Y-3.378
X4.0866Y-3.4252
X4.0866Y-3.5354
X4.0945Y-2.2992
X4.0945Y-2.3465
X4.0945Y-2.3937
X4.1024Y-2.626
X4.1102Y-3.0354
X4.1102Y-3.5669
X4.1181Y-2.5984
X4.1339Y-2.626
X4.1339Y-3.189
X4.1339Y-3.2362
X4.1339Y-3.2835
X4.1339Y-3.3307
X4.1339Y-3.378
X4.1339Y-3.4252
X4.1339Y-3.5354
X4.1417Y-2.2992
X4.1417Y-2.3465
X4.1417Y-2.3937
X4.1496Y-2.5984
X4.1575Y-3.0354
X4.1575Y-3.5669
X4.1654Y-2.626
X4.1811Y-2.5984
X4.1811Y-3.2362
X4.1811Y-3.2835
X4.1811Y-3.3307
X4.1811Y-3.378
X4.1811Y-3.4252
X4.1811Y-3.5354
X4.189Y-2.2992
X4.189Y-2.3465
X4.189Y-2.3937
X4.189Y-2.9055
X4.189Y-3.189
X4.1969Y-2.626
X4.2047Y-2.8465
X4.2047Y-3.0354
X4.2047Y-3.5669
X4.2126Y-2.5984
X4.2283Y-2.626
X4.2283Y-3.189
X4.2283Y-3.2362
X4.2283Y-3.2835
X4.2283Y-3.3307
X4.2283Y-3.378
X4.2283Y-3.4252
X4.2283Y-3.5354
X4.2362Y-2.2992
X4.2362Y-2.3465
X4.2362Y-2.3937
X4.2441Y-2.5984
X4.252Y-3.5669
X4.2598Y-2.626
X4.2598Y-2.8465
X4.2756Y-2.5984
X4.2756Y-3.189
X4.2756Y-3.2362
X4.2756Y-3.2835
X4.2756Y-3.3307
X4.2756Y-3.378
X4.2756Y-3.4252
X4.2756Y-3.5354
X4.2835Y-2.2992
X4.2835Y-2.3465
X4.2835Y-2.3937
X4.2913Y-2.626
X4.2992Y-3.5669
X4.3071Y-2.5984
X4.3228Y-2.626
X4.3228Y-3.189
X4.3228Y-3.2362
X4.3228Y-3.2835
X4.3228Y-3.3307
X4.3228Y-3.378
X4.3228Y-3.4252
X4.3228Y-3.5354
X4.3307Y-2.2992
X4.3307Y-2.3465
X4.3307Y-2.3937
X4.3386Y-2.5984
X4.3465Y-3.5669
X4.3543Y-2.626
X4.3819Y-2.9449
X4.4409Y-2.3386
X4.4409Y-3.2756
X4.4567Y-3.3031
X4.4567Y-3.5118
X4.4567Y-3.5591
X4.4567Y-3.6063
X4.4646Y-2.3701
X4.4646Y-2.4803
X4.4646Y-2.5276
X4.4646Y-2.5748
X4.4646Y-2.622
X4.4646Y-2.6693
X4.4646Y-2.7165
X4.4724Y-3.2756
X4.4882Y-2.3386
X4.4882Y-3.3031
X4.5039Y-3.2756
X4.5039Y-3.5118
X4.5039Y-3.5591
X4.5039Y-3.6063
X4.5118Y-2.3701
X4.5118Y-2.4803
X4.5118Y-2.5276
X4.5118Y-2.5748
X4.5118Y-2.622
X4.5118Y-2.6693
X4.5118Y-2.7165
X4.5197Y-2.9528
X4.5197Y-3.0512
X4.5197Y-3.3031
X4.5354Y-2.3386
X4.5354Y-3.2756
X4.5512Y-3.3031
X4.5512Y-3.5118
X4.5512Y-3.5591
X4.5512Y-3.6063
X4.5591Y-2.3701
X4.5591Y-2.4803
X4.5591Y-2.5276
X4.5591Y-2.5748
X4.5591Y-2.622
X4.5591Y-2.6693
X4.5591Y-2.7165
X4.5669Y-3.2756
X4.5827Y-2.3386
X4.5827Y-2.8701
X4.5827Y-3.0512
X4.5827Y-3.3031
X4.5945Y-2.9882
X4.5984Y-3.2756
X4.5984Y-3.5118
X4.5984Y-3.5591
X4.5984Y-3.6063
X4.6063Y-2.3701
X4.6063Y-2.4803
X4.6063Y-2.5276
X4.6063Y-2.5748
X4.6063Y-2.622
X4.6063Y-2.6693
X4.6063Y-2.7165
X4.6142Y-3.3031
X4.6299Y-2.3386
X4.6299Y-2.8701
X4.6299Y-3.2756
X4.6457Y-3.3031
X4.6457Y-3.5118
X4.6457Y-3.5591
X4.6457Y-3.6063
X4.6535Y-2.3701
X4.6535Y-2.4803
X4.6535Y-2.5276
X4.6535Y-2.5748
X4.6535Y-2.622
X4.6535Y-2.6693
X4.6535Y-2.7165
X4.6614Y-3.2756
X4.6772Y-2.3386
X4.6772Y-2.8701
X4.6772Y-3.3031
X4.6929Y-3.2756
X4.6929Y-3.5118
X4.6929Y-3.5591
X4.6929Y-3.6063
X4.7008Y-2.3701
X4.7008Y-2.4803
X4.7008Y-2.5276
X4.7008Y-2.5748
X4.7008Y-2.622
X4.7008Y-2.6693
X4.7008Y-2.7165
X4.7087Y-3.3031
X4.7244Y-2.3386
X4.7244Y-2.8701
X4.7244Y-3.2756
X4.7402Y-3.3031
X4.7402Y-3.5118
X4.7402Y-3.5591
X4.7402Y-3.6063
X4.748Y-2.4803
X4.748Y-2.5276
X4.748Y-2.5748
X4.748Y-2.622
X4.748Y-2.6693
X4.748Y-2.7165
X4.7598Y-3.0118
X4.7717Y-2.8701
X4.8031Y-2.126
X4.8189Y-3.811
X4.8661Y-3.0354
X4.878Y-2.9016
X4.8819Y-3.189
X4.8819Y-3.2362
X4.8819Y-3.2835
X4.8819Y-3.3307
X4.8819Y-3.378
X4.8819Y-3.4252
X4.8898Y-2.2992
X4.8898Y-2.3465
X4.8898Y-2.3937
X4.8898Y-2.6024
X4.9055Y-2.6299
X4.9055Y-3.5669
X4.9134Y-3.0354
X4.9213Y-2.6024
X4.9291Y-3.189
X4.9291Y-3.2362
X4.9291Y-3.2835
X4.9291Y-3.3307
X4.9291Y-3.378
X4.9291Y-3.4252
X4.9291Y-3.5354
X4.937Y-2.2992
X4.937Y-2.3465
X4.937Y-2.3937
X4.937Y-2.6299
X4.9528Y-2.6024
X4.9528Y-3.5669
X4.9606Y-3.0354
X4.9685Y-2.6299
X4.9764Y-3.189
X4.9764Y-3.2362
X4.9764Y-3.2835
X4.9764Y-3.3307
X4.9764Y-3.378
X4.9764Y-3.4252
X4.9764Y-3.5354
X4.9843Y-2.2992
X4.9843Y-2.3465
X4.9843Y-2.3937
X4.9843Y-2.6024
X5.0Y-2.6299
X5.0Y-3.5669
X5.0079Y-3.0354
X5.0157Y-2.6024
X5.0236Y-3.189
X5.0236Y-3.2362
X5.0236Y-3.2835
X5.0236Y-3.3307
X5.0236Y-3.378
X5.0236Y-3.4252
X5.0236Y-3.5354
X5.0315Y-2.2992
X5.0315Y-2.3465
X5.0315Y-2.3937
X5.0315Y-2.6299
X5.0472Y-2.6024
X5.0472Y-2.9134
X5.0472Y-3.5669
X5.0551Y-2.8465
X5.0551Y-3.0354
X5.063Y-2.6299
X5.0709Y-3.189
X5.0709Y-3.2362
X5.0709Y-3.2835
X5.0709Y-3.3307
X5.0709Y-3.378
X5.0709Y-3.4252
X5.0709Y-3.5354
X5.0787Y-2.2992
X5.0787Y-2.3465
X5.0787Y-2.3937
X5.0787Y-2.6024
X5.0945Y-2.6299
X5.0945Y-3.5669
X5.1102Y-2.6024
X5.1181Y-2.8465
X5.1181Y-3.189
X5.1181Y-3.2362
X5.1181Y-3.2835
X5.1181Y-3.3307
X5.1181Y-3.378
X5.1181Y-3.4252
X5.1181Y-3.5354
X5.126Y-2.2992
X5.126Y-2.3465
X5.126Y-2.3937
X5.126Y-2.6299
X5.1417Y-2.6024
X5.1417Y-3.5669
X5.1575Y-2.6299
X5.1654Y-3.189
X5.1654Y-3.2362
X5.1654Y-3.2835
X5.1654Y-3.3307
X5.1654Y-3.378
X5.1654Y-3.4252
X5.1654Y-3.5354
X5.1732Y-2.2992
X5.1732Y-2.3465
X5.1732Y-2.3937
X5.1732Y-2.6024
X5.189Y-2.6299
X5.189Y-3.5669
X5.2303Y-2.9626
X5.2756Y-3.2756
X5.2835Y-2.3386
X5.2913Y-3.3031
X5.2992Y-3.5118
X5.2992Y-3.5591
X5.2992Y-3.6063
X5.3071Y-2.3701
X5.3071Y-2.4803
X5.3071Y-2.5276
X5.3071Y-2.5748
X5.3071Y-2.622
X5.3071Y-2.6693
X5.3071Y-2.7165
X5.3071Y-3.2756
X5.3228Y-3.3031
X5.3307Y-2.3386
X5.3386Y-3.2756
X5.3465Y-3.5118
X5.3465Y-3.5591
X5.3465Y-3.6063
X5.3543Y-2.3701
X5.3543Y-2.4803
X5.3543Y-2.5276
X5.3543Y-2.5748
X5.3543Y-2.622
X5.3543Y-2.6693
X5.3543Y-2.7165
X5.3543Y-3.3031
X5.3681Y-3.0591
X5.3701Y-3.2756
X5.374Y-2.9646
X5.378Y-2.3386
X5.3858Y-3.3031
X5.3937Y-3.5118
X5.3937Y-3.5591
X5.3937Y-3.6063
X5.4016Y-2.3701
X5.4016Y-2.4803
X5.4016Y-2.5276
X5.4016Y-2.5748
X5.4016Y-2.622
X5.4016Y-2.6693
X5.4016Y-2.7165
X5.4016Y-3.2756
X5.4173Y-3.3031
X5.4252Y-2.3386
X5.4252Y-2.8701
X5.4331Y-3.2756
X5.437Y-3.0591
X5.4409Y-3.5118
X5.4409Y-3.5591
X5.4409Y-3.6063
X5.4469Y-2.9941
X5.4488Y-2.3701
X5.4488Y-2.4803
X5.4488Y-2.5276
X5.4488Y-2.5748
X5.4488Y-2.622
X5.4488Y-2.6693
X5.4488Y-2.7165
X5.4488Y-3.3031
X5.4646Y-3.2756
X5.4724Y-2.3386
X5.4724Y-2.8701
X5.4803Y-3.3031
X5.4882Y-3.5118
X5.4882Y-3.5591
X5.4882Y-3.6063
X5.4961Y-2.3701
X5.4961Y-2.4803
X5.4961Y-2.5276
X5.4961Y-2.5748
X5.4961Y-2.622
X5.4961Y-2.6693
X5.4961Y-2.7165
X5.4961Y-3.2756
X5.5118Y-3.3031
X5.5197Y-2.3386
X5.5197Y-2.8701
X5.5276Y-3.2756
X5.5354Y-3.5118
X5.5354Y-3.563
X5.5354Y-3.6063
X5.5433Y-2.3701
X5.5433Y-2.4803
X5.5433Y-2.5276
X5.5433Y-2.5748
X5.5433Y-2.622
X5.5433Y-2.6693
X5.5433Y-2.7165
X5.5433Y-3.3031
X5.5591Y-3.2756
X5.5669Y-2.3386
X5.5669Y-2.8701
X5.5748Y-3.3031
X5.5827Y-3.5118
X5.5827Y-3.5591
X5.5827Y-3.6063
X5.5906Y-2.4803
X5.5906Y-2.5276
X5.5906Y-2.5748
X5.5906Y-2.622
X5.5906Y-2.6693
X5.5906Y-2.7165
X5.6142Y-2.8701
X5.748Y-2.5945
X5.7677Y-3.4764
X5.7717Y-2.0315
X5.7717Y-2.0866
X5.7756Y-3.311
X5.7795Y-2.4094
X5.7795Y-2.8976
X5.7795Y-2.9449
X5.7795Y-2.9882
X5.7874Y-2.5906
X5.7953Y-2.3622
X5.815Y-3.5787
X5.8307Y-2.8976
X5.8386Y-3.3071
X5.8504Y-2.6339
X5.8543Y-2.0276
X5.8583Y-2.0827
X5.8583Y-2.1299
X5.8583Y-2.1811
X5.8661Y-2.939
X5.8661Y-2.9882
X5.874Y-3.2677
X5.878Y-3.2008
X5.8858Y-2.7165
X5.8976Y-3.626
X5.9567Y-2.685
X5.9803Y-2.1614
X5.9803Y-2.9528
X5.9803Y-3.2441
X5.9843Y-3.1535
X6.0157Y-2.6063
X6.0315Y-3.6299
X6.063Y-2.3858
X6.0669Y-2.1063
X6.0669Y-2.2559
X6.0709Y-3.4882
X6.0768Y-3.122
X6.1024Y-2.5827
X6.1024Y-2.6969
X6.1142Y-3.4882
X6.1496Y-2.2047
X6.2047Y-3.4803
X6.2205Y-3.5551
X6.2283Y-3.0906
X6.2323Y-2.7244
X6.2559Y-2.3898
X6.2559Y-2.4173
X6.2677Y-3.1575
X6.2795Y-2.7244
X6.2795Y-3.2874
X6.2953Y-3.4843
X6.3318Y-2.7244
X6.374Y-3.4843
X6.3976Y-2.9134
X6.3976Y-3.2559
X6.3976Y-3.5512
X6.4016Y-2.2598
X6.4016Y-2.3898
X6.4055Y-2.5827
X6.4055Y-2.6969
X6.4252Y-3.1811
X6.4331Y-3.4567
X6.4449Y-2.9646
X6.4646Y-2.4803
X6.4685Y-3.1378
X6.4685Y-3.1811
X6.4803Y-2.4567
X6.4921Y-2.7319
X6.4921Y-2.8189
X6.4921Y-2.9843
X6.4961Y-2.4803
X6.5118Y-2.4567
X6.5118Y-3.1378
X6.5118Y-3.1811
X6.5276Y-2.4803
X6.5315Y-3.4882
X6.5354Y-2.7323
X6.5354Y-2.9843
X6.5394Y-2.0472
X6.5394Y-2.0866
X6.5394Y-2.122
X6.5748Y-3.4882
X6.5787Y-2.7323
X6.5787Y-2.9838
X6.5827Y-3.0413
X6.622Y-2.7323
X6.622Y-2.9843
X6.622Y-3.1378
X6.622Y-3.1811
X6.622Y-3.4882
X6.6732Y-2.8819
X6.6811Y-3.2165
X6.6811Y-3.4882
X6.7205Y-2.9213
X6.7323Y-2.7323
X6.7559Y-2.9567
X6.7559Y-3.3189
X6.7638Y-3.0551
X6.7913Y-2.9882
X6.7953Y-3.3189
X6.815Y-2.813
X6.8386Y-3.2874
X6.9094Y-2.0472
X6.9252Y-3.248
X6.9252Y-3.2795
X6.9646Y-2.9803
X6.9764Y-2.6772
X6.9843Y-2.2756
X6.9882Y-2.1181
X6.9961Y-2.8189
X6.9961Y-2.8504
X7.0197Y-2.8307
X7.0197Y-3.2717
X7.0276Y-3.0787
X7.0669Y-2.0472
X7.0709Y-3.1693
X7.0748Y-2.626
X7.0787Y-3.5787
X7.0866Y-2.374
X7.0945Y-2.1811
X7.1043Y-2.7756
X7.1181Y-2.7087
X7.1181Y-2.7972
X7.126Y-3.1693
X7.1319Y-2.7756
X7.1476Y-2.7972
X7.1535Y-2.063
X7.1634Y-2.7756
X7.1693Y-3.126
X7.1791Y-2.7972
X7.1949Y-2.7756
X7.2106Y-2.7972
X7.2283Y-2.126
X7.2283Y-3.2008
X7.2362Y-2.6969
X7.2362Y-3.7087
X7.2382Y-2.813
X7.248Y-3.0512
X7.2953Y-3.126
X7.3031Y-2.063
X7.315Y-3.5197
X7.3268Y-2.189
X7.3504Y-2.6339
X7.3583Y-3.1969
X7.4094Y-3.5039
X7.4094Y-3.5315
X7.4291Y-2.4055
X7.4606Y-2.4055
X7.4921Y-2.4055
X7.6496Y-2.4646
X7.6496Y-2.5394
X7.6496Y-3.3661
X7.6496Y-3.4409
X7.6732Y-2.5
X7.6732Y-3.4016
X7.6929Y-2.4646
X7.6929Y-2.5394
X7.6929Y-3.3661
X7.6929Y-3.4409
X7.7165Y-2.5
X7.7165Y-3.4016
X7.7362Y-2.4646
X7.7362Y-2.5394
X7.7362Y-3.3661
X7.7362Y-3.4409
X7.7638Y-2.5
X7.7638Y-3.4016
X7.7835Y-2.4646
X7.7835Y-2.5394
X7.7835Y-3.3661
X7.7835Y-3.4409
X7.8071Y-2.5
X7.8071Y-3.4016
X7.8268Y-2.4646
X7.8268Y-2.5394
X7.8268Y-3.3661
X7.8268Y-3.4409
T4
X5.7402Y-3.8307
X5.7992Y-3.8307
X5.8583Y-3.8307
X5.9173Y-3.8307
X5.9764Y-3.8307
X6.0354Y-2.939
X6.0945Y-2.939
X6.1535Y-2.939
X6.1575Y-3.6811
X6.1575Y-3.7402
X6.1575Y-3.7992
X6.1575Y-3.8583
X6.2126Y-2.939
X6.3307Y-3.6811
X6.3307Y-3.7402
X6.3307Y-3.7992
X6.3307Y-3.8583
X6.5039Y-3.6811
X6.5039Y-3.7402
X6.5039Y-3.7992
X6.5039Y-3.8583
X6.6772Y-3.6811
X6.6772Y-3.7402
X6.6772Y-3.7992
X6.6772Y-3.8583
X6.8504Y-3.6811
X6.8504Y-3.7402
X6.8504Y-3.7992
X6.8504Y-3.8583
X7.0236Y-3.7402
X7.0236Y-3.7992
X7.0236Y-3.8583
X7.1693Y-3.8287
X7.2283Y-3.8287
X7.2874Y-3.8287
T5
X6.3268Y-2.0866
X6.3268Y-2.185
X7.5433Y-2.2047
X7.5433Y-3.7008
X7.5441Y-2.6353
X7.5441Y-3.2702
X7.7402Y-2.2047
X7.7402Y-2.6181
X7.7402Y-3.2874
X7.7402Y-3.7008
T6
X6.5984Y-2.0866
X6.5984Y-2.2047
X6.7165Y-2.0866
X6.7165Y-2.2047
T7
X4.1614Y-2.0866
X4.3622Y-2.0866
X4.4134Y-3.8189
X4.6142Y-3.8189
X5.0157Y-2.0866
X5.2165Y-2.0866
X5.2677Y-3.8189
X5.4685Y-3.8189
T8
X7.4016Y-2.9528
X7.7244Y-2.9528
T9
X6.065Y-2.0335
X6.065Y-2.3287
T10
X6.4803Y-2.2417
X6.8346Y-2.2417
T11
X6.248Y-2.0236
T12
X4.189Y-3.7992
X4.5945Y-2.1063
X5.0354Y-3.7992
X5.4409Y-2.1063
X7.126Y-2.9528
T3
X5.9803Y-2.0915G85X5.9803Y-2.0817
G05
X5.9803Y-2.2805G85X5.9803Y-2.2707
G05
X6.1496Y-2.0915G85X6.1496Y-2.0817
G05
X6.1496Y-2.2805G85X6.1496Y-2.2707
G05
M30
