%TF.GenerationSoftware,KiCad,Pcbnew,9.0.2*%
%TF.CreationDate,2025-07-16T05:03:17+03:00*%
%TF.ProjectId,dcesc-ga25,64636573-632d-4676-9132-352e6b696361,rev?*%
%TF.SameCoordinates,Original*%
%TF.FileFunction,Legend,Bot*%
%TF.FilePolarity,Positive*%
%FSLAX45Y45*%
G04 Gerber Fmt 4.5, Leading zero omitted, Abs format (unit mm)*
G04 Created by KiCad (PCBNEW 9.0.2) date 2025-07-16 05:03:17*
%MOMM*%
%LPD*%
G01*
G04 APERTURE LIST*
G04 Aperture macros list*
%AMRoundRect*
0 Rectangle with rounded corners*
0 $1 Rounding radius*
0 $2 $3 $4 $5 $6 $7 $8 $9 X,Y pos of 4 corners*
0 Add a 4 corners polygon primitive as box body*
4,1,4,$2,$3,$4,$5,$6,$7,$8,$9,$2,$3,0*
0 Add four circle primitives for the rounded corners*
1,1,$1+$1,$2,$3*
1,1,$1+$1,$4,$5*
1,1,$1+$1,$6,$7*
1,1,$1+$1,$8,$9*
0 Add four rect primitives between the rounded corners*
20,1,$1+$1,$2,$3,$4,$5,0*
20,1,$1+$1,$4,$5,$6,$7,0*
20,1,$1+$1,$6,$7,$8,$9,0*
20,1,$1+$1,$8,$9,$2,$3,0*%
%AMFreePoly0*
4,1,23,0.500000,-0.750000,0.000000,-0.750000,0.000000,-0.745722,-0.065263,-0.745722,-0.191342,-0.711940,-0.304381,-0.646677,-0.396677,-0.554381,-0.461940,-0.441342,-0.495722,-0.315263,-0.495722,-0.250000,-0.500000,-0.250000,-0.500000,0.250000,-0.495722,0.250000,-0.495722,0.315263,-0.461940,0.441342,-0.396677,0.554381,-0.304381,0.646677,-0.191342,0.711940,-0.065263,0.745722,0.000000,0.745722,
0.000000,0.750000,0.500000,0.750000,0.500000,-0.750000,0.500000,-0.750000,$1*%
%AMFreePoly1*
4,1,23,0.000000,0.745722,0.065263,0.745722,0.191342,0.711940,0.304381,0.646677,0.396677,0.554381,0.461940,0.441342,0.495722,0.315263,0.495722,0.250000,0.500000,0.250000,0.500000,-0.250000,0.495722,-0.250000,0.495722,-0.315263,0.461940,-0.441342,0.396677,-0.554381,0.304381,-0.646677,0.191342,-0.711940,0.065263,-0.745722,0.000000,-0.745722,0.000000,-0.750000,-0.500000,-0.750000,
-0.500000,0.750000,0.000000,0.750000,0.000000,0.745722,0.000000,0.745722,$1*%
G04 Aperture macros list end*
%ADD10C,0.200000*%
%ADD11C,0.300000*%
%ADD12C,0.120000*%
%ADD13C,0.100000*%
%ADD14C,0.400000*%
%ADD15RoundRect,1.000000X0.000010X0.000010X-0.000010X0.000010X-0.000010X-0.000010X0.000010X-0.000010X0*%
%ADD16C,2.000000*%
%ADD17RoundRect,2.249998X-1.250002X-1.250002X1.250002X-1.250002X1.250002X1.250002X-1.250002X1.250002X0*%
%ADD18C,3.200000*%
%ADD19RoundRect,0.250000X-0.265000X-0.615000X0.265000X-0.615000X0.265000X0.615000X-0.265000X0.615000X0*%
%ADD20O,1.030000X1.730000*%
%ADD21C,1.020000*%
%ADD22RoundRect,0.250001X-0.499999X-0.499999X0.499999X-0.499999X0.499999X0.499999X-0.499999X0.499999X0*%
%ADD23C,1.500000*%
%ADD24RoundRect,1.400000X0.800000X-0.800000X0.800000X0.800000X-0.800000X0.800000X-0.800000X-0.800000X0*%
%ADD25RoundRect,0.250000X-0.615000X0.265000X-0.615000X-0.265000X0.615000X-0.265000X0.615000X0.265000X0*%
%ADD26O,1.730000X1.030000*%
%ADD27C,0.770000*%
%ADD28C,0.520000*%
%ADD29O,1.100000X2.200000*%
%ADD30C,1.200000*%
%ADD31RoundRect,0.250000X-0.750000X0.600000X-0.750000X-0.600000X0.750000X-0.600000X0.750000X0.600000X0*%
%ADD32O,2.000000X1.700000*%
%ADD33RoundRect,2.559998X-0.940002X-0.940002X0.940002X-0.940002X0.940002X0.940002X-0.940002X0.940002X0*%
%ADD34RoundRect,1.000000X0.000011X0.000009X-0.000009X0.000011X-0.000011X-0.000009X0.000009X-0.000011X0*%
%ADD35RoundRect,1.000000X0.000009X0.000011X-0.000011X0.000009X-0.000009X-0.000011X0.000011X-0.000009X0*%
%ADD36RoundRect,1.400000X-0.800000X0.800000X-0.800000X-0.800000X0.800000X-0.800000X0.800000X0.800000X0*%
%ADD37FreePoly0,0.000000*%
%ADD38FreePoly1,0.000000*%
%ADD39FreePoly0,180.000000*%
%ADD40FreePoly1,180.000000*%
G04 APERTURE END LIST*
D10*
X11195000Y-7150000D02*
X11415000Y-7150000D01*
X11495000Y-7150000D02*
X11499000Y-7150000D01*
X11579000Y-7150000D02*
X11583000Y-7150000D01*
X11663000Y-7150000D02*
X11883000Y-7150000D01*
X11963000Y-7150000D02*
X11967000Y-7150000D01*
X12047000Y-7150000D02*
X12051000Y-7150000D01*
X12131000Y-7150000D02*
X12265000Y-7150000D01*
X12210000Y-7850000D02*
X12430000Y-7850000D01*
X12510000Y-7850000D02*
X12514000Y-7850000D01*
X12594000Y-7850000D02*
X12598000Y-7850000D01*
X12678000Y-7850000D02*
X12898000Y-7850000D01*
X12978000Y-7850000D02*
X12982000Y-7850000D01*
X13062000Y-7850000D02*
X13066000Y-7850000D01*
X13146000Y-7850000D02*
X13280000Y-7850000D01*
X11170000Y-7700000D02*
X11390000Y-7700000D01*
X11470000Y-7700000D02*
X11474000Y-7700000D01*
X11554000Y-7700000D02*
X11558000Y-7700000D01*
X11638000Y-7700000D02*
X11858000Y-7700000D01*
X11938000Y-7700000D02*
X11942000Y-7700000D01*
X12022000Y-7700000D02*
X12026000Y-7700000D01*
X12106000Y-7700000D02*
X12326000Y-7700000D01*
X12406000Y-7700000D02*
X12410000Y-7700000D01*
X12490000Y-7700000D02*
X12494000Y-7700000D01*
X12574000Y-7700000D02*
X12794000Y-7700000D01*
X12874000Y-7700000D02*
X12878000Y-7700000D01*
X12958000Y-7700000D02*
X12962000Y-7700000D01*
X13042000Y-7700000D02*
X13262000Y-7700000D01*
X13342000Y-7700000D02*
X13346000Y-7700000D01*
X13426000Y-7700000D02*
X13430000Y-7700000D01*
X13510000Y-7700000D02*
X13730000Y-7700000D01*
X13810000Y-7700000D02*
X13814000Y-7700000D01*
X13894000Y-7700000D02*
X13898000Y-7700000D01*
X13978000Y-7700000D02*
X14198000Y-7700000D01*
X14278000Y-7700000D02*
X14282000Y-7700000D01*
X14362000Y-7700000D02*
X14366000Y-7700000D01*
X14446000Y-7700000D02*
X14666000Y-7700000D01*
X14746000Y-7700000D02*
X14750000Y-7700000D01*
X14830000Y-7700000D02*
X14834000Y-7700000D01*
X14914000Y-7700000D02*
X15134000Y-7700000D01*
X15214000Y-7700000D02*
X15218000Y-7700000D01*
X15298000Y-7700000D02*
X15302000Y-7700000D01*
X15382000Y-7700000D02*
X15602000Y-7700000D01*
X15682000Y-7700000D02*
X15686000Y-7700000D01*
X15766000Y-7700000D02*
X15770000Y-7700000D01*
X15850000Y-7700000D02*
X16070000Y-7700000D01*
X16150000Y-7700000D02*
X16154000Y-7700000D01*
X16234000Y-7700000D02*
X16238000Y-7700000D01*
X16318000Y-7700000D02*
X16538000Y-7700000D01*
X16618000Y-7700000D02*
X16622000Y-7700000D01*
X16702000Y-7700000D02*
X16706000Y-7700000D01*
X16786000Y-7700000D02*
X17006000Y-7700000D01*
X17086000Y-7700000D02*
X17090000Y-7700000D01*
X17170000Y-7700000D02*
X17174000Y-7700000D01*
X17254000Y-7700000D02*
X17474000Y-7700000D01*
X17554000Y-7700000D02*
X17558000Y-7700000D01*
X17638000Y-7700000D02*
X17642000Y-7700000D01*
X17722000Y-7700000D02*
X17942000Y-7700000D01*
X18022000Y-7700000D02*
X18026000Y-7700000D01*
X18106000Y-7700000D02*
X18110000Y-7700000D01*
X18190000Y-7700000D02*
X18410000Y-7700000D01*
X18490000Y-7700000D02*
X18494000Y-7700000D01*
X18574000Y-7700000D02*
X18578000Y-7700000D01*
X18658000Y-7700000D02*
X18700000Y-7700000D01*
X18700000Y-7700000D02*
X18700000Y-7920000D01*
X18700000Y-8000000D02*
X18700000Y-8000000D01*
X18700000Y-8000000D02*
X18480000Y-8000000D01*
X18400000Y-8000000D02*
X18396000Y-8000000D01*
X18316000Y-8000000D02*
X18312000Y-8000000D01*
X18232000Y-8000000D02*
X18012000Y-8000000D01*
X17932000Y-8000000D02*
X17928000Y-8000000D01*
X17848000Y-8000000D02*
X17844000Y-8000000D01*
X17764000Y-8000000D02*
X17544000Y-8000000D01*
X17464000Y-8000000D02*
X17460000Y-8000000D01*
X17380000Y-8000000D02*
X17376000Y-8000000D01*
X17296000Y-8000000D02*
X17076000Y-8000000D01*
X16996000Y-8000000D02*
X16992000Y-8000000D01*
X16912000Y-8000000D02*
X16908000Y-8000000D01*
X16828000Y-8000000D02*
X16608000Y-8000000D01*
X16528000Y-8000000D02*
X16524000Y-8000000D01*
X16444000Y-8000000D02*
X16440000Y-8000000D01*
X16360000Y-8000000D02*
X16140000Y-8000000D01*
X16060000Y-8000000D02*
X16056000Y-8000000D01*
X15976000Y-8000000D02*
X15972000Y-8000000D01*
X15892000Y-8000000D02*
X15672000Y-8000000D01*
X15592000Y-8000000D02*
X15588000Y-8000000D01*
X15508000Y-8000000D02*
X15504000Y-8000000D01*
X15424000Y-8000000D02*
X15204000Y-8000000D01*
X15124000Y-8000000D02*
X15120000Y-8000000D01*
X15040000Y-8000000D02*
X15036000Y-8000000D01*
X14956000Y-8000000D02*
X14736000Y-8000000D01*
X14656000Y-8000000D02*
X14652000Y-8000000D01*
X14572000Y-8000000D02*
X14568000Y-8000000D01*
X14488000Y-8000000D02*
X14268000Y-8000000D01*
X14188000Y-8000000D02*
X14184000Y-8000000D01*
X14104000Y-8000000D02*
X14100000Y-8000000D01*
X14020000Y-8000000D02*
X13800000Y-8000000D01*
X13720000Y-8000000D02*
X13716000Y-8000000D01*
X13636000Y-8000000D02*
X13632000Y-8000000D01*
X13552000Y-8000000D02*
X13332000Y-8000000D01*
X13252000Y-8000000D02*
X13248000Y-8000000D01*
X13168000Y-8000000D02*
X13164000Y-8000000D01*
X13084000Y-8000000D02*
X12864000Y-8000000D01*
X12784000Y-8000000D02*
X12780000Y-8000000D01*
X12700000Y-8000000D02*
X12696000Y-8000000D01*
X12616000Y-8000000D02*
X12396000Y-8000000D01*
X12316000Y-8000000D02*
X12312000Y-8000000D01*
X12232000Y-8000000D02*
X12228000Y-8000000D01*
X12148000Y-8000000D02*
X11928000Y-8000000D01*
X11848000Y-8000000D02*
X11844000Y-8000000D01*
X11764000Y-8000000D02*
X11760000Y-8000000D01*
X11680000Y-8000000D02*
X11460000Y-8000000D01*
X11380000Y-8000000D02*
X11376000Y-8000000D01*
X11296000Y-8000000D02*
X11292000Y-8000000D01*
X11212000Y-8000000D02*
X11170000Y-8000000D01*
X11170000Y-8000000D02*
X11170000Y-7780000D01*
X11170000Y-7700000D02*
X11170000Y-7700000D01*
X13300000Y-8650000D02*
X13520000Y-8650000D01*
X13600000Y-8650000D02*
X13604000Y-8650000D01*
X13684000Y-8650000D02*
X13688000Y-8650000D01*
X13768000Y-8650000D02*
X13988000Y-8650000D01*
X14068000Y-8650000D02*
X14072000Y-8650000D01*
X14152000Y-8650000D02*
X14156000Y-8650000D01*
X14236000Y-8650000D02*
X14456000Y-8650000D01*
X14536000Y-8650000D02*
X14540000Y-8650000D01*
X14620000Y-8650000D02*
X14624000Y-8650000D01*
X14704000Y-8650000D02*
X14924000Y-8650000D01*
X15004000Y-8650000D02*
X15008000Y-8650000D01*
X15088000Y-8650000D02*
X15092000Y-8650000D01*
X15172000Y-8650000D02*
X15392000Y-8650000D01*
X15472000Y-8650000D02*
X15476000Y-8650000D01*
X15556000Y-8650000D02*
X15560000Y-8650000D01*
X15640000Y-8650000D02*
X15860000Y-8650000D01*
X15940000Y-8650000D02*
X15944000Y-8650000D01*
X16024000Y-8650000D02*
X16028000Y-8650000D01*
X16108000Y-8650000D02*
X16328000Y-8650000D01*
X16408000Y-8650000D02*
X16412000Y-8650000D01*
X16492000Y-8650000D02*
X16496000Y-8650000D01*
X16576000Y-8650000D02*
X16796000Y-8650000D01*
X16876000Y-8650000D02*
X16880000Y-8650000D01*
X16960000Y-8650000D02*
X16964000Y-8650000D01*
X17044000Y-8650000D02*
X17264000Y-8650000D01*
X17344000Y-8650000D02*
X17348000Y-8650000D01*
X17428000Y-8650000D02*
X17432000Y-8650000D01*
X17512000Y-8650000D02*
X17732000Y-8650000D01*
X17812000Y-8650000D02*
X17816000Y-8650000D01*
X17896000Y-8650000D02*
X17900000Y-8650000D01*
X17980000Y-8650000D02*
X18200000Y-8650000D01*
X18280000Y-8650000D02*
X18284000Y-8650000D01*
X18364000Y-8650000D02*
X18368000Y-8650000D01*
X18448000Y-8650000D02*
X18668000Y-8650000D01*
X18748000Y-8650000D02*
X18752000Y-8650000D01*
X18832000Y-8650000D02*
X18836000Y-8650000D01*
X18916000Y-8650000D02*
X18940000Y-8650000D01*
X11175000Y-6200000D02*
X11395000Y-6200000D01*
X11475000Y-6200000D02*
X11479000Y-6200000D01*
X11559000Y-6200000D02*
X11563000Y-6200000D01*
X11643000Y-6200000D02*
X11863000Y-6200000D01*
X11943000Y-6200000D02*
X11947000Y-6200000D01*
X12027000Y-6200000D02*
X12031000Y-6200000D01*
X12111000Y-6200000D02*
X12331000Y-6200000D01*
X12411000Y-6200000D02*
X12415000Y-6200000D01*
X12495000Y-6200000D02*
X12499000Y-6200000D01*
X12579000Y-6200000D02*
X12799000Y-6200000D01*
X12879000Y-6200000D02*
X12883000Y-6200000D01*
X12963000Y-6200000D02*
X12967000Y-6200000D01*
X13047000Y-6200000D02*
X13267000Y-6200000D01*
X13347000Y-6200000D02*
X13351000Y-6200000D01*
X13431000Y-6200000D02*
X13435000Y-6200000D01*
X13515000Y-6200000D02*
X13735000Y-6200000D01*
X13815000Y-6200000D02*
X13819000Y-6200000D01*
X13899000Y-6200000D02*
X13903000Y-6200000D01*
X13983000Y-6200000D02*
X14203000Y-6200000D01*
X14283000Y-6200000D02*
X14287000Y-6200000D01*
X14367000Y-6200000D02*
X14371000Y-6200000D01*
X14451000Y-6200000D02*
X14671000Y-6200000D01*
X14751000Y-6200000D02*
X14755000Y-6200000D01*
X14835000Y-6200000D02*
X14839000Y-6200000D01*
X14919000Y-6200000D02*
X15139000Y-6200000D01*
X15219000Y-6200000D02*
X15223000Y-6200000D01*
X15303000Y-6200000D02*
X15307000Y-6200000D01*
X15387000Y-6200000D02*
X15607000Y-6200000D01*
X15687000Y-6200000D02*
X15691000Y-6200000D01*
X15771000Y-6200000D02*
X15775000Y-6200000D01*
X15855000Y-6200000D02*
X16075000Y-6200000D01*
X16155000Y-6200000D02*
X16159000Y-6200000D01*
X16239000Y-6200000D02*
X16243000Y-6200000D01*
X16323000Y-6200000D02*
X16543000Y-6200000D01*
X16623000Y-6200000D02*
X16627000Y-6200000D01*
X16707000Y-6200000D02*
X16711000Y-6200000D01*
X16791000Y-6200000D02*
X17011000Y-6200000D01*
X17091000Y-6200000D02*
X17095000Y-6200000D01*
X17175000Y-6200000D02*
X17179000Y-6200000D01*
X17259000Y-6200000D02*
X17479000Y-6200000D01*
X17559000Y-6200000D02*
X17563000Y-6200000D01*
X17643000Y-6200000D02*
X17647000Y-6200000D01*
X17727000Y-6200000D02*
X17947000Y-6200000D01*
X18027000Y-6200000D02*
X18031000Y-6200000D01*
X18111000Y-6200000D02*
X18115000Y-6200000D01*
X18195000Y-6200000D02*
X18415000Y-6200000D01*
X18495000Y-6200000D02*
X18499000Y-6200000D01*
X18579000Y-6200000D02*
X18583000Y-6200000D01*
X18663000Y-6200000D02*
X18883000Y-6200000D01*
X18963000Y-6200000D02*
X18967000Y-6200000D01*
X19047000Y-6200000D02*
X19051000Y-6200000D01*
X19131000Y-6200000D02*
X19351000Y-6200000D01*
X19431000Y-6200000D02*
X19435000Y-6200000D01*
X19515000Y-6200000D02*
X19519000Y-6200000D01*
X19599000Y-6200000D02*
X19819000Y-6200000D01*
X19899000Y-6200000D02*
X19903000Y-6200000D01*
X19925000Y-6200000D02*
X19925000Y-6420000D01*
X19925000Y-6500000D02*
X19925000Y-6500000D01*
X19925000Y-6500000D02*
X19705000Y-6500000D01*
X19625000Y-6500000D02*
X19621000Y-6500000D01*
X19541000Y-6500000D02*
X19537000Y-6500000D01*
X19457000Y-6500000D02*
X19237000Y-6500000D01*
X19157000Y-6500000D02*
X19153000Y-6500000D01*
X19073000Y-6500000D02*
X19069000Y-6500000D01*
X18989000Y-6500000D02*
X18769000Y-6500000D01*
X18689000Y-6500000D02*
X18685000Y-6500000D01*
X18605000Y-6500000D02*
X18601000Y-6500000D01*
X18521000Y-6500000D02*
X18301000Y-6500000D01*
X18221000Y-6500000D02*
X18217000Y-6500000D01*
X18137000Y-6500000D02*
X18133000Y-6500000D01*
X18053000Y-6500000D02*
X17833000Y-6500000D01*
X17753000Y-6500000D02*
X17749000Y-6500000D01*
X17669000Y-6500000D02*
X17665000Y-6500000D01*
X17585000Y-6500000D02*
X17365000Y-6500000D01*
X17285000Y-6500000D02*
X17281000Y-6500000D01*
X17201000Y-6500000D02*
X17197000Y-6500000D01*
X17117000Y-6500000D02*
X16897000Y-6500000D01*
X16817000Y-6500000D02*
X16813000Y-6500000D01*
X16733000Y-6500000D02*
X16729000Y-6500000D01*
X16649000Y-6500000D02*
X16429000Y-6500000D01*
X16349000Y-6500000D02*
X16345000Y-6500000D01*
X16265000Y-6500000D02*
X16261000Y-6500000D01*
X16181000Y-6500000D02*
X15961000Y-6500000D01*
X15881000Y-6500000D02*
X15877000Y-6500000D01*
X15797000Y-6500000D02*
X15793000Y-6500000D01*
X15713000Y-6500000D02*
X15493000Y-6500000D01*
X15413000Y-6500000D02*
X15409000Y-6500000D01*
X15329000Y-6500000D02*
X15325000Y-6500000D01*
X15245000Y-6500000D02*
X15025000Y-6500000D01*
X14945000Y-6500000D02*
X14941000Y-6500000D01*
X14861000Y-6500000D02*
X14857000Y-6500000D01*
X14777000Y-6500000D02*
X14557000Y-6500000D01*
X14477000Y-6500000D02*
X14473000Y-6500000D01*
X14393000Y-6500000D02*
X14389000Y-6500000D01*
X14309000Y-6500000D02*
X14089000Y-6500000D01*
X14009000Y-6500000D02*
X14005000Y-6500000D01*
X13925000Y-6500000D02*
X13921000Y-6500000D01*
X13841000Y-6500000D02*
X13621000Y-6500000D01*
X13541000Y-6500000D02*
X13537000Y-6500000D01*
X13457000Y-6500000D02*
X13453000Y-6500000D01*
X13373000Y-6500000D02*
X13153000Y-6500000D01*
X13073000Y-6500000D02*
X13069000Y-6500000D01*
X12989000Y-6500000D02*
X12985000Y-6500000D01*
X12905000Y-6500000D02*
X12685000Y-6500000D01*
X12605000Y-6500000D02*
X12601000Y-6500000D01*
X12521000Y-6500000D02*
X12517000Y-6500000D01*
X12437000Y-6500000D02*
X12217000Y-6500000D01*
X12137000Y-6500000D02*
X12133000Y-6500000D01*
X12053000Y-6500000D02*
X12049000Y-6500000D01*
X11969000Y-6500000D02*
X11749000Y-6500000D01*
X11669000Y-6500000D02*
X11665000Y-6500000D01*
X11585000Y-6500000D02*
X11581000Y-6500000D01*
X11501000Y-6500000D02*
X11281000Y-6500000D01*
X11201000Y-6500000D02*
X11197000Y-6500000D01*
X11175000Y-6500000D02*
X11175000Y-6280000D01*
X11175000Y-6200000D02*
X11175000Y-6200000D01*
X10180000Y-7000000D02*
X10400000Y-7000000D01*
X10480000Y-7000000D02*
X10484000Y-7000000D01*
X10564000Y-7000000D02*
X10568000Y-7000000D01*
X10648000Y-7000000D02*
X10868000Y-7000000D01*
X10948000Y-7000000D02*
X10952000Y-7000000D01*
X11032000Y-7000000D02*
X11036000Y-7000000D01*
X11116000Y-7000000D02*
X11336000Y-7000000D01*
X11416000Y-7000000D02*
X11420000Y-7000000D01*
X11500000Y-7000000D02*
X11504000Y-7000000D01*
X11584000Y-7000000D02*
X11804000Y-7000000D01*
X11884000Y-7000000D02*
X11888000Y-7000000D01*
X11968000Y-7000000D02*
X11972000Y-7000000D01*
X12052000Y-7000000D02*
X12272000Y-7000000D01*
X12352000Y-7000000D02*
X12356000Y-7000000D01*
X12436000Y-7000000D02*
X12440000Y-7000000D01*
X12520000Y-7000000D02*
X12740000Y-7000000D01*
X12820000Y-7000000D02*
X12824000Y-7000000D01*
X12904000Y-7000000D02*
X12908000Y-7000000D01*
X12988000Y-7000000D02*
X13208000Y-7000000D01*
X13288000Y-7000000D02*
X13292000Y-7000000D01*
X13372000Y-7000000D02*
X13376000Y-7000000D01*
X13456000Y-7000000D02*
X13676000Y-7000000D01*
X13756000Y-7000000D02*
X13760000Y-7000000D01*
X13840000Y-7000000D02*
X13844000Y-7000000D01*
X13924000Y-7000000D02*
X14144000Y-7000000D01*
X14224000Y-7000000D02*
X14228000Y-7000000D01*
X14308000Y-7000000D02*
X14312000Y-7000000D01*
X14392000Y-7000000D02*
X14612000Y-7000000D01*
X14692000Y-7000000D02*
X14696000Y-7000000D01*
X14776000Y-7000000D02*
X14780000Y-7000000D01*
X14860000Y-7000000D02*
X15080000Y-7000000D01*
X15160000Y-7000000D02*
X15164000Y-7000000D01*
X15244000Y-7000000D02*
X15248000Y-7000000D01*
X15328000Y-7000000D02*
X15548000Y-7000000D01*
X15628000Y-7000000D02*
X15632000Y-7000000D01*
X15712000Y-7000000D02*
X15716000Y-7000000D01*
X15796000Y-7000000D02*
X16016000Y-7000000D01*
X16096000Y-7000000D02*
X16100000Y-7000000D01*
X16180000Y-7000000D02*
X16184000Y-7000000D01*
X16264000Y-7000000D02*
X16484000Y-7000000D01*
X16564000Y-7000000D02*
X16568000Y-7000000D01*
X16648000Y-7000000D02*
X16652000Y-7000000D01*
X16732000Y-7000000D02*
X16952000Y-7000000D01*
X17032000Y-7000000D02*
X17036000Y-7000000D01*
X17116000Y-7000000D02*
X17120000Y-7000000D01*
X17200000Y-7000000D02*
X17420000Y-7000000D01*
X17500000Y-7000000D02*
X17504000Y-7000000D01*
X17584000Y-7000000D02*
X17588000Y-7000000D01*
X17668000Y-7000000D02*
X17888000Y-7000000D01*
X17968000Y-7000000D02*
X17972000Y-7000000D01*
X18052000Y-7000000D02*
X18056000Y-7000000D01*
X18136000Y-7000000D02*
X18356000Y-7000000D01*
X18436000Y-7000000D02*
X18440000Y-7000000D01*
X18520000Y-7000000D02*
X18524000Y-7000000D01*
X18604000Y-7000000D02*
X18700000Y-7000000D01*
X18700000Y-7000000D02*
X18700000Y-7220000D01*
X18700000Y-7300000D02*
X18700000Y-7300000D01*
X18700000Y-7300000D02*
X18480000Y-7300000D01*
X18400000Y-7300000D02*
X18396000Y-7300000D01*
X18316000Y-7300000D02*
X18312000Y-7300000D01*
X18232000Y-7300000D02*
X18012000Y-7300000D01*
X17932000Y-7300000D02*
X17928000Y-7300000D01*
X17848000Y-7300000D02*
X17844000Y-7300000D01*
X17764000Y-7300000D02*
X17544000Y-7300000D01*
X17464000Y-7300000D02*
X17460000Y-7300000D01*
X17380000Y-7300000D02*
X17376000Y-7300000D01*
X17296000Y-7300000D02*
X17076000Y-7300000D01*
X16996000Y-7300000D02*
X16992000Y-7300000D01*
X16912000Y-7300000D02*
X16908000Y-7300000D01*
X16828000Y-7300000D02*
X16608000Y-7300000D01*
X16528000Y-7300000D02*
X16524000Y-7300000D01*
X16444000Y-7300000D02*
X16440000Y-7300000D01*
X16360000Y-7300000D02*
X16140000Y-7300000D01*
X16060000Y-7300000D02*
X16056000Y-7300000D01*
X15976000Y-7300000D02*
X15972000Y-7300000D01*
X15892000Y-7300000D02*
X15672000Y-7300000D01*
X15592000Y-7300000D02*
X15588000Y-7300000D01*
X15508000Y-7300000D02*
X15504000Y-7300000D01*
X15424000Y-7300000D02*
X15204000Y-7300000D01*
X15124000Y-7300000D02*
X15120000Y-7300000D01*
X15040000Y-7300000D02*
X15036000Y-7300000D01*
X14956000Y-7300000D02*
X14736000Y-7300000D01*
X14656000Y-7300000D02*
X14652000Y-7300000D01*
X14572000Y-7300000D02*
X14568000Y-7300000D01*
X14488000Y-7300000D02*
X14268000Y-7300000D01*
X14188000Y-7300000D02*
X14184000Y-7300000D01*
X14104000Y-7300000D02*
X14100000Y-7300000D01*
X14020000Y-7300000D02*
X13800000Y-7300000D01*
X13720000Y-7300000D02*
X13716000Y-7300000D01*
X13636000Y-7300000D02*
X13632000Y-7300000D01*
X13552000Y-7300000D02*
X13332000Y-7300000D01*
X13252000Y-7300000D02*
X13248000Y-7300000D01*
X13168000Y-7300000D02*
X13164000Y-7300000D01*
X13084000Y-7300000D02*
X12864000Y-7300000D01*
X12784000Y-7300000D02*
X12780000Y-7300000D01*
X12700000Y-7300000D02*
X12696000Y-7300000D01*
X12616000Y-7300000D02*
X12396000Y-7300000D01*
X12316000Y-7300000D02*
X12312000Y-7300000D01*
X12232000Y-7300000D02*
X12228000Y-7300000D01*
X12148000Y-7300000D02*
X11928000Y-7300000D01*
X11848000Y-7300000D02*
X11844000Y-7300000D01*
X11764000Y-7300000D02*
X11760000Y-7300000D01*
X11680000Y-7300000D02*
X11460000Y-7300000D01*
X11380000Y-7300000D02*
X11376000Y-7300000D01*
X11296000Y-7300000D02*
X11292000Y-7300000D01*
X11212000Y-7300000D02*
X10992000Y-7300000D01*
X10912000Y-7300000D02*
X10908000Y-7300000D01*
X10828000Y-7300000D02*
X10824000Y-7300000D01*
X10744000Y-7300000D02*
X10524000Y-7300000D01*
X10444000Y-7300000D02*
X10440000Y-7300000D01*
X10360000Y-7300000D02*
X10356000Y-7300000D01*
X10276000Y-7300000D02*
X10180000Y-7300000D01*
X10180000Y-7300000D02*
X10180000Y-7080000D01*
X10180000Y-7000000D02*
X10180000Y-7000000D01*
X14320000Y-7850000D02*
X14540000Y-7850000D01*
X14620000Y-7850000D02*
X14624000Y-7850000D01*
X14704000Y-7850000D02*
X14708000Y-7850000D01*
X14788000Y-7850000D02*
X15008000Y-7850000D01*
X15088000Y-7850000D02*
X15092000Y-7850000D01*
X15172000Y-7850000D02*
X15176000Y-7850000D01*
X15256000Y-7850000D02*
X15476000Y-7850000D01*
X15556000Y-7850000D02*
X15560000Y-7850000D01*
X15640000Y-7850000D02*
X15644000Y-7850000D01*
X15724000Y-7850000D02*
X15944000Y-7850000D01*
X16024000Y-7850000D02*
X16028000Y-7850000D01*
X16108000Y-7850000D02*
X16112000Y-7850000D01*
X16192000Y-7850000D02*
X16412000Y-7850000D01*
X16492000Y-7850000D02*
X16496000Y-7850000D01*
X16576000Y-7850000D02*
X16580000Y-7850000D01*
X16660000Y-7850000D02*
X16880000Y-7850000D01*
X16960000Y-7850000D02*
X16964000Y-7850000D01*
X17044000Y-7850000D02*
X17048000Y-7850000D01*
X17128000Y-7850000D02*
X17348000Y-7850000D01*
X17428000Y-7850000D02*
X17432000Y-7850000D01*
X17512000Y-7850000D02*
X17516000Y-7850000D01*
X17596000Y-7850000D02*
X17690000Y-7850000D01*
X13295000Y-7150000D02*
X13515000Y-7150000D01*
X13595000Y-7150000D02*
X13599000Y-7150000D01*
X13679000Y-7150000D02*
X13683000Y-7150000D01*
X13763000Y-7150000D02*
X13983000Y-7150000D01*
X14063000Y-7150000D02*
X14067000Y-7150000D01*
X14147000Y-7150000D02*
X14151000Y-7150000D01*
X14231000Y-7150000D02*
X14451000Y-7150000D01*
X14531000Y-7150000D02*
X14535000Y-7150000D01*
X14615000Y-7150000D02*
X14619000Y-7150000D01*
X14699000Y-7150000D02*
X14919000Y-7150000D01*
X14999000Y-7150000D02*
X15003000Y-7150000D01*
X15083000Y-7150000D02*
X15087000Y-7150000D01*
X15167000Y-7150000D02*
X15387000Y-7150000D01*
X15467000Y-7150000D02*
X15471000Y-7150000D01*
X15551000Y-7150000D02*
X15555000Y-7150000D01*
X15635000Y-7150000D02*
X15855000Y-7150000D01*
X15935000Y-7150000D02*
X15939000Y-7150000D01*
X16019000Y-7150000D02*
X16023000Y-7150000D01*
X16103000Y-7150000D02*
X16323000Y-7150000D01*
X16403000Y-7150000D02*
X16407000Y-7150000D01*
X16487000Y-7150000D02*
X16491000Y-7150000D01*
X16571000Y-7150000D02*
X16791000Y-7150000D01*
X16871000Y-7150000D02*
X16875000Y-7150000D01*
X16955000Y-7150000D02*
X16959000Y-7150000D01*
X17039000Y-7150000D02*
X17259000Y-7150000D01*
X17339000Y-7150000D02*
X17343000Y-7150000D01*
X17423000Y-7150000D02*
X17427000Y-7150000D01*
X17507000Y-7150000D02*
X17690000Y-7150000D01*
X12235000Y-6350000D02*
X12455000Y-6350000D01*
X12535000Y-6350000D02*
X12539000Y-6350000D01*
X12619000Y-6350000D02*
X12623000Y-6350000D01*
X12703000Y-6350000D02*
X12923000Y-6350000D01*
X13003000Y-6350000D02*
X13007000Y-6350000D01*
X13087000Y-6350000D02*
X13091000Y-6350000D01*
X13171000Y-6350000D02*
X13305000Y-6350000D01*
X16725000Y-6350000D02*
X16945000Y-6350000D01*
X17025000Y-6350000D02*
X17029000Y-6350000D01*
X17109000Y-6350000D02*
X17113000Y-6350000D01*
X17193000Y-6350000D02*
X17413000Y-6350000D01*
X17493000Y-6350000D02*
X17497000Y-6350000D01*
X17577000Y-6350000D02*
X17581000Y-6350000D01*
X17661000Y-6350000D02*
X17881000Y-6350000D01*
X17961000Y-6350000D02*
X17965000Y-6350000D01*
X18045000Y-6350000D02*
X18049000Y-6350000D01*
X18129000Y-6350000D02*
X18349000Y-6350000D01*
X18429000Y-6350000D02*
X18433000Y-6350000D01*
X18513000Y-6350000D02*
X18517000Y-6350000D01*
X18597000Y-6350000D02*
X18817000Y-6350000D01*
X18897000Y-6350000D02*
X18901000Y-6350000D01*
X11155000Y-8650000D02*
X11375000Y-8650000D01*
X11455000Y-8650000D02*
X11459000Y-8650000D01*
X11539000Y-8650000D02*
X11543000Y-8650000D01*
X11623000Y-8650000D02*
X11843000Y-8650000D01*
X11923000Y-8650000D02*
X11927000Y-8650000D01*
X12007000Y-8650000D02*
X12011000Y-8650000D01*
X12091000Y-8650000D02*
X12225000Y-8650000D01*
X10180000Y-8500000D02*
X10400000Y-8500000D01*
X10480000Y-8500000D02*
X10484000Y-8500000D01*
X10564000Y-8500000D02*
X10568000Y-8500000D01*
X10648000Y-8500000D02*
X10868000Y-8500000D01*
X10948000Y-8500000D02*
X10952000Y-8500000D01*
X11032000Y-8500000D02*
X11036000Y-8500000D01*
X11116000Y-8500000D02*
X11336000Y-8500000D01*
X11416000Y-8500000D02*
X11420000Y-8500000D01*
X11500000Y-8500000D02*
X11504000Y-8500000D01*
X11584000Y-8500000D02*
X11804000Y-8500000D01*
X11884000Y-8500000D02*
X11888000Y-8500000D01*
X11968000Y-8500000D02*
X11972000Y-8500000D01*
X12052000Y-8500000D02*
X12272000Y-8500000D01*
X12352000Y-8500000D02*
X12356000Y-8500000D01*
X12436000Y-8500000D02*
X12440000Y-8500000D01*
X12520000Y-8500000D02*
X12740000Y-8500000D01*
X12820000Y-8500000D02*
X12824000Y-8500000D01*
X12904000Y-8500000D02*
X12908000Y-8500000D01*
X12988000Y-8500000D02*
X13208000Y-8500000D01*
X13288000Y-8500000D02*
X13292000Y-8500000D01*
X13372000Y-8500000D02*
X13376000Y-8500000D01*
X13456000Y-8500000D02*
X13676000Y-8500000D01*
X13756000Y-8500000D02*
X13760000Y-8500000D01*
X13840000Y-8500000D02*
X13844000Y-8500000D01*
X13924000Y-8500000D02*
X14144000Y-8500000D01*
X14224000Y-8500000D02*
X14228000Y-8500000D01*
X14308000Y-8500000D02*
X14312000Y-8500000D01*
X14392000Y-8500000D02*
X14612000Y-8500000D01*
X14692000Y-8500000D02*
X14696000Y-8500000D01*
X14776000Y-8500000D02*
X14780000Y-8500000D01*
X14860000Y-8500000D02*
X15080000Y-8500000D01*
X15160000Y-8500000D02*
X15164000Y-8500000D01*
X15244000Y-8500000D02*
X15248000Y-8500000D01*
X15328000Y-8500000D02*
X15548000Y-8500000D01*
X15628000Y-8500000D02*
X15632000Y-8500000D01*
X15712000Y-8500000D02*
X15716000Y-8500000D01*
X15796000Y-8500000D02*
X16016000Y-8500000D01*
X16096000Y-8500000D02*
X16100000Y-8500000D01*
X16180000Y-8500000D02*
X16184000Y-8500000D01*
X16264000Y-8500000D02*
X16484000Y-8500000D01*
X16564000Y-8500000D02*
X16568000Y-8500000D01*
X16648000Y-8500000D02*
X16652000Y-8500000D01*
X16732000Y-8500000D02*
X16952000Y-8500000D01*
X17032000Y-8500000D02*
X17036000Y-8500000D01*
X17116000Y-8500000D02*
X17120000Y-8500000D01*
X17200000Y-8500000D02*
X17420000Y-8500000D01*
X17500000Y-8500000D02*
X17504000Y-8500000D01*
X17584000Y-8500000D02*
X17588000Y-8500000D01*
X17668000Y-8500000D02*
X17888000Y-8500000D01*
X17968000Y-8500000D02*
X17972000Y-8500000D01*
X18052000Y-8500000D02*
X18056000Y-8500000D01*
X18136000Y-8500000D02*
X18356000Y-8500000D01*
X18436000Y-8500000D02*
X18440000Y-8500000D01*
X18520000Y-8500000D02*
X18524000Y-8500000D01*
X18604000Y-8500000D02*
X18824000Y-8500000D01*
X18904000Y-8500000D02*
X18908000Y-8500000D01*
X18988000Y-8500000D02*
X18992000Y-8500000D01*
X19072000Y-8500000D02*
X19292000Y-8500000D01*
X19372000Y-8500000D02*
X19376000Y-8500000D01*
X19456000Y-8500000D02*
X19460000Y-8500000D01*
X19540000Y-8500000D02*
X19760000Y-8500000D01*
X19840000Y-8500000D02*
X19844000Y-8500000D01*
X19924000Y-8500000D02*
X19928000Y-8500000D01*
X19930000Y-8500000D02*
X19930000Y-8720000D01*
X19930000Y-8800000D02*
X19930000Y-8800000D01*
X19930000Y-8800000D02*
X19710000Y-8800000D01*
X19630000Y-8800000D02*
X19626000Y-8800000D01*
X19546000Y-8800000D02*
X19542000Y-8800000D01*
X19462000Y-8800000D02*
X19242000Y-8800000D01*
X19162000Y-8800000D02*
X19158000Y-8800000D01*
X19078000Y-8800000D02*
X19074000Y-8800000D01*
X18994000Y-8800000D02*
X18774000Y-8800000D01*
X18694000Y-8800000D02*
X18690000Y-8800000D01*
X18610000Y-8800000D02*
X18606000Y-8800000D01*
X18526000Y-8800000D02*
X18306000Y-8800000D01*
X18226000Y-8800000D02*
X18222000Y-8800000D01*
X18142000Y-8800000D02*
X18138000Y-8800000D01*
X18058000Y-8800000D02*
X17838000Y-8800000D01*
X17758000Y-8800000D02*
X17754000Y-8800000D01*
X17674000Y-8800000D02*
X17670000Y-8800000D01*
X17590000Y-8800000D02*
X17370000Y-8800000D01*
X17290000Y-8800000D02*
X17286000Y-8800000D01*
X17206000Y-8800000D02*
X17202000Y-8800000D01*
X17122000Y-8800000D02*
X16902000Y-8800000D01*
X16822000Y-8800000D02*
X16818000Y-8800000D01*
X16738000Y-8800000D02*
X16734000Y-8800000D01*
X16654000Y-8800000D02*
X16434000Y-8800000D01*
X16354000Y-8800000D02*
X16350000Y-8800000D01*
X16270000Y-8800000D02*
X16266000Y-8800000D01*
X16186000Y-8800000D02*
X15966000Y-8800000D01*
X15886000Y-8800000D02*
X15882000Y-8800000D01*
X15802000Y-8800000D02*
X15798000Y-8800000D01*
X15718000Y-8800000D02*
X15498000Y-8800000D01*
X15418000Y-8800000D02*
X15414000Y-8800000D01*
X15334000Y-8800000D02*
X15330000Y-8800000D01*
X15250000Y-8800000D02*
X15030000Y-8800000D01*
X14950000Y-8800000D02*
X14946000Y-8800000D01*
X14866000Y-8800000D02*
X14862000Y-8800000D01*
X14782000Y-8800000D02*
X14562000Y-8800000D01*
X14482000Y-8800000D02*
X14478000Y-8800000D01*
X14398000Y-8800000D02*
X14394000Y-8800000D01*
X14314000Y-8800000D02*
X14094000Y-8800000D01*
X14014000Y-8800000D02*
X14010000Y-8800000D01*
X13930000Y-8800000D02*
X13926000Y-8800000D01*
X13846000Y-8800000D02*
X13626000Y-8800000D01*
X13546000Y-8800000D02*
X13542000Y-8800000D01*
X13462000Y-8800000D02*
X13458000Y-8800000D01*
X13378000Y-8800000D02*
X13158000Y-8800000D01*
X13078000Y-8800000D02*
X13074000Y-8800000D01*
X12994000Y-8800000D02*
X12990000Y-8800000D01*
X12910000Y-8800000D02*
X12690000Y-8800000D01*
X12610000Y-8800000D02*
X12606000Y-8800000D01*
X12526000Y-8800000D02*
X12522000Y-8800000D01*
X12442000Y-8800000D02*
X12222000Y-8800000D01*
X12142000Y-8800000D02*
X12138000Y-8800000D01*
X12058000Y-8800000D02*
X12054000Y-8800000D01*
X11974000Y-8800000D02*
X11754000Y-8800000D01*
X11674000Y-8800000D02*
X11670000Y-8800000D01*
X11590000Y-8800000D02*
X11586000Y-8800000D01*
X11506000Y-8800000D02*
X11286000Y-8800000D01*
X11206000Y-8800000D02*
X11202000Y-8800000D01*
X11122000Y-8800000D02*
X11118000Y-8800000D01*
X11038000Y-8800000D02*
X10818000Y-8800000D01*
X10738000Y-8800000D02*
X10734000Y-8800000D01*
X10654000Y-8800000D02*
X10650000Y-8800000D01*
X10570000Y-8800000D02*
X10350000Y-8800000D01*
X10270000Y-8800000D02*
X10266000Y-8800000D01*
X10186000Y-8800000D02*
X10182000Y-8800000D01*
X10180000Y-8800000D02*
X10180000Y-8580000D01*
X10180000Y-8500000D02*
X10180000Y-8500000D01*
X14390000Y-6350000D02*
X14610000Y-6350000D01*
X14690000Y-6350000D02*
X14694000Y-6350000D01*
X14774000Y-6350000D02*
X14778000Y-6350000D01*
X14858000Y-6350000D02*
X15078000Y-6350000D01*
X15158000Y-6350000D02*
X15162000Y-6350000D01*
X15242000Y-6350000D02*
X15246000Y-6350000D01*
X15326000Y-6350000D02*
X15546000Y-6350000D01*
X15626000Y-6350000D02*
X15630000Y-6350000D01*
X15710000Y-6350000D02*
X15714000Y-6350000D01*
X15794000Y-6350000D02*
X16014000Y-6350000D01*
X16094000Y-6350000D02*
X16098000Y-6350000D01*
X16178000Y-6350000D02*
X16182000Y-6350000D01*
X16262000Y-6350000D02*
X16320000Y-6350000D01*
D11*
X16818571Y-6667833D02*
X16804286Y-6667833D01*
X16804286Y-6667833D02*
X16790000Y-6674976D01*
X16790000Y-6674976D02*
X16782857Y-6682118D01*
X16782857Y-6682118D02*
X16775714Y-6696404D01*
X16775714Y-6696404D02*
X16768571Y-6724976D01*
X16768571Y-6724976D02*
X16768571Y-6760690D01*
X16768571Y-6760690D02*
X16775714Y-6789261D01*
X16775714Y-6789261D02*
X16782857Y-6803547D01*
X16782857Y-6803547D02*
X16790000Y-6810690D01*
X16790000Y-6810690D02*
X16804286Y-6817833D01*
X16804286Y-6817833D02*
X16818571Y-6817833D01*
X16818571Y-6817833D02*
X16832857Y-6810690D01*
X16832857Y-6810690D02*
X16840000Y-6803547D01*
X16840000Y-6803547D02*
X16847143Y-6789261D01*
X16847143Y-6789261D02*
X16854286Y-6760690D01*
X16854286Y-6760690D02*
X16854286Y-6724976D01*
X16854286Y-6724976D02*
X16847143Y-6696404D01*
X16847143Y-6696404D02*
X16840000Y-6682118D01*
X16840000Y-6682118D02*
X16832857Y-6674976D01*
X16832857Y-6674976D02*
X16818571Y-6667833D01*
X16704286Y-6803547D02*
X16697143Y-6810690D01*
X16697143Y-6810690D02*
X16704286Y-6817833D01*
X16704286Y-6817833D02*
X16711428Y-6810690D01*
X16711428Y-6810690D02*
X16704286Y-6803547D01*
X16704286Y-6803547D02*
X16704286Y-6817833D01*
X16647143Y-6667833D02*
X16554286Y-6667833D01*
X16554286Y-6667833D02*
X16604286Y-6724976D01*
X16604286Y-6724976D02*
X16582857Y-6724976D01*
X16582857Y-6724976D02*
X16568571Y-6732118D01*
X16568571Y-6732118D02*
X16561428Y-6739261D01*
X16561428Y-6739261D02*
X16554286Y-6753547D01*
X16554286Y-6753547D02*
X16554286Y-6789261D01*
X16554286Y-6789261D02*
X16561428Y-6803547D01*
X16561428Y-6803547D02*
X16568571Y-6810690D01*
X16568571Y-6810690D02*
X16582857Y-6817833D01*
X16582857Y-6817833D02*
X16625714Y-6817833D01*
X16625714Y-6817833D02*
X16640000Y-6810690D01*
X16640000Y-6810690D02*
X16647143Y-6803547D01*
X16497143Y-6774976D02*
X16425714Y-6774976D01*
X16511428Y-6817833D02*
X16461428Y-6667833D01*
X16461428Y-6667833D02*
X16411428Y-6817833D01*
X15318571Y-6667833D02*
X15304286Y-6667833D01*
X15304286Y-6667833D02*
X15290000Y-6674976D01*
X15290000Y-6674976D02*
X15282857Y-6682118D01*
X15282857Y-6682118D02*
X15275714Y-6696404D01*
X15275714Y-6696404D02*
X15268571Y-6724976D01*
X15268571Y-6724976D02*
X15268571Y-6760690D01*
X15268571Y-6760690D02*
X15275714Y-6789261D01*
X15275714Y-6789261D02*
X15282857Y-6803547D01*
X15282857Y-6803547D02*
X15290000Y-6810690D01*
X15290000Y-6810690D02*
X15304286Y-6817833D01*
X15304286Y-6817833D02*
X15318571Y-6817833D01*
X15318571Y-6817833D02*
X15332857Y-6810690D01*
X15332857Y-6810690D02*
X15340000Y-6803547D01*
X15340000Y-6803547D02*
X15347143Y-6789261D01*
X15347143Y-6789261D02*
X15354286Y-6760690D01*
X15354286Y-6760690D02*
X15354286Y-6724976D01*
X15354286Y-6724976D02*
X15347143Y-6696404D01*
X15347143Y-6696404D02*
X15340000Y-6682118D01*
X15340000Y-6682118D02*
X15332857Y-6674976D01*
X15332857Y-6674976D02*
X15318571Y-6667833D01*
X15204286Y-6803547D02*
X15197143Y-6810690D01*
X15197143Y-6810690D02*
X15204286Y-6817833D01*
X15204286Y-6817833D02*
X15211428Y-6810690D01*
X15211428Y-6810690D02*
X15204286Y-6803547D01*
X15204286Y-6803547D02*
X15204286Y-6817833D01*
X15068571Y-6667833D02*
X15097143Y-6667833D01*
X15097143Y-6667833D02*
X15111428Y-6674976D01*
X15111428Y-6674976D02*
X15118571Y-6682118D01*
X15118571Y-6682118D02*
X15132857Y-6703547D01*
X15132857Y-6703547D02*
X15140000Y-6732118D01*
X15140000Y-6732118D02*
X15140000Y-6789261D01*
X15140000Y-6789261D02*
X15132857Y-6803547D01*
X15132857Y-6803547D02*
X15125714Y-6810690D01*
X15125714Y-6810690D02*
X15111428Y-6817833D01*
X15111428Y-6817833D02*
X15082857Y-6817833D01*
X15082857Y-6817833D02*
X15068571Y-6810690D01*
X15068571Y-6810690D02*
X15061428Y-6803547D01*
X15061428Y-6803547D02*
X15054286Y-6789261D01*
X15054286Y-6789261D02*
X15054286Y-6753547D01*
X15054286Y-6753547D02*
X15061428Y-6739261D01*
X15061428Y-6739261D02*
X15068571Y-6732118D01*
X15068571Y-6732118D02*
X15082857Y-6724976D01*
X15082857Y-6724976D02*
X15111428Y-6724976D01*
X15111428Y-6724976D02*
X15125714Y-6732118D01*
X15125714Y-6732118D02*
X15132857Y-6739261D01*
X15132857Y-6739261D02*
X15140000Y-6753547D01*
X14997143Y-6774976D02*
X14925714Y-6774976D01*
X15011428Y-6817833D02*
X14961428Y-6667833D01*
X14961428Y-6667833D02*
X14911428Y-6817833D01*
D12*
%TO.C,J1*%
X15430000Y-6710000D02*
X15430000Y-6770000D01*
X15500000Y-6840000D02*
X15640000Y-6840000D01*
X15640000Y-6640000D02*
X15500000Y-6640000D01*
X15710000Y-6770000D02*
X15710000Y-6710000D01*
X15430000Y-6710000D02*
G75*
G02*
X15500000Y-6640000I70000J0D01*
G01*
X15500000Y-6840000D02*
G75*
G02*
X15430000Y-6770000I0J70000D01*
G01*
X15640000Y-6640000D02*
G75*
G02*
X15710000Y-6710000I0J-70000D01*
G01*
X15710000Y-6770000D02*
G75*
G02*
X15640000Y-6840000I-70000J0D01*
G01*
%TO.C,J2*%
X16070000Y-6710000D02*
X16070000Y-6770000D01*
X16140000Y-6840000D02*
X16280000Y-6840000D01*
X16280000Y-6640000D02*
X16140000Y-6640000D01*
X16350000Y-6770000D02*
X16350000Y-6710000D01*
X16070000Y-6710000D02*
G75*
G02*
X16140000Y-6640000I70000J0D01*
G01*
X16140000Y-6840000D02*
G75*
G02*
X16070000Y-6770000I0J70000D01*
G01*
X16280000Y-6640000D02*
G75*
G02*
X16350000Y-6710000I0J-70000D01*
G01*
X16350000Y-6770000D02*
G75*
G02*
X16280000Y-6840000I-70000J0D01*
G01*
%TD*%
%LPC*%
D13*
X17720000Y-7710000D02*
X18680000Y-7710000D01*
X18680000Y-7990000D01*
X17720000Y-7990000D01*
X17720000Y-7710000D01*
G36*
X17720000Y-7710000D02*
G01*
X18680000Y-7710000D01*
X18680000Y-7990000D01*
X17720000Y-7990000D01*
X17720000Y-7710000D01*
G37*
X13320000Y-7710000D02*
X14280000Y-7710000D01*
X14280000Y-7990000D01*
X13320000Y-7990000D01*
X13320000Y-7710000D01*
G36*
X13320000Y-7710000D02*
G01*
X14280000Y-7710000D01*
X14280000Y-7990000D01*
X13320000Y-7990000D01*
X13320000Y-7710000D01*
G37*
X12280000Y-8510000D02*
X13240000Y-8510000D01*
X13240000Y-8790000D01*
X12280000Y-8790000D01*
X12280000Y-8510000D01*
G36*
X12280000Y-8510000D02*
G01*
X13240000Y-8510000D01*
X13240000Y-8790000D01*
X12280000Y-8790000D01*
X12280000Y-8510000D01*
G37*
X16340000Y-6200000D02*
X16690000Y-6200000D01*
X16690000Y-6500000D01*
X16340000Y-6500000D01*
X16340000Y-6200000D01*
G36*
X16340000Y-6200000D02*
G01*
X16690000Y-6200000D01*
X16690000Y-6500000D01*
X16340000Y-6500000D01*
X16340000Y-6200000D01*
G37*
X12300000Y-7010000D02*
X13260000Y-7010000D01*
X13260000Y-7290000D01*
X12300000Y-7290000D01*
X12300000Y-7010000D01*
G36*
X12300000Y-7010000D02*
G01*
X13260000Y-7010000D01*
X13260000Y-7290000D01*
X12300000Y-7290000D01*
X12300000Y-7010000D01*
G37*
X17720000Y-7010000D02*
X18680000Y-7010000D01*
X18680000Y-7290000D01*
X17720000Y-7290000D01*
X17720000Y-7010000D01*
G36*
X17720000Y-7010000D02*
G01*
X18680000Y-7010000D01*
X18680000Y-7290000D01*
X17720000Y-7290000D01*
X17720000Y-7010000D01*
G37*
X10195000Y-8510000D02*
X11165000Y-8510000D01*
X11165000Y-8790000D01*
X10195000Y-8790000D01*
X10195000Y-8510000D01*
G36*
X10195000Y-8510000D02*
G01*
X11165000Y-8510000D01*
X11165000Y-8790000D01*
X10195000Y-8790000D01*
X10195000Y-8510000D01*
G37*
X18960000Y-6210000D02*
X19960000Y-6210000D01*
X19960000Y-6490000D01*
X18960000Y-6490000D01*
X18960000Y-6210000D01*
G36*
X18960000Y-6210000D02*
G01*
X19960000Y-6210000D01*
X19960000Y-6490000D01*
X18960000Y-6490000D01*
X18960000Y-6210000D01*
G37*
X11220000Y-6210000D02*
X12180000Y-6210000D01*
X12180000Y-6490000D01*
X11220000Y-6490000D01*
X11220000Y-6210000D01*
G36*
X11220000Y-6210000D02*
G01*
X12180000Y-6210000D01*
X12180000Y-6490000D01*
X11220000Y-6490000D01*
X11220000Y-6210000D01*
G37*
X10200000Y-7010000D02*
X11160000Y-7010000D01*
X11160000Y-7290000D01*
X10200000Y-7290000D01*
X10200000Y-7010000D01*
G36*
X10200000Y-7010000D02*
G01*
X11160000Y-7010000D01*
X11160000Y-7290000D01*
X10200000Y-7290000D01*
X10200000Y-7010000D01*
G37*
X18965000Y-8510000D02*
X19955000Y-8510000D01*
X19955000Y-8790000D01*
X18965000Y-8790000D01*
X18965000Y-8510000D01*
G36*
X18965000Y-8510000D02*
G01*
X19955000Y-8510000D01*
X19955000Y-8790000D01*
X18965000Y-8790000D01*
X18965000Y-8510000D01*
G37*
X13340000Y-6210000D02*
X14300000Y-6210000D01*
X14300000Y-6490000D01*
X13340000Y-6490000D01*
X13340000Y-6210000D01*
G36*
X13340000Y-6210000D02*
G01*
X14300000Y-6210000D01*
X14300000Y-6490000D01*
X13340000Y-6490000D01*
X13340000Y-6210000D01*
G37*
X11200000Y-7710000D02*
X12160000Y-7710000D01*
X12160000Y-7990000D01*
X11200000Y-7990000D01*
X11200000Y-7710000D01*
G36*
X11200000Y-7710000D02*
G01*
X12160000Y-7710000D01*
X12160000Y-7990000D01*
X11200000Y-7990000D01*
X11200000Y-7710000D01*
G37*
D14*
X19811065Y-5318444D02*
X19811065Y-5118444D01*
X19811065Y-5118444D02*
X19763446Y-5118444D01*
X19763446Y-5118444D02*
X19734875Y-5127968D01*
X19734875Y-5127968D02*
X19715827Y-5147015D01*
X19715827Y-5147015D02*
X19706303Y-5166063D01*
X19706303Y-5166063D02*
X19696780Y-5204158D01*
X19696780Y-5204158D02*
X19696780Y-5232730D01*
X19696780Y-5232730D02*
X19706303Y-5270825D01*
X19706303Y-5270825D02*
X19715827Y-5289872D01*
X19715827Y-5289872D02*
X19734875Y-5308920D01*
X19734875Y-5308920D02*
X19763446Y-5318444D01*
X19763446Y-5318444D02*
X19811065Y-5318444D01*
X19496780Y-5299396D02*
X19506303Y-5308920D01*
X19506303Y-5308920D02*
X19534875Y-5318444D01*
X19534875Y-5318444D02*
X19553922Y-5318444D01*
X19553922Y-5318444D02*
X19582494Y-5308920D01*
X19582494Y-5308920D02*
X19601541Y-5289872D01*
X19601541Y-5289872D02*
X19611065Y-5270825D01*
X19611065Y-5270825D02*
X19620589Y-5232730D01*
X19620589Y-5232730D02*
X19620589Y-5204158D01*
X19620589Y-5204158D02*
X19611065Y-5166063D01*
X19611065Y-5166063D02*
X19601541Y-5147015D01*
X19601541Y-5147015D02*
X19582494Y-5127968D01*
X19582494Y-5127968D02*
X19553922Y-5118444D01*
X19553922Y-5118444D02*
X19534875Y-5118444D01*
X19534875Y-5118444D02*
X19506303Y-5127968D01*
X19506303Y-5127968D02*
X19496780Y-5137491D01*
X19411065Y-5213682D02*
X19344399Y-5213682D01*
X19315827Y-5318444D02*
X19411065Y-5318444D01*
X19411065Y-5318444D02*
X19411065Y-5118444D01*
X19411065Y-5118444D02*
X19315827Y-5118444D01*
X19239637Y-5308920D02*
X19211065Y-5318444D01*
X19211065Y-5318444D02*
X19163446Y-5318444D01*
X19163446Y-5318444D02*
X19144399Y-5308920D01*
X19144399Y-5308920D02*
X19134875Y-5299396D01*
X19134875Y-5299396D02*
X19125351Y-5280349D01*
X19125351Y-5280349D02*
X19125351Y-5261301D01*
X19125351Y-5261301D02*
X19134875Y-5242253D01*
X19134875Y-5242253D02*
X19144399Y-5232730D01*
X19144399Y-5232730D02*
X19163446Y-5223206D01*
X19163446Y-5223206D02*
X19201541Y-5213682D01*
X19201541Y-5213682D02*
X19220589Y-5204158D01*
X19220589Y-5204158D02*
X19230113Y-5194634D01*
X19230113Y-5194634D02*
X19239637Y-5175587D01*
X19239637Y-5175587D02*
X19239637Y-5156539D01*
X19239637Y-5156539D02*
X19230113Y-5137491D01*
X19230113Y-5137491D02*
X19220589Y-5127968D01*
X19220589Y-5127968D02*
X19201541Y-5118444D01*
X19201541Y-5118444D02*
X19153922Y-5118444D01*
X19153922Y-5118444D02*
X19125351Y-5127968D01*
X18925351Y-5299396D02*
X18934875Y-5308920D01*
X18934875Y-5308920D02*
X18963446Y-5318444D01*
X18963446Y-5318444D02*
X18982494Y-5318444D01*
X18982494Y-5318444D02*
X19011065Y-5308920D01*
X19011065Y-5308920D02*
X19030113Y-5289872D01*
X19030113Y-5289872D02*
X19039637Y-5270825D01*
X19039637Y-5270825D02*
X19049160Y-5232730D01*
X19049160Y-5232730D02*
X19049160Y-5204158D01*
X19049160Y-5204158D02*
X19039637Y-5166063D01*
X19039637Y-5166063D02*
X19030113Y-5147015D01*
X19030113Y-5147015D02*
X19011065Y-5127968D01*
X19011065Y-5127968D02*
X18982494Y-5118444D01*
X18982494Y-5118444D02*
X18963446Y-5118444D01*
X18963446Y-5118444D02*
X18934875Y-5127968D01*
X18934875Y-5127968D02*
X18925351Y-5137491D01*
X18839637Y-5242253D02*
X18687256Y-5242253D01*
X18487256Y-5127968D02*
X18506303Y-5118444D01*
X18506303Y-5118444D02*
X18534875Y-5118444D01*
X18534875Y-5118444D02*
X18563446Y-5127968D01*
X18563446Y-5127968D02*
X18582494Y-5147015D01*
X18582494Y-5147015D02*
X18592018Y-5166063D01*
X18592018Y-5166063D02*
X18601541Y-5204158D01*
X18601541Y-5204158D02*
X18601541Y-5232730D01*
X18601541Y-5232730D02*
X18592018Y-5270825D01*
X18592018Y-5270825D02*
X18582494Y-5289872D01*
X18582494Y-5289872D02*
X18563446Y-5308920D01*
X18563446Y-5308920D02*
X18534875Y-5318444D01*
X18534875Y-5318444D02*
X18515827Y-5318444D01*
X18515827Y-5318444D02*
X18487256Y-5308920D01*
X18487256Y-5308920D02*
X18477732Y-5299396D01*
X18477732Y-5299396D02*
X18477732Y-5232730D01*
X18477732Y-5232730D02*
X18515827Y-5232730D01*
X18401541Y-5261301D02*
X18306303Y-5261301D01*
X18420589Y-5318444D02*
X18353922Y-5118444D01*
X18353922Y-5118444D02*
X18287256Y-5318444D01*
X18230113Y-5137491D02*
X18220589Y-5127968D01*
X18220589Y-5127968D02*
X18201541Y-5118444D01*
X18201541Y-5118444D02*
X18153922Y-5118444D01*
X18153922Y-5118444D02*
X18134875Y-5127968D01*
X18134875Y-5127968D02*
X18125351Y-5137491D01*
X18125351Y-5137491D02*
X18115827Y-5156539D01*
X18115827Y-5156539D02*
X18115827Y-5175587D01*
X18115827Y-5175587D02*
X18125351Y-5204158D01*
X18125351Y-5204158D02*
X18239637Y-5318444D01*
X18239637Y-5318444D02*
X18115827Y-5318444D01*
X17934875Y-5118444D02*
X18030113Y-5118444D01*
X18030113Y-5118444D02*
X18039637Y-5213682D01*
X18039637Y-5213682D02*
X18030113Y-5204158D01*
X18030113Y-5204158D02*
X18011065Y-5194634D01*
X18011065Y-5194634D02*
X17963446Y-5194634D01*
X17963446Y-5194634D02*
X17944399Y-5204158D01*
X17944399Y-5204158D02*
X17934875Y-5213682D01*
X17934875Y-5213682D02*
X17925351Y-5232730D01*
X17925351Y-5232730D02*
X17925351Y-5280349D01*
X17925351Y-5280349D02*
X17934875Y-5299396D01*
X17934875Y-5299396D02*
X17944399Y-5308920D01*
X17944399Y-5308920D02*
X17963446Y-5318444D01*
X17963446Y-5318444D02*
X18011065Y-5318444D01*
X18011065Y-5318444D02*
X18030113Y-5308920D01*
X18030113Y-5308920D02*
X18039637Y-5299396D01*
X17706303Y-5185110D02*
X17658684Y-5318444D01*
X17658684Y-5318444D02*
X17611065Y-5185110D01*
X17496779Y-5118444D02*
X17477732Y-5118444D01*
X17477732Y-5118444D02*
X17458684Y-5127968D01*
X17458684Y-5127968D02*
X17449160Y-5137491D01*
X17449160Y-5137491D02*
X17439637Y-5156539D01*
X17439637Y-5156539D02*
X17430113Y-5194634D01*
X17430113Y-5194634D02*
X17430113Y-5242253D01*
X17430113Y-5242253D02*
X17439637Y-5280349D01*
X17439637Y-5280349D02*
X17449160Y-5299396D01*
X17449160Y-5299396D02*
X17458684Y-5308920D01*
X17458684Y-5308920D02*
X17477732Y-5318444D01*
X17477732Y-5318444D02*
X17496779Y-5318444D01*
X17496779Y-5318444D02*
X17515827Y-5308920D01*
X17515827Y-5308920D02*
X17525351Y-5299396D01*
X17525351Y-5299396D02*
X17534875Y-5280349D01*
X17534875Y-5280349D02*
X17544398Y-5242253D01*
X17544398Y-5242253D02*
X17544398Y-5194634D01*
X17544398Y-5194634D02*
X17534875Y-5156539D01*
X17534875Y-5156539D02*
X17525351Y-5137491D01*
X17525351Y-5137491D02*
X17515827Y-5127968D01*
X17515827Y-5127968D02*
X17496779Y-5118444D01*
%TO.C,J1*%
G36*
X15555000Y-6815000D02*
G01*
X15585000Y-6815000D01*
X15585000Y-6665000D01*
X15555000Y-6665000D01*
X15555000Y-6815000D01*
G37*
%TO.C,J2*%
G36*
X16225000Y-6665000D02*
G01*
X16195000Y-6665000D01*
X16195000Y-6815000D01*
X16225000Y-6815000D01*
X16225000Y-6665000D01*
G37*
%TD*%
D15*
%TO.C,C65*%
X19660000Y-5600000D03*
D16*
X19160000Y-5600000D03*
%TD*%
D17*
%TO.C,J18*%
X19620000Y-7500000D03*
%TD*%
D18*
%TO.C,H1*%
X10640000Y-9650000D03*
%TD*%
%TO.C,H4*%
X11670000Y-5350000D03*
%TD*%
D19*
%TO.C,X8*%
X18210000Y-9725000D03*
D20*
X18360000Y-9725000D03*
X18510000Y-9725000D03*
%TD*%
D21*
%TO.C,X1*%
X16460000Y-5694000D03*
X17360000Y-5694000D03*
D22*
X16760000Y-5300000D03*
D23*
X17060000Y-5300000D03*
X16760000Y-5600000D03*
X17060000Y-5600000D03*
%TD*%
D24*
%TO.C,J7*%
X11080000Y-5300000D03*
%TD*%
%TO.C,J5*%
X13380000Y-9700000D03*
%TD*%
D25*
%TO.C,X5*%
X16960000Y-9350000D03*
D26*
X16960000Y-9500000D03*
X16960000Y-9650000D03*
X16960000Y-9800000D03*
%TD*%
D24*
%TO.C,J4*%
X11210000Y-9700000D03*
%TD*%
D25*
%TO.C,X6*%
X17400000Y-9350000D03*
D26*
X17400000Y-9500000D03*
X17400000Y-9650000D03*
X17400000Y-9800000D03*
%TD*%
D15*
%TO.C,C68*%
X19660000Y-9400000D03*
D16*
X19160000Y-9400000D03*
%TD*%
D24*
%TO.C,J10*%
X13250000Y-5300000D03*
%TD*%
D25*
%TO.C,X4*%
X16520000Y-9350000D03*
D26*
X16520000Y-9500000D03*
X16520000Y-9650000D03*
X16520000Y-9800000D03*
%TD*%
D19*
%TO.C,X11*%
X15330000Y-7465000D03*
D20*
X15480000Y-7465000D03*
X15630000Y-7465000D03*
X15780000Y-7465000D03*
%TD*%
D25*
%TO.C,X9*%
X17840000Y-9500000D03*
D26*
X17840000Y-9650000D03*
X17840000Y-9800000D03*
%TD*%
D27*
%TO.C,U13*%
X15760000Y-6765000D03*
X15890000Y-6765000D03*
X16020000Y-6765000D03*
X15760000Y-6635000D03*
X15890000Y-6635000D03*
X16020000Y-6635000D03*
%TD*%
D28*
%TO.C,X12*%
X15405000Y-5915000D03*
X15405000Y-5165000D03*
D29*
X15190000Y-5780000D03*
X15620000Y-5780000D03*
X15190000Y-5300000D03*
X15620000Y-5300000D03*
%TD*%
D18*
%TO.C,H2*%
X12790000Y-9650000D03*
%TD*%
D25*
%TO.C,X3*%
X15640000Y-9350000D03*
D26*
X15640000Y-9500000D03*
X15640000Y-9650000D03*
X15640000Y-9800000D03*
%TD*%
D30*
%TO.C,X2*%
X15870000Y-5140000D03*
D31*
X16070000Y-5300000D03*
D32*
X16070000Y-5550000D03*
%TD*%
D25*
%TO.C,X7*%
X16080000Y-9350000D03*
D26*
X16080000Y-9500000D03*
X16080000Y-9650000D03*
X16080000Y-9800000D03*
%TD*%
D33*
%TO.C,J19*%
X18800000Y-7500000D03*
%TD*%
D18*
%TO.C,H5*%
X13820000Y-5350000D03*
%TD*%
D34*
%TO.C,C67*%
X19660000Y-8350000D03*
D16*
X19161903Y-8306422D03*
%TD*%
D24*
%TO.C,J3*%
X11720000Y-9700000D03*
%TD*%
D19*
%TO.C,X10*%
X14580000Y-9730000D03*
D20*
X14730000Y-9730000D03*
X14880000Y-9730000D03*
X15030000Y-9730000D03*
X15180000Y-9730000D03*
%TD*%
D24*
%TO.C,J6*%
X13890000Y-9700000D03*
%TD*%
D35*
%TO.C,C66*%
X19660000Y-6650000D03*
D16*
X19161903Y-6693578D03*
%TD*%
D24*
%TO.C,J8*%
X10570000Y-5300000D03*
%TD*%
D18*
%TO.C,H3*%
X18100000Y-7500000D03*
%TD*%
D36*
%TO.C,J9*%
X12740000Y-5300000D03*
%TD*%
D37*
%TO.C,J1*%
X15505000Y-6740000D03*
D38*
X15635000Y-6740000D03*
%TD*%
D39*
%TO.C,J2*%
X16275000Y-6740000D03*
D40*
X16145000Y-6740000D03*
%TD*%
%LPD*%
M02*
