%TF.GenerationSoftware,KiCad,Pcbnew,9.0.2*%
%TF.CreationDate,2025-07-16T05:03:17+03:00*%
%TF.ProjectId,dcesc-ga25,64636573-632d-4676-9132-352e6b696361,rev?*%
%TF.SameCoordinates,Original*%
%TF.FileFunction,Soldermask,Top*%
%TF.FilePolarity,Negative*%
%FSLAX45Y45*%
G04 Gerber Fmt 4.5, Leading zero omitted, Abs format (unit mm)*
G04 Created by KiCad (PCBNEW 9.0.2) date 2025-07-16 05:03:17*
%MOMM*%
%LPD*%
G01*
G04 APERTURE LIST*
G04 Aperture macros list*
%AMRoundRect*
0 Rectangle with rounded corners*
0 $1 Rounding radius*
0 $2 $3 $4 $5 $6 $7 $8 $9 X,Y pos of 4 corners*
0 Add a 4 corners polygon primitive as box body*
4,1,4,$2,$3,$4,$5,$6,$7,$8,$9,$2,$3,0*
0 Add four circle primitives for the rounded corners*
1,1,$1+$1,$2,$3*
1,1,$1+$1,$4,$5*
1,1,$1+$1,$6,$7*
1,1,$1+$1,$8,$9*
0 Add four rect primitives between the rounded corners*
20,1,$1+$1,$2,$3,$4,$5,0*
20,1,$1+$1,$4,$5,$6,$7,0*
20,1,$1+$1,$6,$7,$8,$9,0*
20,1,$1+$1,$8,$9,$2,$3,0*%
%AMFreePoly0*
4,1,30,0.400000,-4.000000,-0.400000,-4.000000,-2.400000,-4.000000,-2.400000,-3.200000,-0.400000,-3.200000,-0.400000,-2.800000,-2.400000,-2.800000,-2.400000,-2.000000,-0.400000,-2.000000,-0.400000,-1.600000,-2.400000,-1.600000,-2.400000,-0.800000,-0.400000,-0.800000,-0.400000,-0.400000,-2.400000,-0.400000,-2.400000,0.400000,-0.400000,0.400000,-0.400000,0.800000,-2.400000,0.800000,-2.400000,1.600000,
-0.400000,1.600000,-0.400000,2.000000,-2.400000,2.000000,-2.400000,2.800000,-0.400000,2.800000,-0.400000,3.200000,-2.400000,3.200000,-2.400000,4.000000,0.400000,4.000000,0.400000,-4.000000,0.400000,-4.000000,$1*%
%AMFreePoly1*
4,1,13,2.850000,-5.050000,1.450000,-5.050000,1.450000,-4.350000,-1.450000,-4.350000,-1.450000,-4.850000,-5.150000,-4.850000,-5.150000,4.850000,-1.450000,4.850000,-1.450000,4.350000,1.450000,4.350000,1.450000,5.050000,2.850000,5.050000,2.850000,-5.050000,2.850000,-5.050000,$1*%
G04 Aperture macros list end*
%ADD10RoundRect,1.000000X0.000010X0.000010X-0.000010X0.000010X-0.000010X-0.000010X0.000010X-0.000010X0*%
%ADD11C,2.000000*%
%ADD12RoundRect,0.112500X0.237500X-0.112500X0.237500X0.112500X-0.237500X0.112500X-0.237500X-0.112500X0*%
%ADD13RoundRect,2.249998X-1.250002X-1.250002X1.250002X-1.250002X1.250002X1.250002X-1.250002X1.250002X0*%
%ADD14RoundRect,0.250000X-0.325000X-0.650000X0.325000X-0.650000X0.325000X0.650000X-0.325000X0.650000X0*%
%ADD15RoundRect,0.200000X0.275000X-0.200000X0.275000X0.200000X-0.275000X0.200000X-0.275000X-0.200000X0*%
%ADD16RoundRect,0.250000X0.250000X0.475000X-0.250000X0.475000X-0.250000X-0.475000X0.250000X-0.475000X0*%
%ADD17C,3.200000*%
%ADD18RoundRect,0.150000X0.675000X0.150000X-0.675000X0.150000X-0.675000X-0.150000X0.675000X-0.150000X0*%
%ADD19RoundRect,0.112500X-0.112500X-0.237500X0.112500X-0.237500X0.112500X0.237500X-0.112500X0.237500X0*%
%ADD20RoundRect,0.200000X0.200000X0.275000X-0.200000X0.275000X-0.200000X-0.275000X0.200000X-0.275000X0*%
%ADD21RoundRect,0.150000X-0.512500X-0.150000X0.512500X-0.150000X0.512500X0.150000X-0.512500X0.150000X0*%
%ADD22RoundRect,0.250000X-0.265000X-0.615000X0.265000X-0.615000X0.265000X0.615000X-0.265000X0.615000X0*%
%ADD23O,1.030000X1.730000*%
%ADD24RoundRect,0.225000X0.250000X-0.225000X0.250000X0.225000X-0.250000X0.225000X-0.250000X-0.225000X0*%
%ADD25RoundRect,0.200000X-0.275000X0.200000X-0.275000X-0.200000X0.275000X-0.200000X0.275000X0.200000X0*%
%ADD26RoundRect,0.200000X-0.200000X-0.275000X0.200000X-0.275000X0.200000X0.275000X-0.200000X0.275000X0*%
%ADD27RoundRect,0.150000X-0.150000X0.512500X-0.150000X-0.512500X0.150000X-0.512500X0.150000X0.512500X0*%
%ADD28RoundRect,0.250000X0.650000X-1.000000X0.650000X1.000000X-0.650000X1.000000X-0.650000X-1.000000X0*%
%ADD29RoundRect,0.150000X-0.150000X0.825000X-0.150000X-0.825000X0.150000X-0.825000X0.150000X0.825000X0*%
%ADD30RoundRect,0.250000X-1.000000X-0.650000X1.000000X-0.650000X1.000000X0.650000X-1.000000X0.650000X0*%
%ADD31C,1.020000*%
%ADD32RoundRect,0.250001X-0.499999X-0.499999X0.499999X-0.499999X0.499999X0.499999X-0.499999X0.499999X0*%
%ADD33C,1.500000*%
%ADD34R,0.510000X0.700000*%
%ADD35RoundRect,0.250000X-0.250000X-0.475000X0.250000X-0.475000X0.250000X0.475000X-0.250000X0.475000X0*%
%ADD36RoundRect,0.250000X0.625000X-0.312500X0.625000X0.312500X-0.625000X0.312500X-0.625000X-0.312500X0*%
%ADD37RoundRect,0.225000X-0.250000X0.225000X-0.250000X-0.225000X0.250000X-0.225000X0.250000X0.225000X0*%
%ADD38RoundRect,0.225000X0.225000X0.250000X-0.225000X0.250000X-0.225000X-0.250000X0.225000X-0.250000X0*%
%ADD39RoundRect,0.250000X1.000000X0.650000X-1.000000X0.650000X-1.000000X-0.650000X1.000000X-0.650000X0*%
%ADD40R,0.610000X1.910000*%
%ADD41R,1.550000X1.205000*%
%ADD42RoundRect,0.225000X-0.225000X-0.250000X0.225000X-0.250000X0.225000X0.250000X-0.225000X0.250000X0*%
%ADD43RoundRect,0.250000X-0.650000X0.325000X-0.650000X-0.325000X0.650000X-0.325000X0.650000X0.325000X0*%
%ADD44RoundRect,1.400000X0.800000X-0.800000X0.800000X0.800000X-0.800000X0.800000X-0.800000X-0.800000X0*%
%ADD45RoundRect,0.250000X0.550000X2.600000X-0.550000X2.600000X-0.550000X-2.600000X0.550000X-2.600000X0*%
%ADD46RoundRect,0.250000X-0.615000X0.265000X-0.615000X-0.265000X0.615000X-0.265000X0.615000X0.265000X0*%
%ADD47O,1.730000X1.030000*%
%ADD48RoundRect,0.150000X0.512500X0.150000X-0.512500X0.150000X-0.512500X-0.150000X0.512500X-0.150000X0*%
%ADD49R,0.800000X2.800000*%
%ADD50FreePoly0,270.000000*%
%ADD51FreePoly1,270.000000*%
%ADD52RoundRect,0.250000X0.650000X-0.325000X0.650000X0.325000X-0.650000X0.325000X-0.650000X-0.325000X0*%
%ADD53FreePoly0,90.000000*%
%ADD54FreePoly1,90.000000*%
%ADD55RoundRect,0.250000X1.045000X-0.785000X1.045000X0.785000X-1.045000X0.785000X-1.045000X-0.785000X0*%
%ADD56R,1.000000X1.000000*%
%ADD57RoundRect,0.112500X0.112500X0.237500X-0.112500X0.237500X-0.112500X-0.237500X0.112500X-0.237500X0*%
%ADD58RoundRect,0.250000X-0.625000X0.312500X-0.625000X-0.312500X0.625000X-0.312500X0.625000X0.312500X0*%
%ADD59RoundRect,0.218750X0.256250X-0.218750X0.256250X0.218750X-0.256250X0.218750X-0.256250X-0.218750X0*%
%ADD60R,3.100000X2.400000*%
%ADD61RoundRect,0.070000X0.250000X-0.800000X0.250000X0.800000X-0.250000X0.800000X-0.250000X-0.800000X0*%
%ADD62C,0.770000*%
%ADD63RoundRect,0.250000X0.945000X-0.420000X0.945000X0.420000X-0.945000X0.420000X-0.945000X-0.420000X0*%
%ADD64C,0.520000*%
%ADD65R,0.870000X0.300000*%
%ADD66O,1.100000X2.200000*%
%ADD67RoundRect,0.243750X-0.243750X-0.456250X0.243750X-0.456250X0.243750X0.456250X-0.243750X0.456250X0*%
%ADD68C,1.200000*%
%ADD69RoundRect,0.250000X-0.750000X0.600000X-0.750000X-0.600000X0.750000X-0.600000X0.750000X0.600000X0*%
%ADD70O,2.000000X1.700000*%
%ADD71RoundRect,2.559998X-0.940002X-0.940002X0.940002X-0.940002X0.940002X0.940002X-0.940002X0.940002X0*%
%ADD72RoundRect,1.000000X0.000011X0.000009X-0.000009X0.000011X-0.000011X-0.000009X0.000009X-0.000011X0*%
%ADD73RoundRect,0.250000X-0.850000X-0.350000X0.850000X-0.350000X0.850000X0.350000X-0.850000X0.350000X0*%
%ADD74RoundRect,0.249997X-2.950003X-2.650003X2.950003X-2.650003X2.950003X2.650003X-2.950003X2.650003X0*%
%ADD75RoundRect,0.075000X0.075000X-0.662500X0.075000X0.662500X-0.075000X0.662500X-0.075000X-0.662500X0*%
%ADD76RoundRect,0.075000X0.662500X-0.075000X0.662500X0.075000X-0.662500X0.075000X-0.662500X-0.075000X0*%
%ADD77RoundRect,1.000000X0.000009X0.000011X-0.000011X0.000009X-0.000009X-0.000011X0.000011X-0.000009X0*%
%ADD78RoundRect,0.200000X0.200000X0.300000X-0.200000X0.300000X-0.200000X-0.300000X0.200000X-0.300000X0*%
%ADD79R,1.600000X5.700000*%
%ADD80RoundRect,1.400000X-0.800000X0.800000X-0.800000X-0.800000X0.800000X-0.800000X0.800000X0.800000X0*%
G04 APERTURE END LIST*
D10*
%TO.C,C65*%
X19660000Y-5600000D03*
D11*
X19160000Y-5600000D03*
%TD*%
D12*
%TO.C,T9*%
X17780000Y-7025000D03*
X17780000Y-6895000D03*
X17580000Y-6960000D03*
%TD*%
D13*
%TO.C,J18*%
X19620000Y-7500000D03*
%TD*%
D14*
%TO.C,C1*%
X18422500Y-5560000D03*
X18717500Y-5560000D03*
%TD*%
D15*
%TO.C,R30*%
X17480000Y-9112500D03*
X17480000Y-8947500D03*
%TD*%
D16*
%TO.C,C51*%
X11395000Y-7310000D03*
X11205000Y-7310000D03*
%TD*%
D17*
%TO.C,H1*%
X10640000Y-9650000D03*
%TD*%
D18*
%TO.C,U12*%
X15025000Y-5540500D03*
X15025000Y-5413500D03*
X15025000Y-5286500D03*
X15025000Y-5159500D03*
X14500000Y-5159500D03*
X14500000Y-5286500D03*
X14500000Y-5413500D03*
X14500000Y-5540500D03*
%TD*%
D19*
%TO.C,D9*%
X12285000Y-9860000D03*
X12415000Y-9860000D03*
X12350000Y-9660000D03*
%TD*%
D17*
%TO.C,H4*%
X11670000Y-5350000D03*
%TD*%
D20*
%TO.C,R43*%
X10302500Y-9420000D03*
X10137500Y-9420000D03*
%TD*%
D15*
%TO.C,R31*%
X17300000Y-9112500D03*
X17300000Y-8947500D03*
%TD*%
D21*
%TO.C,U6*%
X13501250Y-7670000D03*
X13501250Y-7765000D03*
X13501250Y-7860000D03*
X13728750Y-7860000D03*
X13728750Y-7670000D03*
%TD*%
D22*
%TO.C,X8*%
X18210000Y-9725000D03*
D23*
X18360000Y-9725000D03*
X18510000Y-9725000D03*
%TD*%
D24*
%TO.C,C25*%
X17500000Y-7517500D03*
X17500000Y-7362500D03*
%TD*%
D25*
%TO.C,R2*%
X18800000Y-6687500D03*
X18800000Y-6852500D03*
%TD*%
D26*
%TO.C,R13*%
X17227500Y-7030000D03*
X17392500Y-7030000D03*
%TD*%
D27*
%TO.C,U15*%
X15375000Y-6290000D03*
X15280000Y-6290000D03*
X15185000Y-6290000D03*
X15185000Y-6517500D03*
X15280000Y-6517500D03*
X15375000Y-6517500D03*
%TD*%
D28*
%TO.C,D2*%
X18170000Y-5940000D03*
X18170000Y-5540000D03*
%TD*%
D29*
%TO.C,U14*%
X15690500Y-7992500D03*
X15563500Y-7992500D03*
X15436500Y-7992500D03*
X15309500Y-7992500D03*
X15309500Y-8487500D03*
X15436500Y-8487500D03*
X15563500Y-8487500D03*
X15690500Y-8487500D03*
%TD*%
D30*
%TO.C,D17*%
X14560000Y-7060000D03*
X14960000Y-7060000D03*
%TD*%
D31*
%TO.C,X1*%
X16460000Y-5694000D03*
X17360000Y-5694000D03*
D32*
X16760000Y-5300000D03*
D33*
X17060000Y-5300000D03*
X16760000Y-5600000D03*
X17060000Y-5600000D03*
%TD*%
D19*
%TO.C,D14*%
X12465000Y-7322500D03*
X12595000Y-7322500D03*
X12530000Y-7122500D03*
%TD*%
D20*
%TO.C,R19*%
X14972500Y-9480000D03*
X14807500Y-9480000D03*
%TD*%
D34*
%TO.C,T11*%
X17205000Y-6826000D03*
X17300000Y-6826000D03*
X17395000Y-6826000D03*
X17395000Y-6594000D03*
X17300000Y-6594000D03*
X17205000Y-6594000D03*
%TD*%
D35*
%TO.C,C50*%
X13085000Y-7680000D03*
X13275000Y-7680000D03*
%TD*%
D36*
%TO.C,R54*%
X12370000Y-5446250D03*
X12370000Y-5153750D03*
%TD*%
D15*
%TO.C,R56*%
X15570000Y-6272500D03*
X15570000Y-6107500D03*
%TD*%
D24*
%TO.C,C15*%
X16080000Y-6140000D03*
X16080000Y-5985000D03*
%TD*%
D37*
%TO.C,C44*%
X16780000Y-8542500D03*
X16780000Y-8697500D03*
%TD*%
D15*
%TO.C,R12*%
X17930000Y-7052500D03*
X17930000Y-6887500D03*
%TD*%
D38*
%TO.C,C21*%
X16157500Y-7380000D03*
X16002500Y-7380000D03*
%TD*%
D39*
%TO.C,D1*%
X18760000Y-5240000D03*
X18360000Y-5240000D03*
%TD*%
D40*
%TO.C,U2*%
X18389500Y-9218000D03*
X18516500Y-9218000D03*
X18643500Y-9218000D03*
X18770500Y-9218000D03*
X18770500Y-8662000D03*
X18643500Y-8662000D03*
X18516500Y-8662000D03*
X18389500Y-8662000D03*
D41*
X18502500Y-9000250D03*
X18657500Y-9000250D03*
X18502500Y-8879750D03*
X18657500Y-8879750D03*
%TD*%
D35*
%TO.C,C13*%
X17595000Y-8000000D03*
X17785000Y-8000000D03*
%TD*%
D38*
%TO.C,C5*%
X18557500Y-6700000D03*
X18402500Y-6700000D03*
%TD*%
D42*
%TO.C,C4*%
X18582500Y-8450250D03*
X18737500Y-8450250D03*
%TD*%
D43*
%TO.C,C62*%
X14260000Y-7142500D03*
X14260000Y-7437500D03*
%TD*%
D20*
%TO.C,R45*%
X12442500Y-9450000D03*
X12277500Y-9450000D03*
%TD*%
D44*
%TO.C,J7*%
X11080000Y-5300000D03*
%TD*%
%TO.C,J5*%
X13380000Y-9700000D03*
%TD*%
D16*
%TO.C,C52*%
X13505000Y-7310000D03*
X13315000Y-7310000D03*
%TD*%
D45*
%TO.C,L2*%
X18160000Y-8820000D03*
X17690000Y-8820000D03*
%TD*%
D46*
%TO.C,X5*%
X16960000Y-9350000D03*
D47*
X16960000Y-9500000D03*
X16960000Y-9650000D03*
X16960000Y-9800000D03*
%TD*%
D36*
%TO.C,R53*%
X10190000Y-5446250D03*
X10190000Y-5153750D03*
%TD*%
D26*
%TO.C,R1*%
X18387500Y-7000000D03*
X18552500Y-7000000D03*
%TD*%
%TO.C,R9*%
X16457500Y-6810000D03*
X16622500Y-6810000D03*
%TD*%
D40*
%TO.C,U1*%
X18409500Y-6508000D03*
X18536500Y-6508000D03*
X18663500Y-6508000D03*
X18790500Y-6508000D03*
X18790500Y-5952000D03*
X18663500Y-5952000D03*
X18536500Y-5952000D03*
X18409500Y-5952000D03*
D41*
X18522500Y-6290250D03*
X18677500Y-6290250D03*
X18522500Y-6169750D03*
X18677500Y-6169750D03*
%TD*%
D44*
%TO.C,J4*%
X11210000Y-9700000D03*
%TD*%
D48*
%TO.C,U7*%
X10967500Y-7325000D03*
X10967500Y-7230000D03*
X10967500Y-7135000D03*
X10740000Y-7135000D03*
X10740000Y-7325000D03*
%TD*%
D12*
%TO.C,T10*%
X16910000Y-6775000D03*
X16910000Y-6645000D03*
X16710000Y-6710000D03*
%TD*%
D49*
%TO.C,T7*%
X14260000Y-5845000D03*
D50*
X13780000Y-5945000D03*
D51*
X13840000Y-6750000D03*
%TD*%
D42*
%TO.C,C42*%
X17092500Y-8320000D03*
X17247500Y-8320000D03*
%TD*%
D35*
%TO.C,C46*%
X14545000Y-8940000D03*
X14735000Y-8940000D03*
%TD*%
D26*
%TO.C,R42*%
X15857500Y-8280000D03*
X16022500Y-8280000D03*
%TD*%
D52*
%TO.C,C55*%
X10680000Y-7857500D03*
X10680000Y-7562500D03*
%TD*%
D49*
%TO.C,T3*%
X12340000Y-9155000D03*
D53*
X12820000Y-9055000D03*
D54*
X12760000Y-8250000D03*
%TD*%
D46*
%TO.C,X6*%
X17400000Y-9350000D03*
D47*
X17400000Y-9500000D03*
X17400000Y-9650000D03*
X17400000Y-9800000D03*
%TD*%
D20*
%TO.C,R38*%
X13552500Y-7505000D03*
X13387500Y-7505000D03*
%TD*%
D19*
%TO.C,D12*%
X10295000Y-7330000D03*
X10425000Y-7330000D03*
X10360000Y-7130000D03*
%TD*%
D38*
%TO.C,C29*%
X15062500Y-8960000D03*
X14907500Y-8960000D03*
%TD*%
D24*
%TO.C,C35*%
X10570000Y-7297500D03*
X10570000Y-7142500D03*
%TD*%
D25*
%TO.C,R11*%
X17550000Y-6597500D03*
X17550000Y-6762500D03*
%TD*%
D52*
%TO.C,C57*%
X12600000Y-7857500D03*
X12600000Y-7562500D03*
%TD*%
D15*
%TO.C,R44*%
X12170000Y-7882500D03*
X12170000Y-7717500D03*
%TD*%
D20*
%TO.C,R41*%
X16022500Y-8420000D03*
X15857500Y-8420000D03*
%TD*%
D55*
%TO.C,C9*%
X17750000Y-5827000D03*
X17750000Y-5203000D03*
%TD*%
D42*
%TO.C,C37*%
X10922500Y-7860000D03*
X11077500Y-7860000D03*
%TD*%
D56*
%TO.C,TP1*%
X16010000Y-7780000D03*
%TD*%
D57*
%TO.C,D11*%
X12185000Y-5130000D03*
X12055000Y-5130000D03*
X12120000Y-5330000D03*
%TD*%
D28*
%TO.C,D3*%
X18360000Y-8340000D03*
X18360000Y-7940000D03*
%TD*%
D18*
%TO.C,U10*%
X15052500Y-8760500D03*
X15052500Y-8633500D03*
X15052500Y-8506500D03*
X15052500Y-8379500D03*
X14527500Y-8379500D03*
X14527500Y-8506500D03*
X14527500Y-8633500D03*
X14527500Y-8760500D03*
%TD*%
D15*
%TO.C,R27*%
X17480000Y-8742500D03*
X17480000Y-8577500D03*
%TD*%
D49*
%TO.C,T8*%
X12360000Y-6895000D03*
D53*
X12840000Y-6795000D03*
D54*
X12780000Y-5990000D03*
%TD*%
D20*
%TO.C,R37*%
X11402500Y-7500000D03*
X11237500Y-7500000D03*
%TD*%
D11*
%TO.C,FID2*%
X19780000Y-5220000D03*
%TD*%
D43*
%TO.C,C61*%
X11640000Y-7142500D03*
X11640000Y-7437500D03*
%TD*%
D37*
%TO.C,C20*%
X17190000Y-7232500D03*
X17190000Y-7387500D03*
%TD*%
D10*
%TO.C,C68*%
X19660000Y-9400000D03*
D11*
X19160000Y-9400000D03*
%TD*%
D19*
%TO.C,D7*%
X10145000Y-9870000D03*
X10275000Y-9870000D03*
X10210000Y-9670000D03*
%TD*%
D42*
%TO.C,C69*%
X11982500Y-9400000D03*
X12137500Y-9400000D03*
%TD*%
D37*
%TO.C,C34*%
X13910000Y-7682500D03*
X13910000Y-7837500D03*
%TD*%
D38*
%TO.C,C30*%
X14977500Y-6800000D03*
X14822500Y-6800000D03*
%TD*%
D25*
%TO.C,R50*%
X12320000Y-7137500D03*
X12320000Y-7302500D03*
%TD*%
D37*
%TO.C,C33*%
X11746250Y-7682500D03*
X11746250Y-7837500D03*
%TD*%
D15*
%TO.C,R4*%
X18790000Y-9575000D03*
X18790000Y-9410000D03*
%TD*%
D44*
%TO.C,J10*%
X13250000Y-5300000D03*
%TD*%
D15*
%TO.C,R23*%
X15690000Y-9112500D03*
X15690000Y-8947500D03*
%TD*%
D38*
%TO.C,C31*%
X14987500Y-5720000D03*
X14832500Y-5720000D03*
%TD*%
D24*
%TO.C,C26*%
X17350000Y-7517500D03*
X17350000Y-7362500D03*
%TD*%
D58*
%TO.C,R52*%
X14270000Y-9553750D03*
X14270000Y-9846250D03*
%TD*%
D59*
%TO.C,FB1*%
X17650000Y-7448750D03*
X17650000Y-7291250D03*
%TD*%
D25*
%TO.C,R17*%
X16340000Y-8537500D03*
X16340000Y-8702500D03*
%TD*%
D15*
%TO.C,R5*%
X18940000Y-8982500D03*
X18940000Y-8817500D03*
%TD*%
D25*
%TO.C,R33*%
X16520000Y-8947500D03*
X16520000Y-9112500D03*
%TD*%
D58*
%TO.C,R14*%
X15500000Y-6683750D03*
X15500000Y-6976250D03*
%TD*%
D37*
%TO.C,C18*%
X16630000Y-8542500D03*
X16630000Y-8697500D03*
%TD*%
D42*
%TO.C,C16*%
X15422500Y-7785997D03*
X15577500Y-7785997D03*
%TD*%
D21*
%TO.C,U5*%
X11352500Y-7657500D03*
X11352500Y-7752500D03*
X11352500Y-7847500D03*
X11580000Y-7847500D03*
X11580000Y-7657500D03*
%TD*%
D38*
%TO.C,C72*%
X12467500Y-5600000D03*
X12312500Y-5600000D03*
%TD*%
D35*
%TO.C,C12*%
X17935000Y-8410000D03*
X18125000Y-8410000D03*
%TD*%
D38*
%TO.C,C40*%
X13537500Y-7140000D03*
X13382500Y-7140000D03*
%TD*%
D25*
%TO.C,R63*%
X15570000Y-8157500D03*
X15570000Y-8322500D03*
%TD*%
D35*
%TO.C,C48*%
X14465000Y-5720000D03*
X14655000Y-5720000D03*
%TD*%
D49*
%TO.C,T5*%
X12120000Y-5845000D03*
D50*
X11640000Y-5945000D03*
D51*
X11700000Y-6750000D03*
%TD*%
D46*
%TO.C,X4*%
X16520000Y-9350000D03*
D47*
X16520000Y-9500000D03*
X16520000Y-9650000D03*
X16520000Y-9800000D03*
%TD*%
D52*
%TO.C,C54*%
X10440000Y-7857500D03*
X10440000Y-7562500D03*
%TD*%
D15*
%TO.C,R46*%
X14060000Y-7842500D03*
X14060000Y-7677500D03*
%TD*%
D22*
%TO.C,X11*%
X15330000Y-7465000D03*
D23*
X15480000Y-7465000D03*
X15630000Y-7465000D03*
X15780000Y-7465000D03*
%TD*%
D20*
%TO.C,R47*%
X12155000Y-5600000D03*
X11990000Y-5600000D03*
%TD*%
D15*
%TO.C,R26*%
X16820000Y-9112500D03*
X16820000Y-8947500D03*
%TD*%
D43*
%TO.C,C63*%
X14020000Y-7142500D03*
X14020000Y-7437500D03*
%TD*%
D57*
%TO.C,D4*%
X16395000Y-8930000D03*
X16265000Y-8930000D03*
X16330000Y-9130000D03*
%TD*%
D46*
%TO.C,X9*%
X17840000Y-9500000D03*
D47*
X17840000Y-9650000D03*
X17840000Y-9800000D03*
%TD*%
D42*
%TO.C,C41*%
X17212500Y-8170000D03*
X17367500Y-8170000D03*
%TD*%
D15*
%TO.C,R25*%
X16970000Y-9112500D03*
X16970000Y-8947500D03*
%TD*%
D52*
%TO.C,C56*%
X12360000Y-7857500D03*
X12360000Y-7562500D03*
%TD*%
D25*
%TO.C,R21*%
X16490000Y-8537500D03*
X16490000Y-8702500D03*
%TD*%
D35*
%TO.C,C45*%
X14475000Y-7860000D03*
X14665000Y-7860000D03*
%TD*%
D30*
%TO.C,D18*%
X14520000Y-5990000D03*
X14920000Y-5990000D03*
%TD*%
D60*
%TO.C,U13*%
X15890000Y-6700000D03*
D61*
X15699500Y-6987500D03*
X15826500Y-6987500D03*
X15953500Y-6987500D03*
X16080500Y-6987500D03*
X16080500Y-6412500D03*
X15953500Y-6412500D03*
X15826500Y-6412500D03*
X15699500Y-6412500D03*
D62*
X15760000Y-6765000D03*
X15890000Y-6765000D03*
X16020000Y-6765000D03*
X15760000Y-6635000D03*
X15890000Y-6635000D03*
X16020000Y-6635000D03*
%TD*%
D63*
%TO.C,C11*%
X18030000Y-8224000D03*
X18030000Y-7916000D03*
%TD*%
D52*
%TO.C,C53*%
X10200000Y-7857500D03*
X10200000Y-7562500D03*
%TD*%
D57*
%TO.C,D5*%
X15975000Y-8930000D03*
X15845000Y-8930000D03*
X15910000Y-9130000D03*
%TD*%
D64*
%TO.C,X12*%
X15405000Y-5915000D03*
X15405000Y-5165000D03*
D65*
X15318500Y-5815000D03*
X15318500Y-5665000D03*
X15318500Y-5615000D03*
X15318500Y-5565000D03*
X15318500Y-5515000D03*
X15318500Y-5465000D03*
X15318500Y-5415000D03*
X15318500Y-5265000D03*
X15491500Y-5265000D03*
X15491500Y-5415000D03*
X15491500Y-5465000D03*
X15491500Y-5515000D03*
X15491500Y-5565000D03*
X15491500Y-5615000D03*
X15491500Y-5665000D03*
X15491500Y-5815000D03*
D66*
X15190000Y-5780000D03*
X15620000Y-5780000D03*
X15190000Y-5300000D03*
X15620000Y-5300000D03*
%TD*%
D35*
%TO.C,C47*%
X14445000Y-6790000D03*
X14635000Y-6790000D03*
%TD*%
D26*
%TO.C,R49*%
X14155000Y-5600000D03*
X14320000Y-5600000D03*
%TD*%
D20*
%TO.C,R18*%
X15292500Y-9480000D03*
X15127500Y-9480000D03*
%TD*%
D67*
%TO.C,D20*%
X17716250Y-9240000D03*
X17903750Y-9240000D03*
%TD*%
D58*
%TO.C,R15*%
X16270000Y-6683750D03*
X16270000Y-6976250D03*
%TD*%
D42*
%TO.C,C10*%
X17732500Y-6030000D03*
X17887500Y-6030000D03*
%TD*%
D17*
%TO.C,H2*%
X12790000Y-9650000D03*
%TD*%
D20*
%TO.C,R20*%
X14662500Y-9480000D03*
X14497500Y-9480000D03*
%TD*%
D42*
%TO.C,C70*%
X14160000Y-9410000D03*
X14315000Y-9410000D03*
%TD*%
D43*
%TO.C,C60*%
X11880000Y-7142500D03*
X11880000Y-7437500D03*
%TD*%
D38*
%TO.C,C39*%
X11397500Y-7140000D03*
X11242500Y-7140000D03*
%TD*%
D49*
%TO.C,T1*%
X10200000Y-9155000D03*
D53*
X10680000Y-9055000D03*
D54*
X10620000Y-8250000D03*
%TD*%
D42*
%TO.C,C7*%
X18492500Y-6850000D03*
X18647500Y-6850000D03*
%TD*%
D57*
%TO.C,D10*%
X14335000Y-7660000D03*
X14205000Y-7660000D03*
X14270000Y-7860000D03*
%TD*%
D46*
%TO.C,X3*%
X15640000Y-9350000D03*
D47*
X15640000Y-9500000D03*
X15640000Y-9650000D03*
X15640000Y-9800000D03*
%TD*%
D38*
%TO.C,C27*%
X17437500Y-7750000D03*
X17282500Y-7750000D03*
%TD*%
D26*
%TO.C,R36*%
X17567500Y-7830000D03*
X17732500Y-7830000D03*
%TD*%
D15*
%TO.C,R64*%
X15430000Y-8322500D03*
X15430000Y-8157500D03*
%TD*%
D42*
%TO.C,C3*%
X18512500Y-5750000D03*
X18667500Y-5750000D03*
%TD*%
D68*
%TO.C,X2*%
X15870000Y-5140000D03*
D69*
X16070000Y-5300000D03*
D70*
X16070000Y-5550000D03*
%TD*%
D42*
%TO.C,C8*%
X18482500Y-9420000D03*
X18637500Y-9420000D03*
%TD*%
D46*
%TO.C,X7*%
X16080000Y-9350000D03*
D47*
X16080000Y-9500000D03*
X16080000Y-9650000D03*
X16080000Y-9800000D03*
%TD*%
D15*
%TO.C,R62*%
X15290000Y-8322500D03*
X15290000Y-8157500D03*
%TD*%
D11*
%TO.C,FID1*%
X19780000Y-9780000D03*
%TD*%
D71*
%TO.C,J19*%
X18800000Y-7500000D03*
%TD*%
D17*
%TO.C,H5*%
X13820000Y-5350000D03*
%TD*%
D57*
%TO.C,D6*%
X15325000Y-9120000D03*
X15195000Y-9120000D03*
X15260000Y-9320000D03*
%TD*%
D52*
%TO.C,C58*%
X12840000Y-7857500D03*
X12840000Y-7562500D03*
%TD*%
D35*
%TO.C,C49*%
X10915000Y-7680000D03*
X11105000Y-7680000D03*
%TD*%
D38*
%TO.C,C71*%
X10287500Y-5600000D03*
X10132500Y-5600000D03*
%TD*%
D43*
%TO.C,C59*%
X12120000Y-7142500D03*
X12120000Y-7437500D03*
%TD*%
D72*
%TO.C,C67*%
X19660000Y-8350000D03*
D11*
X19161903Y-8306422D03*
%TD*%
D15*
%TO.C,R29*%
X17120000Y-8742500D03*
X17120000Y-8577500D03*
%TD*%
D19*
%TO.C,D19*%
X15215000Y-7230000D03*
X15345000Y-7230000D03*
X15280000Y-7030000D03*
%TD*%
D30*
%TO.C,D15*%
X14530000Y-8130000D03*
X14930000Y-8130000D03*
%TD*%
D57*
%TO.C,D13*%
X14320000Y-5130000D03*
X14190000Y-5130000D03*
X14255000Y-5330000D03*
%TD*%
D24*
%TO.C,C36*%
X12740000Y-7307500D03*
X12740000Y-7152500D03*
%TD*%
D26*
%TO.C,R55*%
X15145000Y-6120000D03*
X15310000Y-6120000D03*
%TD*%
D73*
%TO.C,T12*%
X16526000Y-5952000D03*
D74*
X17156000Y-6180000D03*
D73*
X16526000Y-6408000D03*
%TD*%
D25*
%TO.C,R48*%
X10150000Y-7137500D03*
X10150000Y-7302500D03*
%TD*%
D43*
%TO.C,C64*%
X13780000Y-7142500D03*
X13780000Y-7437500D03*
%TD*%
D44*
%TO.C,J3*%
X11720000Y-9700000D03*
%TD*%
D58*
%TO.C,R51*%
X12100000Y-9550000D03*
X12100000Y-9842500D03*
%TD*%
D20*
%TO.C,R40*%
X13182500Y-7490000D03*
X13017500Y-7490000D03*
%TD*%
D18*
%TO.C,U11*%
X14982500Y-6620500D03*
X14982500Y-6493500D03*
X14982500Y-6366500D03*
X14982500Y-6239500D03*
X14457500Y-6239500D03*
X14457500Y-6366500D03*
X14457500Y-6493500D03*
X14457500Y-6620500D03*
%TD*%
D49*
%TO.C,T4*%
X14240000Y-8105000D03*
D50*
X13760000Y-8205000D03*
D51*
X13820000Y-9010000D03*
%TD*%
D25*
%TO.C,R6*%
X18790000Y-9697500D03*
X18790000Y-9862500D03*
%TD*%
D48*
%TO.C,U8*%
X13133750Y-7325000D03*
X13133750Y-7230000D03*
X13133750Y-7135000D03*
X12906250Y-7135000D03*
X12906250Y-7325000D03*
%TD*%
D57*
%TO.C,D8*%
X12015000Y-7680000D03*
X11885000Y-7680000D03*
X11950000Y-7880000D03*
%TD*%
D24*
%TO.C,C6*%
X18240000Y-9425000D03*
X18240000Y-9270000D03*
%TD*%
D20*
%TO.C,R39*%
X11032500Y-7480000D03*
X10867500Y-7480000D03*
%TD*%
D15*
%TO.C,R8*%
X17050000Y-6832500D03*
X17050000Y-6667500D03*
%TD*%
D22*
%TO.C,X10*%
X14580000Y-9730000D03*
D23*
X14730000Y-9730000D03*
X14880000Y-9730000D03*
X15030000Y-9730000D03*
X15180000Y-9730000D03*
%TD*%
D15*
%TO.C,R7*%
X16940000Y-7130000D03*
X16940000Y-6965000D03*
%TD*%
D75*
%TO.C,U4*%
X16325000Y-8226250D03*
X16375000Y-8226250D03*
X16425000Y-8226250D03*
X16475000Y-8226250D03*
X16525000Y-8226250D03*
X16575000Y-8226250D03*
X16625000Y-8226250D03*
X16675000Y-8226250D03*
X16725000Y-8226250D03*
X16775000Y-8226250D03*
X16825000Y-8226250D03*
X16875000Y-8226250D03*
D76*
X17016250Y-8085000D03*
X17016250Y-8035000D03*
X17016250Y-7985000D03*
X17016250Y-7935000D03*
X17016250Y-7885000D03*
X17016250Y-7835000D03*
X17016250Y-7785000D03*
X17016250Y-7735000D03*
X17016250Y-7685000D03*
X17016250Y-7635000D03*
X17016250Y-7585000D03*
X17016250Y-7535000D03*
D75*
X16875000Y-7393750D03*
X16825000Y-7393750D03*
X16775000Y-7393750D03*
X16725000Y-7393750D03*
X16675000Y-7393750D03*
X16625000Y-7393750D03*
X16575000Y-7393750D03*
X16525000Y-7393750D03*
X16475000Y-7393750D03*
X16425000Y-7393750D03*
X16375000Y-7393750D03*
X16325000Y-7393750D03*
D76*
X16183750Y-7535000D03*
X16183750Y-7585000D03*
X16183750Y-7635000D03*
X16183750Y-7685000D03*
X16183750Y-7735000D03*
X16183750Y-7785000D03*
X16183750Y-7835000D03*
X16183750Y-7885000D03*
X16183750Y-7935000D03*
X16183750Y-7985000D03*
X16183750Y-8035000D03*
X16183750Y-8085000D03*
%TD*%
D15*
%TO.C,R61*%
X15710000Y-8317500D03*
X15710000Y-8152500D03*
%TD*%
D26*
%TO.C,R3*%
X18697500Y-7000000D03*
X18862500Y-7000000D03*
%TD*%
D42*
%TO.C,C43*%
X17212500Y-8020000D03*
X17367500Y-8020000D03*
%TD*%
D44*
%TO.C,J6*%
X13890000Y-9700000D03*
%TD*%
D77*
%TO.C,C66*%
X19660000Y-6650000D03*
D11*
X19161903Y-6693578D03*
%TD*%
D15*
%TO.C,R57*%
X18080000Y-9432500D03*
X18080000Y-9267500D03*
%TD*%
D52*
%TO.C,C14*%
X16260000Y-6217500D03*
X16260000Y-5922500D03*
%TD*%
D18*
%TO.C,U9*%
X15040000Y-7690500D03*
X15040000Y-7563500D03*
X15040000Y-7436500D03*
X15040000Y-7309500D03*
X14515000Y-7309500D03*
X14515000Y-7436500D03*
X14515000Y-7563500D03*
X14515000Y-7690500D03*
%TD*%
D37*
%TO.C,C17*%
X15280000Y-8672500D03*
X15280000Y-8827500D03*
%TD*%
D49*
%TO.C,T6*%
X10220000Y-6895000D03*
D53*
X10700000Y-6795000D03*
D54*
X10640000Y-5990000D03*
%TD*%
D37*
%TO.C,C32*%
X16930000Y-8552500D03*
X16930000Y-8707500D03*
%TD*%
D38*
%TO.C,C19*%
X16007500Y-8120000D03*
X15852500Y-8120000D03*
%TD*%
D37*
%TO.C,C22*%
X16190000Y-8592500D03*
X16190000Y-8747500D03*
%TD*%
D15*
%TO.C,R32*%
X17300000Y-8742500D03*
X17300000Y-8577500D03*
%TD*%
D20*
%TO.C,R24*%
X15362500Y-8970000D03*
X15197500Y-8970000D03*
%TD*%
D38*
%TO.C,C28*%
X15017500Y-7860000D03*
X14862500Y-7860000D03*
%TD*%
D30*
%TO.C,D16*%
X14580000Y-9210000D03*
X14980000Y-9210000D03*
%TD*%
D52*
%TO.C,C2*%
X18690000Y-8287500D03*
X18690000Y-7992500D03*
%TD*%
D26*
%TO.C,R10*%
X16457500Y-6610000D03*
X16622500Y-6610000D03*
%TD*%
D78*
%TO.C,U3*%
X17785000Y-8175000D03*
X17595000Y-8175000D03*
X17690000Y-8425000D03*
%TD*%
D15*
%TO.C,R28*%
X17120000Y-9112500D03*
X17120000Y-8947500D03*
%TD*%
D44*
%TO.C,J8*%
X10570000Y-5300000D03*
%TD*%
D26*
%TO.C,R35*%
X17567500Y-7690000D03*
X17732500Y-7690000D03*
%TD*%
D17*
%TO.C,H3*%
X18100000Y-7500000D03*
%TD*%
D37*
%TO.C,C23*%
X16020000Y-8592500D03*
X16020000Y-8747500D03*
%TD*%
D15*
%TO.C,R22*%
X16130000Y-9112500D03*
X16130000Y-8947500D03*
%TD*%
D42*
%TO.C,C38*%
X13062500Y-7860000D03*
X13217500Y-7860000D03*
%TD*%
D79*
%TO.C,L1*%
X18200000Y-6440000D03*
X17730000Y-6440000D03*
%TD*%
D37*
%TO.C,C24*%
X15840000Y-8592500D03*
X15840000Y-8747500D03*
%TD*%
D80*
%TO.C,J9*%
X12740000Y-5300000D03*
%TD*%
D20*
%TO.C,R16*%
X15582500Y-8690000D03*
X15417500Y-8690000D03*
%TD*%
D49*
%TO.C,T2*%
X12100000Y-8105000D03*
D50*
X11620000Y-8205000D03*
D51*
X11680000Y-9010000D03*
%TD*%
D25*
%TO.C,R34*%
X16670000Y-8947500D03*
X16670000Y-9112500D03*
%TD*%
M02*
