M48
; DRILL file {KiCad 9.0.2} date 2025-07-16T17:02:01+0300
; FORMAT={-:-/ absolute / metric / decimal}
; #@! TF.CreationDate,2025-07-16T17:02:01+03:00
; #@! TF.GenerationSoftware,Kicad,Pcbnew,9.0.2
; #@! TF.FileFunction,MixedPlating,1,4
FMAT,2
METRIC
; #@! TA.AperFunction,Plated,PTH,ComponentDrill
T1C0.330
; #@! TA.AperFunction,Plated,PTH,ViaDrill
T2C0.400
; #@! TA.AperFunction,Plated,PTH,ComponentDrill
T3C0.600
; #@! TA.AperFunction,Plated,PTH,ComponentDrill
T4C0.730
; #@! TA.AperFunction,Plated,PTH,ComponentDrill
T5C1.000
; #@! TA.AperFunction,Plated,PTH,ComponentDrill
T6C1.020
; #@! TA.AperFunction,Plated,PTH,ComponentDrill
T7C3.000
; #@! TA.AperFunction,Plated,PTH,ComponentDrill
T8C4.400
; #@! TA.AperFunction,NonPlated,NPTH,ComponentDrill
T9C0.520
; #@! TA.AperFunction,NonPlated,NPTH,ComponentDrill
T10C1.020
; #@! TA.AperFunction,NonPlated,NPTH,ComponentDrill
T11C1.200
; #@! TA.AperFunction,NonPlated,NPTH,ComponentDrill
T12C3.200
%
G90
G05
T1
X157.6Y-66.35
X157.6Y-67.65
X158.9Y-66.35
X158.9Y-67.65
X160.2Y-66.35
X160.2Y-67.65
T2
X101.7Y-95.5
X102.0Y-77.1
X102.6Y-81.0
X102.6Y-82.2
X102.6Y-83.4
X102.6Y-84.6
X102.6Y-85.8
X102.6Y-87.0
X102.8Y-58.4
X102.8Y-59.6
X102.8Y-60.8
X103.0Y-66.0
X103.2Y-77.1
X103.2Y-90.6
X103.4Y-66.7
X103.5Y-74.2
X103.8Y-66.0
X103.8Y-81.0
X103.8Y-82.2
X103.8Y-83.4
X103.8Y-84.6
X103.8Y-85.8
X103.8Y-87.0
X103.8Y-89.8
X104.0Y-58.4
X104.0Y-59.6
X104.0Y-60.8
X104.2Y-66.7
X104.4Y-77.1
X104.4Y-90.6
X104.6Y-66.0
X105.0Y-66.7
X105.0Y-81.0
X105.0Y-82.2
X105.0Y-83.4
X105.0Y-84.6
X105.0Y-85.8
X105.0Y-87.0
X105.0Y-89.8
X105.2Y-58.4
X105.2Y-59.6
X105.2Y-60.8
X105.4Y-66.0
X105.6Y-77.1
X105.6Y-90.6
X105.8Y-66.7
X106.2Y-66.0
X106.2Y-82.2
X106.2Y-83.4
X106.2Y-84.6
X106.2Y-85.8
X106.2Y-87.0
X106.2Y-89.8
X106.4Y-58.4
X106.4Y-59.6
X106.4Y-60.8
X106.4Y-73.8
X106.4Y-81.0
X106.6Y-66.7
X106.8Y-72.3
X106.8Y-77.1
X106.8Y-90.6
X107.0Y-66.0
X107.4Y-66.7
X107.4Y-81.0
X107.4Y-82.2
X107.4Y-83.4
X107.4Y-84.6
X107.4Y-85.8
X107.4Y-87.0
X107.4Y-89.8
X107.6Y-58.4
X107.6Y-59.6
X107.6Y-60.8
X107.8Y-66.0
X108.0Y-90.6
X108.2Y-66.7
X108.2Y-72.3
X108.6Y-66.0
X108.6Y-81.0
X108.6Y-82.2
X108.6Y-83.4
X108.6Y-84.6
X108.6Y-85.8
X108.6Y-87.0
X108.6Y-89.8
X108.8Y-58.4
X108.8Y-59.6
X108.8Y-60.8
X109.0Y-66.7
X109.2Y-90.6
X109.4Y-66.0
X109.8Y-66.7
X109.8Y-81.0
X109.8Y-82.2
X109.8Y-83.4
X109.8Y-84.6
X109.8Y-85.8
X109.8Y-87.0
X109.8Y-89.8
X110.0Y-58.4
X110.0Y-59.6
X110.0Y-60.8
X110.2Y-66.0
X110.4Y-90.6
X110.6Y-66.7
X111.3Y-74.9
X112.8Y-59.4
X112.8Y-83.2
X113.2Y-83.9
X113.2Y-89.2
X113.2Y-90.4
X113.2Y-91.6
X113.4Y-60.2
X113.4Y-63.0
X113.4Y-64.2
X113.4Y-65.4
X113.4Y-66.6
X113.4Y-67.8
X113.4Y-69.0
X113.6Y-83.2
X114.0Y-59.4
X114.0Y-83.9
X114.4Y-83.2
X114.4Y-89.2
X114.4Y-90.4
X114.4Y-91.6
X114.6Y-60.2
X114.6Y-63.0
X114.6Y-64.2
X114.6Y-65.4
X114.6Y-66.6
X114.6Y-67.8
X114.6Y-69.0
X114.8Y-77.5
X114.8Y-83.9
X114.959Y-75.025
X115.2Y-59.4
X115.2Y-83.2
X115.6Y-83.9
X115.6Y-89.2
X115.6Y-90.4
X115.6Y-91.6
X115.8Y-60.2
X115.8Y-63.0
X115.8Y-64.2
X115.8Y-65.4
X115.8Y-66.6
X115.8Y-67.8
X115.8Y-69.0
X116.0Y-83.2
X116.4Y-59.4
X116.4Y-72.9
X116.4Y-77.5
X116.4Y-83.9
X116.7Y-75.9
X116.8Y-83.2
X116.8Y-89.2
X116.8Y-90.4
X116.8Y-91.6
X117.0Y-60.2
X117.0Y-63.0
X117.0Y-64.2
X117.0Y-65.4
X117.0Y-66.6
X117.0Y-67.8
X117.0Y-69.0
X117.2Y-83.9
X117.6Y-59.4
X117.6Y-72.9
X117.6Y-83.2
X118.0Y-83.9
X118.0Y-89.2
X118.0Y-90.4
X118.0Y-91.6
X118.2Y-60.2
X118.2Y-63.0
X118.2Y-64.2
X118.2Y-65.4
X118.2Y-66.6
X118.2Y-67.8
X118.2Y-69.0
X118.4Y-83.2
X118.8Y-59.4
X118.8Y-72.9
X118.8Y-83.9
X119.2Y-83.2
X119.2Y-89.2
X119.2Y-90.4
X119.2Y-91.6
X119.4Y-60.2
X119.4Y-63.0
X119.4Y-64.2
X119.4Y-65.4
X119.4Y-66.6
X119.4Y-67.8
X119.4Y-69.0
X119.6Y-83.9
X120.0Y-59.4
X120.0Y-72.9
X120.0Y-83.2
X120.4Y-83.9
X120.4Y-89.2
X120.4Y-90.4
X120.4Y-91.6
X120.6Y-63.0
X120.6Y-64.2
X120.6Y-65.4
X120.6Y-66.6
X120.6Y-67.8
X120.6Y-69.0
X120.9Y-76.5
X121.2Y-72.9
X122.0Y-54.5
X122.4Y-96.8
X123.6Y-77.1
X123.9Y-73.7
X124.0Y-81.0
X124.0Y-82.2
X124.0Y-83.4
X124.0Y-84.6
X124.0Y-85.8
X124.0Y-87.0
X124.2Y-58.4
X124.2Y-59.6
X124.2Y-60.8
X124.2Y-66.1
X124.6Y-66.8
X124.6Y-90.6
X124.8Y-77.1
X125.0Y-66.1
X125.2Y-81.0
X125.2Y-82.2
X125.2Y-83.4
X125.2Y-84.6
X125.2Y-85.8
X125.2Y-87.0
X125.2Y-89.8
X125.4Y-58.4
X125.4Y-59.6
X125.4Y-60.8
X125.4Y-66.8
X125.8Y-66.1
X125.8Y-90.6
X126.0Y-77.1
X126.2Y-66.8
X126.4Y-81.0
X126.4Y-82.2
X126.4Y-83.4
X126.4Y-84.6
X126.4Y-85.8
X126.4Y-87.0
X126.4Y-89.8
X126.6Y-58.4
X126.6Y-59.6
X126.6Y-60.8
X126.6Y-66.1
X127.0Y-66.8
X127.0Y-90.6
X127.2Y-77.1
X127.4Y-66.1
X127.6Y-81.0
X127.6Y-82.2
X127.6Y-83.4
X127.6Y-84.6
X127.6Y-85.8
X127.6Y-87.0
X127.6Y-89.8
X127.8Y-58.4
X127.8Y-59.6
X127.8Y-60.8
X127.8Y-66.8
X128.2Y-66.1
X128.2Y-74.0
X128.2Y-90.6
X128.4Y-72.3
X128.4Y-77.1
X128.6Y-66.8
X128.8Y-81.0
X128.8Y-82.2
X128.8Y-83.4
X128.8Y-84.6
X128.8Y-85.8
X128.8Y-87.0
X128.8Y-89.8
X129.0Y-58.4
X129.0Y-59.6
X129.0Y-60.8
X129.0Y-66.1
X129.4Y-66.8
X129.4Y-90.6
X129.8Y-66.1
X130.0Y-72.3
X130.0Y-81.0
X130.0Y-82.2
X130.0Y-83.4
X130.0Y-84.6
X130.0Y-85.8
X130.0Y-87.0
X130.0Y-89.8
X130.2Y-58.4
X130.2Y-59.6
X130.2Y-60.8
X130.2Y-66.8
X130.6Y-66.1
X130.6Y-90.6
X131.0Y-66.8
X131.2Y-81.0
X131.2Y-82.2
X131.2Y-83.4
X131.2Y-84.6
X131.2Y-85.8
X131.2Y-87.0
X131.2Y-89.8
X131.4Y-58.4
X131.4Y-59.6
X131.4Y-60.8
X131.4Y-66.1
X131.8Y-66.8
X131.8Y-90.6
X132.8Y-74.95
X134.0Y-83.2
X134.2Y-59.4
X134.4Y-83.9
X134.6Y-89.2
X134.6Y-90.4
X134.6Y-91.6
X134.8Y-60.2
X134.8Y-63.0
X134.8Y-64.2
X134.8Y-65.4
X134.8Y-66.6
X134.8Y-67.8
X134.8Y-69.0
X134.8Y-83.2
X135.2Y-83.9
X135.4Y-59.4
X135.6Y-83.2
X135.8Y-89.2
X135.8Y-90.4
X135.8Y-91.6
X136.0Y-60.2
X136.0Y-63.0
X136.0Y-64.2
X136.0Y-65.4
X136.0Y-66.6
X136.0Y-67.8
X136.0Y-69.0
X136.0Y-83.9
X136.35Y-77.7
X136.4Y-83.2
X136.5Y-75.3
X136.6Y-59.4
X136.8Y-83.9
X137.0Y-89.2
X137.0Y-90.4
X137.0Y-91.6
X137.2Y-60.2
X137.2Y-63.0
X137.2Y-64.2
X137.2Y-65.4
X137.2Y-66.6
X137.2Y-67.8
X137.2Y-69.0
X137.2Y-83.2
X137.6Y-83.9
X137.8Y-59.4
X137.8Y-72.9
X138.0Y-83.2
X138.1Y-77.7
X138.2Y-89.2
X138.2Y-90.4
X138.2Y-91.6
X138.35Y-76.05
X138.4Y-60.2
X138.4Y-63.0
X138.4Y-64.2
X138.4Y-65.4
X138.4Y-66.6
X138.4Y-67.8
X138.4Y-69.0
X138.4Y-83.9
X138.8Y-83.2
X139.0Y-59.4
X139.0Y-72.9
X139.2Y-83.9
X139.4Y-89.2
X139.4Y-90.4
X139.4Y-91.6
X139.6Y-60.2
X139.6Y-63.0
X139.6Y-64.2
X139.6Y-65.4
X139.6Y-66.6
X139.6Y-67.8
X139.6Y-69.0
X139.6Y-83.2
X140.0Y-83.9
X140.2Y-59.4
X140.2Y-72.9
X140.4Y-83.2
X140.6Y-89.2
X140.6Y-90.5
X140.6Y-91.6
X140.8Y-60.2
X140.8Y-63.0
X140.8Y-64.2
X140.8Y-65.4
X140.8Y-66.6
X140.8Y-67.8
X140.8Y-69.0
X140.8Y-83.9
X141.2Y-83.2
X141.4Y-59.4
X141.4Y-72.9
X141.6Y-83.9
X141.8Y-89.2
X141.8Y-90.4
X141.8Y-91.6
X142.0Y-63.0
X142.0Y-64.2
X142.0Y-65.4
X142.0Y-66.6
X142.0Y-67.8
X142.0Y-69.0
X142.6Y-72.9
X146.0Y-65.9
X146.5Y-88.3
X146.6Y-51.6
X146.6Y-53.0
X146.7Y-84.1
X146.8Y-61.2
X146.8Y-73.6
X146.8Y-74.8
X146.8Y-75.9
X147.1Y-65.9
X147.2Y-60.0
X147.3Y-69.0
X147.7Y-90.9
X148.1Y-73.6
X148.3Y-84.0
X148.7Y-51.5
X148.8Y-52.9
X148.8Y-54.1
X148.8Y-55.4
X149.0Y-74.65
X149.0Y-75.9
X149.2Y-83.0
X149.3Y-81.3
X149.8Y-92.1
X150.05Y-69.1
X151.3Y-69.4
X151.9Y-54.9
X151.9Y-67.7
X151.9Y-75.0
X152.0Y-80.1
X152.0Y-82.4
X153.0Y-66.3
X153.2Y-92.2
X154.1Y-53.5
X154.1Y-57.3
X154.1Y-60.6
X154.2Y-88.6
X154.35Y-79.3
X155.1Y-68.5
X155.3Y-88.6
X155.6Y-65.6
X156.2Y-56.0
X157.6Y-88.4
X158.0Y-90.3
X158.2Y-78.5
X158.3Y-69.2
X158.9Y-60.7
X158.9Y-61.4
X159.2Y-80.2
X159.5Y-69.2
X159.5Y-83.5
X159.9Y-88.5
X160.8Y-69.2
X161.9Y-88.5
X162.5Y-68.5
X162.5Y-82.7
X162.5Y-90.2
X162.55Y-74.0
X162.6Y-57.4
X162.6Y-60.7
X162.7Y-65.6
X163.2Y-80.8
X163.4Y-87.8
X163.7Y-75.3
X164.2Y-63.0
X164.3Y-79.7
X164.3Y-80.8
X164.6Y-62.4
X164.9Y-75.8
X165.0Y-63.0
X165.1Y-71.6
X165.4Y-62.4
X165.4Y-69.4
X165.4Y-79.7
X165.4Y-80.8
X165.8Y-63.0
X165.9Y-53.0
X165.9Y-88.6
X166.0Y-75.8
X166.1Y-52.0
X166.1Y-54.1
X166.5Y-69.4
X167.0Y-88.6
X167.1Y-75.788
X167.2Y-77.25
X167.6Y-69.4
X168.2Y-75.8
X168.2Y-79.7
X168.2Y-80.8
X168.2Y-88.6
X168.7Y-69.4
X169.5Y-73.2
X169.7Y-81.7
X169.7Y-88.6
X170.7Y-74.2
X171.0Y-69.4
X171.6Y-75.1
X171.6Y-84.3
X171.8Y-77.6
X172.5Y-75.9
X172.6Y-84.3
X173.1Y-71.45
X173.7Y-83.5
X175.5Y-52.0
X175.9Y-82.5
X175.9Y-83.3
X176.9Y-75.7
X177.2Y-68.0
X177.4Y-57.8
X177.5Y-53.8
X177.7Y-71.6
X177.7Y-72.4
X178.3Y-71.9
X178.3Y-77.8
X178.3Y-83.1
X178.4Y-78.6
X179.5Y-52.0
X179.6Y-80.5
X179.7Y-66.7
X179.8Y-90.9
X180.0Y-60.3
X180.2Y-55.4
X180.45Y-70.5
X180.8Y-68.8
X180.8Y-71.05
X181.15Y-70.5
X181.2Y-80.5
X181.55Y-71.05
X181.7Y-52.4
X181.95Y-70.5
X182.1Y-78.9
X182.1Y-79.7
X182.35Y-71.05
X182.75Y-70.5
X183.15Y-71.05
X183.6Y-54.0
X183.6Y-81.3
X183.8Y-68.5
X183.8Y-94.2
X183.85Y-71.45
X184.1Y-77.5
X185.3Y-78.8
X185.3Y-79.6
X185.5Y-52.4
X185.8Y-89.4
X186.1Y-55.6
X186.7Y-66.9
X186.9Y-81.2
X188.2Y-89.0
X188.2Y-89.7
X188.7Y-61.1
X189.5Y-61.1
X190.3Y-61.1
X193.7Y-86.5
X193.8Y-63.5
X194.3Y-62.6
X194.3Y-64.4
X194.3Y-85.6
X194.3Y-87.4
X194.9Y-63.5
X194.9Y-86.5
X195.4Y-62.6
X195.4Y-64.4
X195.4Y-85.6
X195.4Y-87.4
X196.0Y-63.5
X196.0Y-86.5
X196.5Y-62.6
X196.5Y-64.4
X196.5Y-85.6
X196.5Y-87.4
X197.2Y-63.5
X197.2Y-86.5
X197.7Y-62.6
X197.7Y-64.4
X197.7Y-85.6
X197.7Y-87.4
X198.3Y-63.5
X198.3Y-86.5
X198.8Y-62.6
X198.8Y-64.4
X198.8Y-85.6
X198.8Y-87.4
T4
X145.8Y-97.3
X147.3Y-97.3
X148.8Y-97.3
X150.3Y-97.3
X151.8Y-97.3
X153.3Y-74.65
X154.8Y-74.65
X156.3Y-74.65
X156.4Y-93.5
X156.4Y-95.0
X156.4Y-96.5
X156.4Y-98.0
X157.8Y-74.65
X160.8Y-93.5
X160.8Y-95.0
X160.8Y-96.5
X160.8Y-98.0
X165.2Y-93.5
X165.2Y-95.0
X165.2Y-96.5
X165.2Y-98.0
X169.6Y-93.5
X169.6Y-95.0
X169.6Y-96.5
X169.6Y-98.0
X174.0Y-93.5
X174.0Y-95.0
X174.0Y-96.5
X174.0Y-98.0
X178.4Y-95.0
X178.4Y-96.5
X178.4Y-98.0
X182.1Y-97.25
X183.6Y-97.25
X185.1Y-97.25
T5
X160.7Y-53.0
X160.7Y-55.5
X191.6Y-56.0
X191.6Y-94.0
X191.619Y-66.936
X191.619Y-83.064
X196.6Y-56.0
X196.6Y-66.5
X196.6Y-83.5
X196.6Y-94.0
T6
X167.6Y-53.0
X167.6Y-56.0
X170.6Y-53.0
X170.6Y-56.0
T7
X105.7Y-53.0
X110.8Y-53.0
X112.1Y-97.0
X117.2Y-97.0
X127.4Y-53.0
X132.5Y-53.0
X133.8Y-97.0
X138.9Y-97.0
T8
X188.0Y-75.0
X196.2Y-75.0
T9
X154.05Y-51.65
X154.05Y-59.15
T10
X164.6Y-56.94
X173.6Y-56.94
T11
X158.7Y-51.4
T12
X106.4Y-96.5
X116.7Y-53.5
X127.9Y-96.5
X138.2Y-53.5
X181.0Y-75.0
T3
X151.9Y-53.125G85X151.9Y-52.875
G05
X151.9Y-57.925G85X151.9Y-57.675
G05
X156.2Y-53.125G85X156.2Y-52.875
G05
X156.2Y-57.925G85X156.2Y-57.675
G05
M30
