G04 #@! TF.GenerationSoftware,KiCad,Pcbnew,9.0.2*
G04 #@! TF.CreationDate,2025-07-16T17:02:00+03:00*
G04 #@! TF.ProjectId,dcesc-ga25,64636573-632d-4676-9132-352e6b696361,rev?*
G04 #@! TF.SameCoordinates,Original*
G04 #@! TF.FileFunction,Legend,Bot*
G04 #@! TF.FilePolarity,Positive*
%FSLAX46Y46*%
G04 Gerber Fmt 4.6, Leading zero omitted, Abs format (unit mm)*
G04 Created by KiCad (PCBNEW 9.0.2) date 2025-07-16 17:02:00*
%MOMM*%
%LPD*%
G01*
G04 APERTURE LIST*
G04 Aperture macros list*
%AMRoundRect*
0 Rectangle with rounded corners*
0 $1 Rounding radius*
0 $2 $3 $4 $5 $6 $7 $8 $9 X,Y pos of 4 corners*
0 Add a 4 corners polygon primitive as box body*
4,1,4,$2,$3,$4,$5,$6,$7,$8,$9,$2,$3,0*
0 Add four circle primitives for the rounded corners*
1,1,$1+$1,$2,$3*
1,1,$1+$1,$4,$5*
1,1,$1+$1,$6,$7*
1,1,$1+$1,$8,$9*
0 Add four rect primitives between the rounded corners*
20,1,$1+$1,$2,$3,$4,$5,0*
20,1,$1+$1,$4,$5,$6,$7,0*
20,1,$1+$1,$6,$7,$8,$9,0*
20,1,$1+$1,$8,$9,$2,$3,0*%
%AMFreePoly0*
4,1,23,0.500000,-0.750000,0.000000,-0.750000,0.000000,-0.745722,-0.065263,-0.745722,-0.191342,-0.711940,-0.304381,-0.646677,-0.396677,-0.554381,-0.461940,-0.441342,-0.495722,-0.315263,-0.495722,-0.250000,-0.500000,-0.250000,-0.500000,0.250000,-0.495722,0.250000,-0.495722,0.315263,-0.461940,0.441342,-0.396677,0.554381,-0.304381,0.646677,-0.191342,0.711940,-0.065263,0.745722,0.000000,0.745722,
0.000000,0.750000,0.500000,0.750000,0.500000,-0.750000,0.500000,-0.750000,$1*%
%AMFreePoly1*
4,1,23,0.000000,0.745722,0.065263,0.745722,0.191342,0.711940,0.304381,0.646677,0.396677,0.554381,0.461940,0.441342,0.495722,0.315263,0.495722,0.250000,0.500000,0.250000,0.500000,-0.250000,0.495722,-0.250000,0.495722,-0.315263,0.461940,-0.441342,0.396677,-0.554381,0.304381,-0.646677,0.191342,-0.711940,0.065263,-0.745722,0.000000,-0.745722,0.000000,-0.750000,-0.500000,-0.750000,
-0.500000,0.750000,0.000000,0.750000,0.000000,0.745722,0.000000,0.745722,$1*%
G04 Aperture macros list end*
%ADD10C,0.200000*%
%ADD11C,0.300000*%
%ADD12C,0.120000*%
%ADD13C,0.100000*%
%ADD14C,0.400000*%
%ADD15RoundRect,1.000000X0.000010X0.000010X-0.000010X0.000010X-0.000010X-0.000010X0.000010X-0.000010X0*%
%ADD16C,2.000000*%
%ADD17RoundRect,2.249998X-1.250002X-1.250002X1.250002X-1.250002X1.250002X1.250002X-1.250002X1.250002X0*%
%ADD18C,3.200000*%
%ADD19RoundRect,0.250000X-0.265000X-0.615000X0.265000X-0.615000X0.265000X0.615000X-0.265000X0.615000X0*%
%ADD20O,1.030000X1.730000*%
%ADD21C,1.020000*%
%ADD22RoundRect,0.666667X-0.333333X-0.333333X0.333333X-0.333333X0.333333X0.333333X-0.333333X0.333333X0*%
%ADD23RoundRect,1.400000X0.800000X-0.800000X0.800000X0.800000X-0.800000X0.800000X-0.800000X-0.800000X0*%
%ADD24RoundRect,0.250000X-0.615000X0.265000X-0.615000X-0.265000X0.615000X-0.265000X0.615000X0.265000X0*%
%ADD25O,1.730000X1.030000*%
%ADD26C,0.770000*%
%ADD27C,0.520000*%
%ADD28O,1.100000X2.200000*%
%ADD29C,1.200000*%
%ADD30RoundRect,0.250000X-0.750000X0.600000X-0.750000X-0.600000X0.750000X-0.600000X0.750000X0.600000X0*%
%ADD31O,2.000000X1.700000*%
%ADD32RoundRect,2.559998X-0.940002X-0.940002X0.940002X-0.940002X0.940002X0.940002X-0.940002X0.940002X0*%
%ADD33RoundRect,1.000000X0.000011X0.000009X-0.000009X0.000011X-0.000011X-0.000009X0.000009X-0.000011X0*%
%ADD34RoundRect,1.000000X0.000009X0.000011X-0.000011X0.000009X-0.000009X-0.000011X0.000011X-0.000009X0*%
%ADD35RoundRect,1.400000X-0.800000X0.800000X-0.800000X-0.800000X0.800000X-0.800000X0.800000X0.800000X0*%
%ADD36FreePoly0,0.000000*%
%ADD37FreePoly1,0.000000*%
%ADD38FreePoly0,180.000000*%
%ADD39FreePoly1,180.000000*%
G04 APERTURE END LIST*
D10*
X111950000Y-71500000D02*
X114150000Y-71500000D01*
X114950000Y-71500000D02*
X114990000Y-71500000D01*
X115790000Y-71500000D02*
X115830000Y-71500000D01*
X116630000Y-71500000D02*
X118830000Y-71500000D01*
X119630000Y-71500000D02*
X119670000Y-71500000D01*
X120470000Y-71500000D02*
X120510000Y-71500000D01*
X121310000Y-71500000D02*
X122650000Y-71500000D01*
X122100000Y-78500000D02*
X124300000Y-78500000D01*
X125100000Y-78500000D02*
X125140000Y-78500000D01*
X125940000Y-78500000D02*
X125980000Y-78500000D01*
X126780000Y-78500000D02*
X128980000Y-78500000D01*
X129780000Y-78500000D02*
X129820000Y-78500000D01*
X130620000Y-78500000D02*
X130660000Y-78500000D01*
X131460000Y-78500000D02*
X132800000Y-78500000D01*
X111700000Y-77000000D02*
X113900000Y-77000000D01*
X114700000Y-77000000D02*
X114740000Y-77000000D01*
X115540000Y-77000000D02*
X115580000Y-77000000D01*
X116380000Y-77000000D02*
X118580000Y-77000000D01*
X119380000Y-77000000D02*
X119420000Y-77000000D01*
X120220000Y-77000000D02*
X120260000Y-77000000D01*
X121060000Y-77000000D02*
X123260000Y-77000000D01*
X124060000Y-77000000D02*
X124100000Y-77000000D01*
X124900000Y-77000000D02*
X124940000Y-77000000D01*
X125740000Y-77000000D02*
X127940000Y-77000000D01*
X128740000Y-77000000D02*
X128780000Y-77000000D01*
X129580000Y-77000000D02*
X129620000Y-77000000D01*
X130420000Y-77000000D02*
X132620000Y-77000000D01*
X133420000Y-77000000D02*
X133460000Y-77000000D01*
X134260000Y-77000000D02*
X134300000Y-77000000D01*
X135100000Y-77000000D02*
X137300000Y-77000000D01*
X138100000Y-77000000D02*
X138140000Y-77000000D01*
X138940000Y-77000000D02*
X138980000Y-77000000D01*
X139780000Y-77000000D02*
X141980000Y-77000000D01*
X142780000Y-77000000D02*
X142820000Y-77000000D01*
X143620000Y-77000000D02*
X143660000Y-77000000D01*
X144460000Y-77000000D02*
X146660000Y-77000000D01*
X147460000Y-77000000D02*
X147500000Y-77000000D01*
X148300000Y-77000000D02*
X148340000Y-77000000D01*
X149140000Y-77000000D02*
X151340000Y-77000000D01*
X152140000Y-77000000D02*
X152180000Y-77000000D01*
X152980000Y-77000000D02*
X153020000Y-77000000D01*
X153820000Y-77000000D02*
X156020000Y-77000000D01*
X156820000Y-77000000D02*
X156860000Y-77000000D01*
X157660000Y-77000000D02*
X157700000Y-77000000D01*
X158500000Y-77000000D02*
X160700000Y-77000000D01*
X161500000Y-77000000D02*
X161540000Y-77000000D01*
X162340000Y-77000000D02*
X162380000Y-77000000D01*
X163180000Y-77000000D02*
X165380000Y-77000000D01*
X166180000Y-77000000D02*
X166220000Y-77000000D01*
X167020000Y-77000000D02*
X167060000Y-77000000D01*
X167860000Y-77000000D02*
X170060000Y-77000000D01*
X170860000Y-77000000D02*
X170900000Y-77000000D01*
X171700000Y-77000000D02*
X171740000Y-77000000D01*
X172540000Y-77000000D02*
X174740000Y-77000000D01*
X175540000Y-77000000D02*
X175580000Y-77000000D01*
X176380000Y-77000000D02*
X176420000Y-77000000D01*
X177220000Y-77000000D02*
X179420000Y-77000000D01*
X180220000Y-77000000D02*
X180260000Y-77000000D01*
X181060000Y-77000000D02*
X181100000Y-77000000D01*
X181900000Y-77000000D02*
X184100000Y-77000000D01*
X184900000Y-77000000D02*
X184940000Y-77000000D01*
X185740000Y-77000000D02*
X185780000Y-77000000D01*
X186580000Y-77000000D02*
X187000000Y-77000000D01*
X187000000Y-77000000D02*
X187000000Y-79200000D01*
X187000000Y-80000000D02*
X187000000Y-80000000D01*
X187000000Y-80000000D02*
X184800000Y-80000000D01*
X184000000Y-80000000D02*
X183960000Y-80000000D01*
X183160000Y-80000000D02*
X183120000Y-80000000D01*
X182320000Y-80000000D02*
X180120000Y-80000000D01*
X179320000Y-80000000D02*
X179280000Y-80000000D01*
X178480000Y-80000000D02*
X178440000Y-80000000D01*
X177640000Y-80000000D02*
X175440000Y-80000000D01*
X174640000Y-80000000D02*
X174600000Y-80000000D01*
X173800000Y-80000000D02*
X173760000Y-80000000D01*
X172960000Y-80000000D02*
X170760000Y-80000000D01*
X169960000Y-80000000D02*
X169920000Y-80000000D01*
X169120000Y-80000000D02*
X169080000Y-80000000D01*
X168280000Y-80000000D02*
X166080000Y-80000000D01*
X165280000Y-80000000D02*
X165240000Y-80000000D01*
X164440000Y-80000000D02*
X164400000Y-80000000D01*
X163600000Y-80000000D02*
X161400000Y-80000000D01*
X160600000Y-80000000D02*
X160560000Y-80000000D01*
X159760000Y-80000000D02*
X159720000Y-80000000D01*
X158920000Y-80000000D02*
X156720000Y-80000000D01*
X155920000Y-80000000D02*
X155880000Y-80000000D01*
X155080000Y-80000000D02*
X155040000Y-80000000D01*
X154240000Y-80000000D02*
X152040000Y-80000000D01*
X151240000Y-80000000D02*
X151200000Y-80000000D01*
X150400000Y-80000000D02*
X150360000Y-80000000D01*
X149560000Y-80000000D02*
X147360000Y-80000000D01*
X146560000Y-80000000D02*
X146520000Y-80000000D01*
X145720000Y-80000000D02*
X145680000Y-80000000D01*
X144880000Y-80000000D02*
X142680000Y-80000000D01*
X141880000Y-80000000D02*
X141840000Y-80000000D01*
X141040000Y-80000000D02*
X141000000Y-80000000D01*
X140200000Y-80000000D02*
X138000000Y-80000000D01*
X137200000Y-80000000D02*
X137160000Y-80000000D01*
X136360000Y-80000000D02*
X136320000Y-80000000D01*
X135520000Y-80000000D02*
X133320000Y-80000000D01*
X132520000Y-80000000D02*
X132480000Y-80000000D01*
X131680000Y-80000000D02*
X131640000Y-80000000D01*
X130840000Y-80000000D02*
X128640000Y-80000000D01*
X127840000Y-80000000D02*
X127800000Y-80000000D01*
X127000000Y-80000000D02*
X126960000Y-80000000D01*
X126160000Y-80000000D02*
X123960000Y-80000000D01*
X123160000Y-80000000D02*
X123120000Y-80000000D01*
X122320000Y-80000000D02*
X122280000Y-80000000D01*
X121480000Y-80000000D02*
X119280000Y-80000000D01*
X118480000Y-80000000D02*
X118440000Y-80000000D01*
X117640000Y-80000000D02*
X117600000Y-80000000D01*
X116800000Y-80000000D02*
X114600000Y-80000000D01*
X113800000Y-80000000D02*
X113760000Y-80000000D01*
X112960000Y-80000000D02*
X112920000Y-80000000D01*
X112120000Y-80000000D02*
X111700000Y-80000000D01*
X111700000Y-80000000D02*
X111700000Y-77800000D01*
X111700000Y-77000000D02*
X111700000Y-77000000D01*
X133000000Y-86500000D02*
X135200000Y-86500000D01*
X136000000Y-86500000D02*
X136040000Y-86500000D01*
X136840000Y-86500000D02*
X136880000Y-86500000D01*
X137680000Y-86500000D02*
X139880000Y-86500000D01*
X140680000Y-86500000D02*
X140720000Y-86500000D01*
X141520000Y-86500000D02*
X141560000Y-86500000D01*
X142360000Y-86500000D02*
X144560000Y-86500000D01*
X145360000Y-86500000D02*
X145400000Y-86500000D01*
X146200000Y-86500000D02*
X146240000Y-86500000D01*
X147040000Y-86500000D02*
X149240000Y-86500000D01*
X150040000Y-86500000D02*
X150080000Y-86500000D01*
X150880000Y-86500000D02*
X150920000Y-86500000D01*
X151720000Y-86500000D02*
X153920000Y-86500000D01*
X154720000Y-86500000D02*
X154760000Y-86500000D01*
X155560000Y-86500000D02*
X155600000Y-86500000D01*
X156400000Y-86500000D02*
X158600000Y-86500000D01*
X159400000Y-86500000D02*
X159440000Y-86500000D01*
X160240000Y-86500000D02*
X160280000Y-86500000D01*
X161080000Y-86500000D02*
X163280000Y-86500000D01*
X164080000Y-86500000D02*
X164120000Y-86500000D01*
X164920000Y-86500000D02*
X164960000Y-86500000D01*
X165760000Y-86500000D02*
X167960000Y-86500000D01*
X168760000Y-86500000D02*
X168800000Y-86500000D01*
X169600000Y-86500000D02*
X169640000Y-86500000D01*
X170440000Y-86500000D02*
X172640000Y-86500000D01*
X173440000Y-86500000D02*
X173480000Y-86500000D01*
X174280000Y-86500000D02*
X174320000Y-86500000D01*
X175120000Y-86500000D02*
X177320000Y-86500000D01*
X178120000Y-86500000D02*
X178160000Y-86500000D01*
X178960000Y-86500000D02*
X179000000Y-86500000D01*
X179800000Y-86500000D02*
X182000000Y-86500000D01*
X182800000Y-86500000D02*
X182840000Y-86500000D01*
X183640000Y-86500000D02*
X183680000Y-86500000D01*
X184480000Y-86500000D02*
X186680000Y-86500000D01*
X187480000Y-86500000D02*
X187520000Y-86500000D01*
X188320000Y-86500000D02*
X188360000Y-86500000D01*
X189160000Y-86500000D02*
X189400000Y-86500000D01*
X111750000Y-62000000D02*
X113950000Y-62000000D01*
X114750000Y-62000000D02*
X114790000Y-62000000D01*
X115590000Y-62000000D02*
X115630000Y-62000000D01*
X116430000Y-62000000D02*
X118630000Y-62000000D01*
X119430000Y-62000000D02*
X119470000Y-62000000D01*
X120270000Y-62000000D02*
X120310000Y-62000000D01*
X121110000Y-62000000D02*
X123310000Y-62000000D01*
X124110000Y-62000000D02*
X124150000Y-62000000D01*
X124950000Y-62000000D02*
X124990000Y-62000000D01*
X125790000Y-62000000D02*
X127990000Y-62000000D01*
X128790000Y-62000000D02*
X128830000Y-62000000D01*
X129630000Y-62000000D02*
X129670000Y-62000000D01*
X130470000Y-62000000D02*
X132670000Y-62000000D01*
X133470000Y-62000000D02*
X133510000Y-62000000D01*
X134310000Y-62000000D02*
X134350000Y-62000000D01*
X135150000Y-62000000D02*
X137350000Y-62000000D01*
X138150000Y-62000000D02*
X138190000Y-62000000D01*
X138990000Y-62000000D02*
X139030000Y-62000000D01*
X139830000Y-62000000D02*
X142030000Y-62000000D01*
X142830000Y-62000000D02*
X142870000Y-62000000D01*
X143670000Y-62000000D02*
X143710000Y-62000000D01*
X144510000Y-62000000D02*
X146710000Y-62000000D01*
X147510000Y-62000000D02*
X147550000Y-62000000D01*
X148350000Y-62000000D02*
X148390000Y-62000000D01*
X149190000Y-62000000D02*
X151390000Y-62000000D01*
X152190000Y-62000000D02*
X152230000Y-62000000D01*
X153030000Y-62000000D02*
X153070000Y-62000000D01*
X153870000Y-62000000D02*
X156070000Y-62000000D01*
X156870000Y-62000000D02*
X156910000Y-62000000D01*
X157710000Y-62000000D02*
X157750000Y-62000000D01*
X158550000Y-62000000D02*
X160750000Y-62000000D01*
X161550000Y-62000000D02*
X161590000Y-62000000D01*
X162390000Y-62000000D02*
X162430000Y-62000000D01*
X163230000Y-62000000D02*
X165430000Y-62000000D01*
X166230000Y-62000000D02*
X166270000Y-62000000D01*
X167070000Y-62000000D02*
X167110000Y-62000000D01*
X167910000Y-62000000D02*
X170110000Y-62000000D01*
X170910000Y-62000000D02*
X170950000Y-62000000D01*
X171750000Y-62000000D02*
X171790000Y-62000000D01*
X172590000Y-62000000D02*
X174790000Y-62000000D01*
X175590000Y-62000000D02*
X175630000Y-62000000D01*
X176430000Y-62000000D02*
X176470000Y-62000000D01*
X177270000Y-62000000D02*
X179470000Y-62000000D01*
X180270000Y-62000000D02*
X180310000Y-62000000D01*
X181110000Y-62000000D02*
X181150000Y-62000000D01*
X181950000Y-62000000D02*
X184150000Y-62000000D01*
X184950000Y-62000000D02*
X184990000Y-62000000D01*
X185790000Y-62000000D02*
X185830000Y-62000000D01*
X186630000Y-62000000D02*
X188830000Y-62000000D01*
X189630000Y-62000000D02*
X189670000Y-62000000D01*
X190470000Y-62000000D02*
X190510000Y-62000000D01*
X191310000Y-62000000D02*
X193510000Y-62000000D01*
X194310000Y-62000000D02*
X194350000Y-62000000D01*
X195150000Y-62000000D02*
X195190000Y-62000000D01*
X195990000Y-62000000D02*
X198190000Y-62000000D01*
X198990000Y-62000000D02*
X199030000Y-62000000D01*
X199250000Y-62000000D02*
X199250000Y-64200000D01*
X199250000Y-65000000D02*
X199250000Y-65000000D01*
X199250000Y-65000000D02*
X197050000Y-65000000D01*
X196250000Y-65000000D02*
X196210000Y-65000000D01*
X195410000Y-65000000D02*
X195370000Y-65000000D01*
X194570000Y-65000000D02*
X192370000Y-65000000D01*
X191570000Y-65000000D02*
X191530000Y-65000000D01*
X190730000Y-65000000D02*
X190690000Y-65000000D01*
X189890000Y-65000000D02*
X187690000Y-65000000D01*
X186890000Y-65000000D02*
X186850000Y-65000000D01*
X186050000Y-65000000D02*
X186010000Y-65000000D01*
X185210000Y-65000000D02*
X183010000Y-65000000D01*
X182210000Y-65000000D02*
X182170000Y-65000000D01*
X181370000Y-65000000D02*
X181330000Y-65000000D01*
X180530000Y-65000000D02*
X178330000Y-65000000D01*
X177530000Y-65000000D02*
X177490000Y-65000000D01*
X176690000Y-65000000D02*
X176650000Y-65000000D01*
X175850000Y-65000000D02*
X173650000Y-65000000D01*
X172850000Y-65000000D02*
X172810000Y-65000000D01*
X172010000Y-65000000D02*
X171970000Y-65000000D01*
X171170000Y-65000000D02*
X168970000Y-65000000D01*
X168170000Y-65000000D02*
X168130000Y-65000000D01*
X167330000Y-65000000D02*
X167290000Y-65000000D01*
X166490000Y-65000000D02*
X164290000Y-65000000D01*
X163490000Y-65000000D02*
X163450000Y-65000000D01*
X162650000Y-65000000D02*
X162610000Y-65000000D01*
X161810000Y-65000000D02*
X159610000Y-65000000D01*
X158810000Y-65000000D02*
X158770000Y-65000000D01*
X157970000Y-65000000D02*
X157930000Y-65000000D01*
X157130000Y-65000000D02*
X154930000Y-65000000D01*
X154130000Y-65000000D02*
X154090000Y-65000000D01*
X153290000Y-65000000D02*
X153250000Y-65000000D01*
X152450000Y-65000000D02*
X150250000Y-65000000D01*
X149450000Y-65000000D02*
X149410000Y-65000000D01*
X148610000Y-65000000D02*
X148570000Y-65000000D01*
X147770000Y-65000000D02*
X145570000Y-65000000D01*
X144770000Y-65000000D02*
X144730000Y-65000000D01*
X143930000Y-65000000D02*
X143890000Y-65000000D01*
X143090000Y-65000000D02*
X140890000Y-65000000D01*
X140090000Y-65000000D02*
X140050000Y-65000000D01*
X139250000Y-65000000D02*
X139210000Y-65000000D01*
X138410000Y-65000000D02*
X136210000Y-65000000D01*
X135410000Y-65000000D02*
X135370000Y-65000000D01*
X134570000Y-65000000D02*
X134530000Y-65000000D01*
X133730000Y-65000000D02*
X131530000Y-65000000D01*
X130730000Y-65000000D02*
X130690000Y-65000000D01*
X129890000Y-65000000D02*
X129850000Y-65000000D01*
X129050000Y-65000000D02*
X126850000Y-65000000D01*
X126050000Y-65000000D02*
X126010000Y-65000000D01*
X125210000Y-65000000D02*
X125170000Y-65000000D01*
X124370000Y-65000000D02*
X122170000Y-65000000D01*
X121370000Y-65000000D02*
X121330000Y-65000000D01*
X120530000Y-65000000D02*
X120490000Y-65000000D01*
X119690000Y-65000000D02*
X117490000Y-65000000D01*
X116690000Y-65000000D02*
X116650000Y-65000000D01*
X115850000Y-65000000D02*
X115810000Y-65000000D01*
X115010000Y-65000000D02*
X112810000Y-65000000D01*
X112010000Y-65000000D02*
X111970000Y-65000000D01*
X111750000Y-65000000D02*
X111750000Y-62800000D01*
X111750000Y-62000000D02*
X111750000Y-62000000D01*
X101800000Y-70000000D02*
X104000000Y-70000000D01*
X104800000Y-70000000D02*
X104840000Y-70000000D01*
X105640000Y-70000000D02*
X105680000Y-70000000D01*
X106480000Y-70000000D02*
X108680000Y-70000000D01*
X109480000Y-70000000D02*
X109520000Y-70000000D01*
X110320000Y-70000000D02*
X110360000Y-70000000D01*
X111160000Y-70000000D02*
X113360000Y-70000000D01*
X114160000Y-70000000D02*
X114200000Y-70000000D01*
X115000000Y-70000000D02*
X115040000Y-70000000D01*
X115840000Y-70000000D02*
X118040000Y-70000000D01*
X118840000Y-70000000D02*
X118880000Y-70000000D01*
X119680000Y-70000000D02*
X119720000Y-70000000D01*
X120520000Y-70000000D02*
X122720000Y-70000000D01*
X123520000Y-70000000D02*
X123560000Y-70000000D01*
X124360000Y-70000000D02*
X124400000Y-70000000D01*
X125200000Y-70000000D02*
X127400000Y-70000000D01*
X128200000Y-70000000D02*
X128240000Y-70000000D01*
X129040000Y-70000000D02*
X129080000Y-70000000D01*
X129880000Y-70000000D02*
X132080000Y-70000000D01*
X132880000Y-70000000D02*
X132920000Y-70000000D01*
X133720000Y-70000000D02*
X133760000Y-70000000D01*
X134560000Y-70000000D02*
X136760000Y-70000000D01*
X137560000Y-70000000D02*
X137600000Y-70000000D01*
X138400000Y-70000000D02*
X138440000Y-70000000D01*
X139240000Y-70000000D02*
X141440000Y-70000000D01*
X142240000Y-70000000D02*
X142280000Y-70000000D01*
X143080000Y-70000000D02*
X143120000Y-70000000D01*
X143920000Y-70000000D02*
X146120000Y-70000000D01*
X146920000Y-70000000D02*
X146960000Y-70000000D01*
X147760000Y-70000000D02*
X147800000Y-70000000D01*
X148600000Y-70000000D02*
X150800000Y-70000000D01*
X151600000Y-70000000D02*
X151640000Y-70000000D01*
X152440000Y-70000000D02*
X152480000Y-70000000D01*
X153280000Y-70000000D02*
X155480000Y-70000000D01*
X156280000Y-70000000D02*
X156320000Y-70000000D01*
X157120000Y-70000000D02*
X157160000Y-70000000D01*
X157960000Y-70000000D02*
X160160000Y-70000000D01*
X160960000Y-70000000D02*
X161000000Y-70000000D01*
X161800000Y-70000000D02*
X161840000Y-70000000D01*
X162640000Y-70000000D02*
X164840000Y-70000000D01*
X165640000Y-70000000D02*
X165680000Y-70000000D01*
X166480000Y-70000000D02*
X166520000Y-70000000D01*
X167320000Y-70000000D02*
X169520000Y-70000000D01*
X170320000Y-70000000D02*
X170360000Y-70000000D01*
X171160000Y-70000000D02*
X171200000Y-70000000D01*
X172000000Y-70000000D02*
X174200000Y-70000000D01*
X175000000Y-70000000D02*
X175040000Y-70000000D01*
X175840000Y-70000000D02*
X175880000Y-70000000D01*
X176680000Y-70000000D02*
X178880000Y-70000000D01*
X179680000Y-70000000D02*
X179720000Y-70000000D01*
X180520000Y-70000000D02*
X180560000Y-70000000D01*
X181360000Y-70000000D02*
X183560000Y-70000000D01*
X184360000Y-70000000D02*
X184400000Y-70000000D01*
X185200000Y-70000000D02*
X185240000Y-70000000D01*
X186040000Y-70000000D02*
X187000000Y-70000000D01*
X187000000Y-70000000D02*
X187000000Y-72200000D01*
X187000000Y-73000000D02*
X187000000Y-73000000D01*
X187000000Y-73000000D02*
X184800000Y-73000000D01*
X184000000Y-73000000D02*
X183960000Y-73000000D01*
X183160000Y-73000000D02*
X183120000Y-73000000D01*
X182320000Y-73000000D02*
X180120000Y-73000000D01*
X179320000Y-73000000D02*
X179280000Y-73000000D01*
X178480000Y-73000000D02*
X178440000Y-73000000D01*
X177640000Y-73000000D02*
X175440000Y-73000000D01*
X174640000Y-73000000D02*
X174600000Y-73000000D01*
X173800000Y-73000000D02*
X173760000Y-73000000D01*
X172960000Y-73000000D02*
X170760000Y-73000000D01*
X169960000Y-73000000D02*
X169920000Y-73000000D01*
X169120000Y-73000000D02*
X169080000Y-73000000D01*
X168280000Y-73000000D02*
X166080000Y-73000000D01*
X165280000Y-73000000D02*
X165240000Y-73000000D01*
X164440000Y-73000000D02*
X164400000Y-73000000D01*
X163600000Y-73000000D02*
X161400000Y-73000000D01*
X160600000Y-73000000D02*
X160560000Y-73000000D01*
X159760000Y-73000000D02*
X159720000Y-73000000D01*
X158920000Y-73000000D02*
X156720000Y-73000000D01*
X155920000Y-73000000D02*
X155880000Y-73000000D01*
X155080000Y-73000000D02*
X155040000Y-73000000D01*
X154240000Y-73000000D02*
X152040000Y-73000000D01*
X151240000Y-73000000D02*
X151200000Y-73000000D01*
X150400000Y-73000000D02*
X150360000Y-73000000D01*
X149560000Y-73000000D02*
X147360000Y-73000000D01*
X146560000Y-73000000D02*
X146520000Y-73000000D01*
X145720000Y-73000000D02*
X145680000Y-73000000D01*
X144880000Y-73000000D02*
X142680000Y-73000000D01*
X141880000Y-73000000D02*
X141840000Y-73000000D01*
X141040000Y-73000000D02*
X141000000Y-73000000D01*
X140200000Y-73000000D02*
X138000000Y-73000000D01*
X137200000Y-73000000D02*
X137160000Y-73000000D01*
X136360000Y-73000000D02*
X136320000Y-73000000D01*
X135520000Y-73000000D02*
X133320000Y-73000000D01*
X132520000Y-73000000D02*
X132480000Y-73000000D01*
X131680000Y-73000000D02*
X131640000Y-73000000D01*
X130840000Y-73000000D02*
X128640000Y-73000000D01*
X127840000Y-73000000D02*
X127800000Y-73000000D01*
X127000000Y-73000000D02*
X126960000Y-73000000D01*
X126160000Y-73000000D02*
X123960000Y-73000000D01*
X123160000Y-73000000D02*
X123120000Y-73000000D01*
X122320000Y-73000000D02*
X122280000Y-73000000D01*
X121480000Y-73000000D02*
X119280000Y-73000000D01*
X118480000Y-73000000D02*
X118440000Y-73000000D01*
X117640000Y-73000000D02*
X117600000Y-73000000D01*
X116800000Y-73000000D02*
X114600000Y-73000000D01*
X113800000Y-73000000D02*
X113760000Y-73000000D01*
X112960000Y-73000000D02*
X112920000Y-73000000D01*
X112120000Y-73000000D02*
X109920000Y-73000000D01*
X109120000Y-73000000D02*
X109080000Y-73000000D01*
X108280000Y-73000000D02*
X108240000Y-73000000D01*
X107440000Y-73000000D02*
X105240000Y-73000000D01*
X104440000Y-73000000D02*
X104400000Y-73000000D01*
X103600000Y-73000000D02*
X103560000Y-73000000D01*
X102760000Y-73000000D02*
X101800000Y-73000000D01*
X101800000Y-73000000D02*
X101800000Y-70800000D01*
X101800000Y-70000000D02*
X101800000Y-70000000D01*
X143200000Y-78500000D02*
X145400000Y-78500000D01*
X146200000Y-78500000D02*
X146240000Y-78500000D01*
X147040000Y-78500000D02*
X147080000Y-78500000D01*
X147880000Y-78500000D02*
X150080000Y-78500000D01*
X150880000Y-78500000D02*
X150920000Y-78500000D01*
X151720000Y-78500000D02*
X151760000Y-78500000D01*
X152560000Y-78500000D02*
X154760000Y-78500000D01*
X155560000Y-78500000D02*
X155600000Y-78500000D01*
X156400000Y-78500000D02*
X156440000Y-78500000D01*
X157240000Y-78500000D02*
X159440000Y-78500000D01*
X160240000Y-78500000D02*
X160280000Y-78500000D01*
X161080000Y-78500000D02*
X161120000Y-78500000D01*
X161920000Y-78500000D02*
X164120000Y-78500000D01*
X164920000Y-78500000D02*
X164960000Y-78500000D01*
X165760000Y-78500000D02*
X165800000Y-78500000D01*
X166600000Y-78500000D02*
X168800000Y-78500000D01*
X169600000Y-78500000D02*
X169640000Y-78500000D01*
X170440000Y-78500000D02*
X170480000Y-78500000D01*
X171280000Y-78500000D02*
X173480000Y-78500000D01*
X174280000Y-78500000D02*
X174320000Y-78500000D01*
X175120000Y-78500000D02*
X175160000Y-78500000D01*
X175960000Y-78500000D02*
X176900000Y-78500000D01*
X132950000Y-71500000D02*
X135150000Y-71500000D01*
X135950000Y-71500000D02*
X135990000Y-71500000D01*
X136790000Y-71500000D02*
X136830000Y-71500000D01*
X137630000Y-71500000D02*
X139830000Y-71500000D01*
X140630000Y-71500000D02*
X140670000Y-71500000D01*
X141470000Y-71500000D02*
X141510000Y-71500000D01*
X142310000Y-71500000D02*
X144510000Y-71500000D01*
X145310000Y-71500000D02*
X145350000Y-71500000D01*
X146150000Y-71500000D02*
X146190000Y-71500000D01*
X146990000Y-71500000D02*
X149190000Y-71500000D01*
X149990000Y-71500000D02*
X150030000Y-71500000D01*
X150830000Y-71500000D02*
X150870000Y-71500000D01*
X151670000Y-71500000D02*
X153870000Y-71500000D01*
X154670000Y-71500000D02*
X154710000Y-71500000D01*
X155510000Y-71500000D02*
X155550000Y-71500000D01*
X156350000Y-71500000D02*
X158550000Y-71500000D01*
X159350000Y-71500000D02*
X159390000Y-71500000D01*
X160190000Y-71500000D02*
X160230000Y-71500000D01*
X161030000Y-71500000D02*
X163230000Y-71500000D01*
X164030000Y-71500000D02*
X164070000Y-71500000D01*
X164870000Y-71500000D02*
X164910000Y-71500000D01*
X165710000Y-71500000D02*
X167910000Y-71500000D01*
X168710000Y-71500000D02*
X168750000Y-71500000D01*
X169550000Y-71500000D02*
X169590000Y-71500000D01*
X170390000Y-71500000D02*
X172590000Y-71500000D01*
X173390000Y-71500000D02*
X173430000Y-71500000D01*
X174230000Y-71500000D02*
X174270000Y-71500000D01*
X175070000Y-71500000D02*
X176900000Y-71500000D01*
X122350000Y-63500000D02*
X124550000Y-63500000D01*
X125350000Y-63500000D02*
X125390000Y-63500000D01*
X126190000Y-63500000D02*
X126230000Y-63500000D01*
X127030000Y-63500000D02*
X129230000Y-63500000D01*
X130030000Y-63500000D02*
X130070000Y-63500000D01*
X130870000Y-63500000D02*
X130910000Y-63500000D01*
X131710000Y-63500000D02*
X133050000Y-63500000D01*
X167250000Y-63500000D02*
X169450000Y-63500000D01*
X170250000Y-63500000D02*
X170290000Y-63500000D01*
X171090000Y-63500000D02*
X171130000Y-63500000D01*
X171930000Y-63500000D02*
X174130000Y-63500000D01*
X174930000Y-63500000D02*
X174970000Y-63500000D01*
X175770000Y-63500000D02*
X175810000Y-63500000D01*
X176610000Y-63500000D02*
X178810000Y-63500000D01*
X179610000Y-63500000D02*
X179650000Y-63500000D01*
X180450000Y-63500000D02*
X180490000Y-63500000D01*
X181290000Y-63500000D02*
X183490000Y-63500000D01*
X184290000Y-63500000D02*
X184330000Y-63500000D01*
X185130000Y-63500000D02*
X185170000Y-63500000D01*
X185970000Y-63500000D02*
X188170000Y-63500000D01*
X188970000Y-63500000D02*
X189010000Y-63500000D01*
X111550000Y-86500000D02*
X113750000Y-86500000D01*
X114550000Y-86500000D02*
X114590000Y-86500000D01*
X115390000Y-86500000D02*
X115430000Y-86500000D01*
X116230000Y-86500000D02*
X118430000Y-86500000D01*
X119230000Y-86500000D02*
X119270000Y-86500000D01*
X120070000Y-86500000D02*
X120110000Y-86500000D01*
X120910000Y-86500000D02*
X122250000Y-86500000D01*
X101800000Y-85000000D02*
X104000000Y-85000000D01*
X104800000Y-85000000D02*
X104840000Y-85000000D01*
X105640000Y-85000000D02*
X105680000Y-85000000D01*
X106480000Y-85000000D02*
X108680000Y-85000000D01*
X109480000Y-85000000D02*
X109520000Y-85000000D01*
X110320000Y-85000000D02*
X110360000Y-85000000D01*
X111160000Y-85000000D02*
X113360000Y-85000000D01*
X114160000Y-85000000D02*
X114200000Y-85000000D01*
X115000000Y-85000000D02*
X115040000Y-85000000D01*
X115840000Y-85000000D02*
X118040000Y-85000000D01*
X118840000Y-85000000D02*
X118880000Y-85000000D01*
X119680000Y-85000000D02*
X119720000Y-85000000D01*
X120520000Y-85000000D02*
X122720000Y-85000000D01*
X123520000Y-85000000D02*
X123560000Y-85000000D01*
X124360000Y-85000000D02*
X124400000Y-85000000D01*
X125200000Y-85000000D02*
X127400000Y-85000000D01*
X128200000Y-85000000D02*
X128240000Y-85000000D01*
X129040000Y-85000000D02*
X129080000Y-85000000D01*
X129880000Y-85000000D02*
X132080000Y-85000000D01*
X132880000Y-85000000D02*
X132920000Y-85000000D01*
X133720000Y-85000000D02*
X133760000Y-85000000D01*
X134560000Y-85000000D02*
X136760000Y-85000000D01*
X137560000Y-85000000D02*
X137600000Y-85000000D01*
X138400000Y-85000000D02*
X138440000Y-85000000D01*
X139240000Y-85000000D02*
X141440000Y-85000000D01*
X142240000Y-85000000D02*
X142280000Y-85000000D01*
X143080000Y-85000000D02*
X143120000Y-85000000D01*
X143920000Y-85000000D02*
X146120000Y-85000000D01*
X146920000Y-85000000D02*
X146960000Y-85000000D01*
X147760000Y-85000000D02*
X147800000Y-85000000D01*
X148600000Y-85000000D02*
X150800000Y-85000000D01*
X151600000Y-85000000D02*
X151640000Y-85000000D01*
X152440000Y-85000000D02*
X152480000Y-85000000D01*
X153280000Y-85000000D02*
X155480000Y-85000000D01*
X156280000Y-85000000D02*
X156320000Y-85000000D01*
X157120000Y-85000000D02*
X157160000Y-85000000D01*
X157960000Y-85000000D02*
X160160000Y-85000000D01*
X160960000Y-85000000D02*
X161000000Y-85000000D01*
X161800000Y-85000000D02*
X161840000Y-85000000D01*
X162640000Y-85000000D02*
X164840000Y-85000000D01*
X165640000Y-85000000D02*
X165680000Y-85000000D01*
X166480000Y-85000000D02*
X166520000Y-85000000D01*
X167320000Y-85000000D02*
X169520000Y-85000000D01*
X170320000Y-85000000D02*
X170360000Y-85000000D01*
X171160000Y-85000000D02*
X171200000Y-85000000D01*
X172000000Y-85000000D02*
X174200000Y-85000000D01*
X175000000Y-85000000D02*
X175040000Y-85000000D01*
X175840000Y-85000000D02*
X175880000Y-85000000D01*
X176680000Y-85000000D02*
X178880000Y-85000000D01*
X179680000Y-85000000D02*
X179720000Y-85000000D01*
X180520000Y-85000000D02*
X180560000Y-85000000D01*
X181360000Y-85000000D02*
X183560000Y-85000000D01*
X184360000Y-85000000D02*
X184400000Y-85000000D01*
X185200000Y-85000000D02*
X185240000Y-85000000D01*
X186040000Y-85000000D02*
X188240000Y-85000000D01*
X189040000Y-85000000D02*
X189080000Y-85000000D01*
X189880000Y-85000000D02*
X189920000Y-85000000D01*
X190720000Y-85000000D02*
X192920000Y-85000000D01*
X193720000Y-85000000D02*
X193760000Y-85000000D01*
X194560000Y-85000000D02*
X194600000Y-85000000D01*
X195400000Y-85000000D02*
X197600000Y-85000000D01*
X198400000Y-85000000D02*
X198440000Y-85000000D01*
X199240000Y-85000000D02*
X199280000Y-85000000D01*
X199300000Y-85000000D02*
X199300000Y-87200000D01*
X199300000Y-88000000D02*
X199300000Y-88000000D01*
X199300000Y-88000000D02*
X197100000Y-88000000D01*
X196300000Y-88000000D02*
X196260000Y-88000000D01*
X195460000Y-88000000D02*
X195420000Y-88000000D01*
X194620000Y-88000000D02*
X192420000Y-88000000D01*
X191620000Y-88000000D02*
X191580000Y-88000000D01*
X190780000Y-88000000D02*
X190740000Y-88000000D01*
X189940000Y-88000000D02*
X187740000Y-88000000D01*
X186940000Y-88000000D02*
X186900000Y-88000000D01*
X186100000Y-88000000D02*
X186060000Y-88000000D01*
X185260000Y-88000000D02*
X183060000Y-88000000D01*
X182260000Y-88000000D02*
X182220000Y-88000000D01*
X181420000Y-88000000D02*
X181380000Y-88000000D01*
X180580000Y-88000000D02*
X178380000Y-88000000D01*
X177580000Y-88000000D02*
X177540000Y-88000000D01*
X176740000Y-88000000D02*
X176700000Y-88000000D01*
X175900000Y-88000000D02*
X173700000Y-88000000D01*
X172900000Y-88000000D02*
X172860000Y-88000000D01*
X172060000Y-88000000D02*
X172020000Y-88000000D01*
X171220000Y-88000000D02*
X169020000Y-88000000D01*
X168220000Y-88000000D02*
X168180000Y-88000000D01*
X167380000Y-88000000D02*
X167340000Y-88000000D01*
X166540000Y-88000000D02*
X164340000Y-88000000D01*
X163540000Y-88000000D02*
X163500000Y-88000000D01*
X162700000Y-88000000D02*
X162660000Y-88000000D01*
X161860000Y-88000000D02*
X159660000Y-88000000D01*
X158860000Y-88000000D02*
X158820000Y-88000000D01*
X158020000Y-88000000D02*
X157980000Y-88000000D01*
X157180000Y-88000000D02*
X154980000Y-88000000D01*
X154180000Y-88000000D02*
X154140000Y-88000000D01*
X153340000Y-88000000D02*
X153300000Y-88000000D01*
X152500000Y-88000000D02*
X150300000Y-88000000D01*
X149500000Y-88000000D02*
X149460000Y-88000000D01*
X148660000Y-88000000D02*
X148620000Y-88000000D01*
X147820000Y-88000000D02*
X145620000Y-88000000D01*
X144820000Y-88000000D02*
X144780000Y-88000000D01*
X143980000Y-88000000D02*
X143940000Y-88000000D01*
X143140000Y-88000000D02*
X140940000Y-88000000D01*
X140140000Y-88000000D02*
X140100000Y-88000000D01*
X139300000Y-88000000D02*
X139260000Y-88000000D01*
X138460000Y-88000000D02*
X136260000Y-88000000D01*
X135460000Y-88000000D02*
X135420000Y-88000000D01*
X134620000Y-88000000D02*
X134580000Y-88000000D01*
X133780000Y-88000000D02*
X131580000Y-88000000D01*
X130780000Y-88000000D02*
X130740000Y-88000000D01*
X129940000Y-88000000D02*
X129900000Y-88000000D01*
X129100000Y-88000000D02*
X126900000Y-88000000D01*
X126100000Y-88000000D02*
X126060000Y-88000000D01*
X125260000Y-88000000D02*
X125220000Y-88000000D01*
X124420000Y-88000000D02*
X122220000Y-88000000D01*
X121420000Y-88000000D02*
X121380000Y-88000000D01*
X120580000Y-88000000D02*
X120540000Y-88000000D01*
X119740000Y-88000000D02*
X117540000Y-88000000D01*
X116740000Y-88000000D02*
X116700000Y-88000000D01*
X115900000Y-88000000D02*
X115860000Y-88000000D01*
X115060000Y-88000000D02*
X112860000Y-88000000D01*
X112060000Y-88000000D02*
X112020000Y-88000000D01*
X111220000Y-88000000D02*
X111180000Y-88000000D01*
X110380000Y-88000000D02*
X108180000Y-88000000D01*
X107380000Y-88000000D02*
X107340000Y-88000000D01*
X106540000Y-88000000D02*
X106500000Y-88000000D01*
X105700000Y-88000000D02*
X103500000Y-88000000D01*
X102700000Y-88000000D02*
X102660000Y-88000000D01*
X101860000Y-88000000D02*
X101820000Y-88000000D01*
X101800000Y-88000000D02*
X101800000Y-85800000D01*
X101800000Y-85000000D02*
X101800000Y-85000000D01*
X143900000Y-63500000D02*
X146100000Y-63500000D01*
X146900000Y-63500000D02*
X146940000Y-63500000D01*
X147740000Y-63500000D02*
X147780000Y-63500000D01*
X148580000Y-63500000D02*
X150780000Y-63500000D01*
X151580000Y-63500000D02*
X151620000Y-63500000D01*
X152420000Y-63500000D02*
X152460000Y-63500000D01*
X153260000Y-63500000D02*
X155460000Y-63500000D01*
X156260000Y-63500000D02*
X156300000Y-63500000D01*
X157100000Y-63500000D02*
X157140000Y-63500000D01*
X157940000Y-63500000D02*
X160140000Y-63500000D01*
X160940000Y-63500000D02*
X160980000Y-63500000D01*
X161780000Y-63500000D02*
X161820000Y-63500000D01*
X162620000Y-63500000D02*
X163200000Y-63500000D01*
D11*
X168185713Y-66678328D02*
X168042856Y-66678328D01*
X168042856Y-66678328D02*
X167899999Y-66749757D01*
X167899999Y-66749757D02*
X167828571Y-66821185D01*
X167828571Y-66821185D02*
X167757142Y-66964042D01*
X167757142Y-66964042D02*
X167685713Y-67249757D01*
X167685713Y-67249757D02*
X167685713Y-67606900D01*
X167685713Y-67606900D02*
X167757142Y-67892614D01*
X167757142Y-67892614D02*
X167828571Y-68035471D01*
X167828571Y-68035471D02*
X167899999Y-68106900D01*
X167899999Y-68106900D02*
X168042856Y-68178328D01*
X168042856Y-68178328D02*
X168185713Y-68178328D01*
X168185713Y-68178328D02*
X168328571Y-68106900D01*
X168328571Y-68106900D02*
X168399999Y-68035471D01*
X168399999Y-68035471D02*
X168471428Y-67892614D01*
X168471428Y-67892614D02*
X168542856Y-67606900D01*
X168542856Y-67606900D02*
X168542856Y-67249757D01*
X168542856Y-67249757D02*
X168471428Y-66964042D01*
X168471428Y-66964042D02*
X168399999Y-66821185D01*
X168399999Y-66821185D02*
X168328571Y-66749757D01*
X168328571Y-66749757D02*
X168185713Y-66678328D01*
X167042857Y-68035471D02*
X166971428Y-68106900D01*
X166971428Y-68106900D02*
X167042857Y-68178328D01*
X167042857Y-68178328D02*
X167114285Y-68106900D01*
X167114285Y-68106900D02*
X167042857Y-68035471D01*
X167042857Y-68035471D02*
X167042857Y-68178328D01*
X166471428Y-66678328D02*
X165542856Y-66678328D01*
X165542856Y-66678328D02*
X166042856Y-67249757D01*
X166042856Y-67249757D02*
X165828571Y-67249757D01*
X165828571Y-67249757D02*
X165685714Y-67321185D01*
X165685714Y-67321185D02*
X165614285Y-67392614D01*
X165614285Y-67392614D02*
X165542856Y-67535471D01*
X165542856Y-67535471D02*
X165542856Y-67892614D01*
X165542856Y-67892614D02*
X165614285Y-68035471D01*
X165614285Y-68035471D02*
X165685714Y-68106900D01*
X165685714Y-68106900D02*
X165828571Y-68178328D01*
X165828571Y-68178328D02*
X166257142Y-68178328D01*
X166257142Y-68178328D02*
X166399999Y-68106900D01*
X166399999Y-68106900D02*
X166471428Y-68035471D01*
X164971428Y-67749757D02*
X164257143Y-67749757D01*
X165114285Y-68178328D02*
X164614285Y-66678328D01*
X164614285Y-66678328D02*
X164114285Y-68178328D01*
X153185713Y-66678328D02*
X153042856Y-66678328D01*
X153042856Y-66678328D02*
X152899999Y-66749757D01*
X152899999Y-66749757D02*
X152828571Y-66821185D01*
X152828571Y-66821185D02*
X152757142Y-66964042D01*
X152757142Y-66964042D02*
X152685713Y-67249757D01*
X152685713Y-67249757D02*
X152685713Y-67606900D01*
X152685713Y-67606900D02*
X152757142Y-67892614D01*
X152757142Y-67892614D02*
X152828571Y-68035471D01*
X152828571Y-68035471D02*
X152899999Y-68106900D01*
X152899999Y-68106900D02*
X153042856Y-68178328D01*
X153042856Y-68178328D02*
X153185713Y-68178328D01*
X153185713Y-68178328D02*
X153328571Y-68106900D01*
X153328571Y-68106900D02*
X153399999Y-68035471D01*
X153399999Y-68035471D02*
X153471428Y-67892614D01*
X153471428Y-67892614D02*
X153542856Y-67606900D01*
X153542856Y-67606900D02*
X153542856Y-67249757D01*
X153542856Y-67249757D02*
X153471428Y-66964042D01*
X153471428Y-66964042D02*
X153399999Y-66821185D01*
X153399999Y-66821185D02*
X153328571Y-66749757D01*
X153328571Y-66749757D02*
X153185713Y-66678328D01*
X152042857Y-68035471D02*
X151971428Y-68106900D01*
X151971428Y-68106900D02*
X152042857Y-68178328D01*
X152042857Y-68178328D02*
X152114285Y-68106900D01*
X152114285Y-68106900D02*
X152042857Y-68035471D01*
X152042857Y-68035471D02*
X152042857Y-68178328D01*
X150685714Y-66678328D02*
X150971428Y-66678328D01*
X150971428Y-66678328D02*
X151114285Y-66749757D01*
X151114285Y-66749757D02*
X151185714Y-66821185D01*
X151185714Y-66821185D02*
X151328571Y-67035471D01*
X151328571Y-67035471D02*
X151399999Y-67321185D01*
X151399999Y-67321185D02*
X151399999Y-67892614D01*
X151399999Y-67892614D02*
X151328571Y-68035471D01*
X151328571Y-68035471D02*
X151257142Y-68106900D01*
X151257142Y-68106900D02*
X151114285Y-68178328D01*
X151114285Y-68178328D02*
X150828571Y-68178328D01*
X150828571Y-68178328D02*
X150685714Y-68106900D01*
X150685714Y-68106900D02*
X150614285Y-68035471D01*
X150614285Y-68035471D02*
X150542856Y-67892614D01*
X150542856Y-67892614D02*
X150542856Y-67535471D01*
X150542856Y-67535471D02*
X150614285Y-67392614D01*
X150614285Y-67392614D02*
X150685714Y-67321185D01*
X150685714Y-67321185D02*
X150828571Y-67249757D01*
X150828571Y-67249757D02*
X151114285Y-67249757D01*
X151114285Y-67249757D02*
X151257142Y-67321185D01*
X151257142Y-67321185D02*
X151328571Y-67392614D01*
X151328571Y-67392614D02*
X151399999Y-67535471D01*
X149971428Y-67749757D02*
X149257143Y-67749757D01*
X150114285Y-68178328D02*
X149614285Y-66678328D01*
X149614285Y-66678328D02*
X149114285Y-68178328D01*
D12*
G04 #@! TO.C,J1*
X154300000Y-67100000D02*
X154300000Y-67700000D01*
X155000000Y-68400000D02*
X156400000Y-68400000D01*
X156400000Y-66400000D02*
X155000000Y-66400000D01*
X157100000Y-67700000D02*
X157100000Y-67100000D01*
X154300000Y-67100000D02*
G75*
G02*
X155000000Y-66400000I699999J1D01*
G01*
X155000000Y-68400000D02*
G75*
G02*
X154300000Y-67700000I-1J699999D01*
G01*
X156400000Y-66400000D02*
G75*
G02*
X157100000Y-67100000I0J-700000D01*
G01*
X157100000Y-67700000D02*
G75*
G02*
X156400000Y-68400000I-700000J0D01*
G01*
G04 #@! TO.C,J2*
X160700000Y-67100000D02*
X160700000Y-67700000D01*
X161400000Y-68400000D02*
X162800000Y-68400000D01*
X162800000Y-66400000D02*
X161400000Y-66400000D01*
X163500000Y-67700000D02*
X163500000Y-67100000D01*
X160700000Y-67100000D02*
G75*
G02*
X161400000Y-66400000I700000J0D01*
G01*
X161400000Y-68400000D02*
G75*
G02*
X160700000Y-67700000I0J700000D01*
G01*
X162800000Y-66400000D02*
G75*
G02*
X163500000Y-67100000I1J-699999D01*
G01*
X163500000Y-67700000D02*
G75*
G02*
X162800000Y-68400000I-699999J-1D01*
G01*
G04 #@! TD*
%LPC*%
D13*
X177200000Y-77100000D02*
X186800000Y-77100000D01*
X186800000Y-79900000D01*
X177200000Y-79900000D01*
X177200000Y-77100000D01*
G36*
X177200000Y-77100000D02*
G01*
X186800000Y-77100000D01*
X186800000Y-79900000D01*
X177200000Y-79900000D01*
X177200000Y-77100000D01*
G37*
X133200000Y-77100000D02*
X142800000Y-77100000D01*
X142800000Y-79900000D01*
X133200000Y-79900000D01*
X133200000Y-77100000D01*
G36*
X133200000Y-77100000D02*
G01*
X142800000Y-77100000D01*
X142800000Y-79900000D01*
X133200000Y-79900000D01*
X133200000Y-77100000D01*
G37*
X122800000Y-85100000D02*
X132400000Y-85100000D01*
X132400000Y-87900000D01*
X122800000Y-87900000D01*
X122800000Y-85100000D01*
G36*
X122800000Y-85100000D02*
G01*
X132400000Y-85100000D01*
X132400000Y-87900000D01*
X122800000Y-87900000D01*
X122800000Y-85100000D01*
G37*
X163400000Y-62000000D02*
X166900000Y-62000000D01*
X166900000Y-65000000D01*
X163400000Y-65000000D01*
X163400000Y-62000000D01*
G36*
X163400000Y-62000000D02*
G01*
X166900000Y-62000000D01*
X166900000Y-65000000D01*
X163400000Y-65000000D01*
X163400000Y-62000000D01*
G37*
X123000000Y-70100000D02*
X132600000Y-70100000D01*
X132600000Y-72900000D01*
X123000000Y-72900000D01*
X123000000Y-70100000D01*
G36*
X123000000Y-70100000D02*
G01*
X132600000Y-70100000D01*
X132600000Y-72900000D01*
X123000000Y-72900000D01*
X123000000Y-70100000D01*
G37*
X177200000Y-70100000D02*
X186800000Y-70100000D01*
X186800000Y-72900000D01*
X177200000Y-72900000D01*
X177200000Y-70100000D01*
G36*
X177200000Y-70100000D02*
G01*
X186800000Y-70100000D01*
X186800000Y-72900000D01*
X177200000Y-72900000D01*
X177200000Y-70100000D01*
G37*
X101950000Y-85100000D02*
X111650000Y-85100000D01*
X111650000Y-87900000D01*
X101950000Y-87900000D01*
X101950000Y-85100000D01*
G36*
X101950000Y-85100000D02*
G01*
X111650000Y-85100000D01*
X111650000Y-87900000D01*
X101950000Y-87900000D01*
X101950000Y-85100000D01*
G37*
X189600000Y-62100000D02*
X199600000Y-62100000D01*
X199600000Y-64900000D01*
X189600000Y-64900000D01*
X189600000Y-62100000D01*
G36*
X189600000Y-62100000D02*
G01*
X199600000Y-62100000D01*
X199600000Y-64900000D01*
X189600000Y-64900000D01*
X189600000Y-62100000D01*
G37*
X112200000Y-62100000D02*
X121800000Y-62100000D01*
X121800000Y-64900000D01*
X112200000Y-64900000D01*
X112200000Y-62100000D01*
G36*
X112200000Y-62100000D02*
G01*
X121800000Y-62100000D01*
X121800000Y-64900000D01*
X112200000Y-64900000D01*
X112200000Y-62100000D01*
G37*
X102000000Y-70100000D02*
X111600000Y-70100000D01*
X111600000Y-72900000D01*
X102000000Y-72900000D01*
X102000000Y-70100000D01*
G36*
X102000000Y-70100000D02*
G01*
X111600000Y-70100000D01*
X111600000Y-72900000D01*
X102000000Y-72900000D01*
X102000000Y-70100000D01*
G37*
X189650000Y-85100000D02*
X199550000Y-85100000D01*
X199550000Y-87900000D01*
X189650000Y-87900000D01*
X189650000Y-85100000D01*
G36*
X189650000Y-85100000D02*
G01*
X199550000Y-85100000D01*
X199550000Y-87900000D01*
X189650000Y-87900000D01*
X189650000Y-85100000D01*
G37*
X133400000Y-62100000D02*
X143000000Y-62100000D01*
X143000000Y-64900000D01*
X133400000Y-64900000D01*
X133400000Y-62100000D01*
G36*
X133400000Y-62100000D02*
G01*
X143000000Y-62100000D01*
X143000000Y-64900000D01*
X133400000Y-64900000D01*
X133400000Y-62100000D01*
G37*
X112000000Y-77100000D02*
X121600000Y-77100000D01*
X121600000Y-79900000D01*
X112000000Y-79900000D01*
X112000000Y-77100000D01*
G36*
X112000000Y-77100000D02*
G01*
X121600000Y-77100000D01*
X121600000Y-79900000D01*
X112000000Y-79900000D01*
X112000000Y-77100000D01*
G37*
D14*
X198110652Y-53184438D02*
X198110652Y-51184438D01*
X198110652Y-51184438D02*
X197634462Y-51184438D01*
X197634462Y-51184438D02*
X197348747Y-51279676D01*
X197348747Y-51279676D02*
X197158271Y-51470152D01*
X197158271Y-51470152D02*
X197063033Y-51660628D01*
X197063033Y-51660628D02*
X196967795Y-52041580D01*
X196967795Y-52041580D02*
X196967795Y-52327295D01*
X196967795Y-52327295D02*
X197063033Y-52708247D01*
X197063033Y-52708247D02*
X197158271Y-52898723D01*
X197158271Y-52898723D02*
X197348747Y-53089200D01*
X197348747Y-53089200D02*
X197634462Y-53184438D01*
X197634462Y-53184438D02*
X198110652Y-53184438D01*
X194967795Y-52993961D02*
X195063033Y-53089200D01*
X195063033Y-53089200D02*
X195348747Y-53184438D01*
X195348747Y-53184438D02*
X195539223Y-53184438D01*
X195539223Y-53184438D02*
X195824938Y-53089200D01*
X195824938Y-53089200D02*
X196015414Y-52898723D01*
X196015414Y-52898723D02*
X196110652Y-52708247D01*
X196110652Y-52708247D02*
X196205890Y-52327295D01*
X196205890Y-52327295D02*
X196205890Y-52041580D01*
X196205890Y-52041580D02*
X196110652Y-51660628D01*
X196110652Y-51660628D02*
X196015414Y-51470152D01*
X196015414Y-51470152D02*
X195824938Y-51279676D01*
X195824938Y-51279676D02*
X195539223Y-51184438D01*
X195539223Y-51184438D02*
X195348747Y-51184438D01*
X195348747Y-51184438D02*
X195063033Y-51279676D01*
X195063033Y-51279676D02*
X194967795Y-51374914D01*
X194110652Y-52136819D02*
X193443985Y-52136819D01*
X193158271Y-53184438D02*
X194110652Y-53184438D01*
X194110652Y-53184438D02*
X194110652Y-51184438D01*
X194110652Y-51184438D02*
X193158271Y-51184438D01*
X192396366Y-53089200D02*
X192110652Y-53184438D01*
X192110652Y-53184438D02*
X191634461Y-53184438D01*
X191634461Y-53184438D02*
X191443985Y-53089200D01*
X191443985Y-53089200D02*
X191348747Y-52993961D01*
X191348747Y-52993961D02*
X191253509Y-52803485D01*
X191253509Y-52803485D02*
X191253509Y-52613009D01*
X191253509Y-52613009D02*
X191348747Y-52422533D01*
X191348747Y-52422533D02*
X191443985Y-52327295D01*
X191443985Y-52327295D02*
X191634461Y-52232057D01*
X191634461Y-52232057D02*
X192015414Y-52136819D01*
X192015414Y-52136819D02*
X192205890Y-52041580D01*
X192205890Y-52041580D02*
X192301128Y-51946342D01*
X192301128Y-51946342D02*
X192396366Y-51755866D01*
X192396366Y-51755866D02*
X192396366Y-51565390D01*
X192396366Y-51565390D02*
X192301128Y-51374914D01*
X192301128Y-51374914D02*
X192205890Y-51279676D01*
X192205890Y-51279676D02*
X192015414Y-51184438D01*
X192015414Y-51184438D02*
X191539223Y-51184438D01*
X191539223Y-51184438D02*
X191253509Y-51279676D01*
X189253509Y-52993961D02*
X189348747Y-53089200D01*
X189348747Y-53089200D02*
X189634461Y-53184438D01*
X189634461Y-53184438D02*
X189824937Y-53184438D01*
X189824937Y-53184438D02*
X190110652Y-53089200D01*
X190110652Y-53089200D02*
X190301128Y-52898723D01*
X190301128Y-52898723D02*
X190396366Y-52708247D01*
X190396366Y-52708247D02*
X190491604Y-52327295D01*
X190491604Y-52327295D02*
X190491604Y-52041580D01*
X190491604Y-52041580D02*
X190396366Y-51660628D01*
X190396366Y-51660628D02*
X190301128Y-51470152D01*
X190301128Y-51470152D02*
X190110652Y-51279676D01*
X190110652Y-51279676D02*
X189824937Y-51184438D01*
X189824937Y-51184438D02*
X189634461Y-51184438D01*
X189634461Y-51184438D02*
X189348747Y-51279676D01*
X189348747Y-51279676D02*
X189253509Y-51374914D01*
X188396366Y-52422533D02*
X186872557Y-52422533D01*
X184872557Y-51279676D02*
X185063033Y-51184438D01*
X185063033Y-51184438D02*
X185348747Y-51184438D01*
X185348747Y-51184438D02*
X185634462Y-51279676D01*
X185634462Y-51279676D02*
X185824938Y-51470152D01*
X185824938Y-51470152D02*
X185920176Y-51660628D01*
X185920176Y-51660628D02*
X186015414Y-52041580D01*
X186015414Y-52041580D02*
X186015414Y-52327295D01*
X186015414Y-52327295D02*
X185920176Y-52708247D01*
X185920176Y-52708247D02*
X185824938Y-52898723D01*
X185824938Y-52898723D02*
X185634462Y-53089200D01*
X185634462Y-53089200D02*
X185348747Y-53184438D01*
X185348747Y-53184438D02*
X185158271Y-53184438D01*
X185158271Y-53184438D02*
X184872557Y-53089200D01*
X184872557Y-53089200D02*
X184777319Y-52993961D01*
X184777319Y-52993961D02*
X184777319Y-52327295D01*
X184777319Y-52327295D02*
X185158271Y-52327295D01*
X184015414Y-52613009D02*
X183063033Y-52613009D01*
X184205890Y-53184438D02*
X183539224Y-51184438D01*
X183539224Y-51184438D02*
X182872557Y-53184438D01*
X182301128Y-51374914D02*
X182205890Y-51279676D01*
X182205890Y-51279676D02*
X182015414Y-51184438D01*
X182015414Y-51184438D02*
X181539223Y-51184438D01*
X181539223Y-51184438D02*
X181348747Y-51279676D01*
X181348747Y-51279676D02*
X181253509Y-51374914D01*
X181253509Y-51374914D02*
X181158271Y-51565390D01*
X181158271Y-51565390D02*
X181158271Y-51755866D01*
X181158271Y-51755866D02*
X181253509Y-52041580D01*
X181253509Y-52041580D02*
X182396366Y-53184438D01*
X182396366Y-53184438D02*
X181158271Y-53184438D01*
X179348747Y-51184438D02*
X180301128Y-51184438D01*
X180301128Y-51184438D02*
X180396366Y-52136819D01*
X180396366Y-52136819D02*
X180301128Y-52041580D01*
X180301128Y-52041580D02*
X180110652Y-51946342D01*
X180110652Y-51946342D02*
X179634461Y-51946342D01*
X179634461Y-51946342D02*
X179443985Y-52041580D01*
X179443985Y-52041580D02*
X179348747Y-52136819D01*
X179348747Y-52136819D02*
X179253509Y-52327295D01*
X179253509Y-52327295D02*
X179253509Y-52803485D01*
X179253509Y-52803485D02*
X179348747Y-52993961D01*
X179348747Y-52993961D02*
X179443985Y-53089200D01*
X179443985Y-53089200D02*
X179634461Y-53184438D01*
X179634461Y-53184438D02*
X180110652Y-53184438D01*
X180110652Y-53184438D02*
X180301128Y-53089200D01*
X180301128Y-53089200D02*
X180396366Y-52993961D01*
X177063032Y-51851104D02*
X176586842Y-53184438D01*
X176586842Y-53184438D02*
X176110651Y-51851104D01*
X174967794Y-51184438D02*
X174777317Y-51184438D01*
X174777317Y-51184438D02*
X174586841Y-51279676D01*
X174586841Y-51279676D02*
X174491603Y-51374914D01*
X174491603Y-51374914D02*
X174396365Y-51565390D01*
X174396365Y-51565390D02*
X174301127Y-51946342D01*
X174301127Y-51946342D02*
X174301127Y-52422533D01*
X174301127Y-52422533D02*
X174396365Y-52803485D01*
X174396365Y-52803485D02*
X174491603Y-52993961D01*
X174491603Y-52993961D02*
X174586841Y-53089200D01*
X174586841Y-53089200D02*
X174777317Y-53184438D01*
X174777317Y-53184438D02*
X174967794Y-53184438D01*
X174967794Y-53184438D02*
X175158270Y-53089200D01*
X175158270Y-53089200D02*
X175253508Y-52993961D01*
X175253508Y-52993961D02*
X175348746Y-52803485D01*
X175348746Y-52803485D02*
X175443984Y-52422533D01*
X175443984Y-52422533D02*
X175443984Y-51946342D01*
X175443984Y-51946342D02*
X175348746Y-51565390D01*
X175348746Y-51565390D02*
X175253508Y-51374914D01*
X175253508Y-51374914D02*
X175158270Y-51279676D01*
X175158270Y-51279676D02*
X174967794Y-51184438D01*
G04 #@! TO.C,J1*
G36*
X155550000Y-68150000D02*
G01*
X155850000Y-68150000D01*
X155850000Y-66650000D01*
X155550000Y-66650000D01*
X155550000Y-68150000D01*
G37*
G04 #@! TO.C,J2*
G36*
X162250000Y-66650000D02*
G01*
X161950000Y-66650000D01*
X161950000Y-68150000D01*
X162250000Y-68150000D01*
X162250000Y-66650000D01*
G37*
G04 #@! TD*
D15*
G04 #@! TO.C,C65*
X196600000Y-56000000D03*
D16*
X191600000Y-56000000D03*
G04 #@! TD*
D17*
G04 #@! TO.C,J18*
X196200000Y-75000000D03*
G04 #@! TD*
D18*
G04 #@! TO.C,H1*
X106400000Y-96500000D03*
G04 #@! TD*
G04 #@! TO.C,H4*
X116700000Y-53500000D03*
G04 #@! TD*
D19*
G04 #@! TO.C,X8*
X182100000Y-97250000D03*
D20*
X183600000Y-97250000D03*
X185100000Y-97250000D03*
G04 #@! TD*
D21*
G04 #@! TO.C,X1*
X164600000Y-56940000D03*
X173600000Y-56940000D03*
D22*
X167600000Y-53000000D03*
D16*
X170600000Y-53000000D03*
X167600000Y-56000000D03*
X170600000Y-56000000D03*
G04 #@! TD*
D23*
G04 #@! TO.C,J7*
X110800000Y-53000000D03*
G04 #@! TD*
G04 #@! TO.C,J5*
X133800000Y-97000000D03*
G04 #@! TD*
D24*
G04 #@! TO.C,X5*
X169600000Y-93500000D03*
D25*
X169600000Y-95000000D03*
X169600000Y-96500000D03*
X169600000Y-98000000D03*
G04 #@! TD*
D23*
G04 #@! TO.C,J4*
X112100000Y-97000000D03*
G04 #@! TD*
D24*
G04 #@! TO.C,X6*
X174000000Y-93500000D03*
D25*
X174000000Y-95000000D03*
X174000000Y-96500000D03*
X174000000Y-98000000D03*
G04 #@! TD*
D15*
G04 #@! TO.C,C68*
X196600000Y-94000000D03*
D16*
X191600000Y-94000000D03*
G04 #@! TD*
D23*
G04 #@! TO.C,J10*
X132500000Y-53000000D03*
G04 #@! TD*
D24*
G04 #@! TO.C,X4*
X165200000Y-93500000D03*
D25*
X165200000Y-95000000D03*
X165200000Y-96500000D03*
X165200000Y-98000000D03*
G04 #@! TD*
D19*
G04 #@! TO.C,X11*
X153300000Y-74650000D03*
D20*
X154800000Y-74650000D03*
X156300000Y-74650000D03*
X157800000Y-74650000D03*
G04 #@! TD*
D24*
G04 #@! TO.C,X9*
X178400000Y-95000000D03*
D25*
X178400000Y-96500000D03*
X178400000Y-98000000D03*
G04 #@! TD*
D26*
G04 #@! TO.C,U13*
X157600000Y-67650000D03*
X158900000Y-67650000D03*
X160200000Y-67650000D03*
X157600000Y-66350000D03*
X158900000Y-66350000D03*
X160200000Y-66350000D03*
G04 #@! TD*
D27*
G04 #@! TO.C,X12*
X154050000Y-59150000D03*
X154050000Y-51650000D03*
D28*
X151900000Y-57800000D03*
X156200000Y-57800000D03*
X151900000Y-53000000D03*
X156200000Y-53000000D03*
G04 #@! TD*
D18*
G04 #@! TO.C,H2*
X127900000Y-96500000D03*
G04 #@! TD*
D24*
G04 #@! TO.C,X3*
X156400000Y-93500000D03*
D25*
X156400000Y-95000000D03*
X156400000Y-96500000D03*
X156400000Y-98000000D03*
G04 #@! TD*
D29*
G04 #@! TO.C,X2*
X158700000Y-51400000D03*
D30*
X160700000Y-53000000D03*
D31*
X160700000Y-55500000D03*
G04 #@! TD*
D24*
G04 #@! TO.C,X7*
X160800000Y-93500000D03*
D25*
X160800000Y-95000000D03*
X160800000Y-96500000D03*
X160800000Y-98000000D03*
G04 #@! TD*
D32*
G04 #@! TO.C,J19*
X188000000Y-75000000D03*
G04 #@! TD*
D18*
G04 #@! TO.C,H5*
X138200000Y-53500000D03*
G04 #@! TD*
D33*
G04 #@! TO.C,C67*
X196600000Y-83500000D03*
D16*
X191619026Y-83064221D03*
G04 #@! TD*
D23*
G04 #@! TO.C,J3*
X117200000Y-97000000D03*
G04 #@! TD*
D19*
G04 #@! TO.C,X10*
X145800000Y-97300000D03*
D20*
X147300000Y-97300000D03*
X148800000Y-97300000D03*
X150300000Y-97300000D03*
X151800000Y-97300000D03*
G04 #@! TD*
D23*
G04 #@! TO.C,J6*
X138900000Y-97000000D03*
G04 #@! TD*
D34*
G04 #@! TO.C,C66*
X196600000Y-66500000D03*
D16*
X191619026Y-66935779D03*
G04 #@! TD*
D23*
G04 #@! TO.C,J8*
X105700000Y-53000000D03*
G04 #@! TD*
D18*
G04 #@! TO.C,H3*
X181000000Y-75000000D03*
G04 #@! TD*
D35*
G04 #@! TO.C,J9*
X127400000Y-53000000D03*
G04 #@! TD*
D36*
G04 #@! TO.C,J1*
X155050000Y-67400000D03*
D37*
X156350000Y-67400000D03*
G04 #@! TD*
D38*
G04 #@! TO.C,J2*
X162750000Y-67400000D03*
D39*
X161450000Y-67400000D03*
G04 #@! TD*
%LPD*%
M02*
